<svg width="85" height="60" viewBox="0 0 85 60" fill="none" xmlns="http://www.w3.org/2000/svg">
  <path
    d="M71.617 26.6811C72.7465 25.6396 73.876 24.598 75.187 23.389C73.3758 21.5958 71.8119 18.6729 68.3272 19.0246C65.0707 19.3534 61.9456 20.2576 60.45 23.932C60.3251 24.0133 60.1876 24.0177 60.1853 23.9073C60.425 23.1772 60.7381 22.5753 60.8945 21.9344C61.2511 20.4736 62.0026 19.6075 63.5969 19.4897C64.4218 19.4287 65.2046 18.9008 66.0347 18.7764C68.4295 18.4177 70.9385 17.7192 72.7635 20.1701C73.3937 21.0164 74.056 21.3034 74.8257 20.4957C75.2591 21.8694 75.666 23.1589 76.0836 24.4825C77.2249 24.3487 77.2445 23.4596 76.8995 22.8012C75.8225 20.7458 74.4702 18.8327 73.4629 16.7467C72.5571 14.8708 70.6889 13.9075 69.7101 12.0247C68.8301 10.3319 67.1423 8.99364 65.6172 7.73964C64.1074 6.49814 62.4284 5.41194 60.6905 4.52414C58.7812 3.54884 56.7774 2.45514 54.712 2.16724C51.0693 1.65934 47.3425 1.51034 43.6624 1.61714C40.7971 1.70024 37.8309 2.03244 35.125 2.92314C32.0506 3.93514 29.1944 5.64904 26.2889 7.14814C25.3045 7.65604 24.4892 8.48834 23.5422 9.08394C22.2795 9.87814 20.9637 10.586 19.6335 11.2871C19.5963 11.2433 19.5193 11.158 19.5193 11.158C21.7421 9.62204 23.9429 8.05204 26.1961 6.56314C27.5028 5.69974 28.8562 4.89004 30.2535 4.18854C35.7505 1.42894 41.6075 0.519541 47.689 0.882041C49.7206 1.00314 51.7681 1.04484 53.7756 1.34594C60.1306 2.29904 65.1414 5.74634 69.3202 10.4579C72.4875 14.029 75.3376 17.871 77.1232 22.0734C78.2408 21.8918 79.2834 21.4194 80.1076 21.6731C80.9429 21.9301 81.5802 22.8859 82.2709 23.5701C82.923 24.2161 83.5576 24.8849 84.1412 25.593C84.2874 25.7705 84.2085 26.1376 84.0998 26.5078C83.8117 26.6116 83.6568 26.6251 83.3987 26.6345C82.8893 26.2325 82.4479 25.8648 82.0852 25.43C81.5153 24.7468 81.101 23.8887 80.43 23.3455C79.7582 22.8016 78.9013 22.3208 78.2252 23.6199C77.9312 24.1848 77.2315 24.6186 76.6222 24.9138C75.1318 25.636 73.4286 26.0016 72.7277 27.2892C73.0714 28.6736 73.3336 29.7294 73.6528 30.8359C73.8601 30.899 74.0102 30.9115 74.2444 30.9248C74.4746 31.0013 74.6206 31.0769 74.7593 31.2671C75.0482 31.5944 75.3444 31.8073 75.6431 32.023C75.6455 32.0259 75.6532 32.02 75.6248 32.1139C75.2123 32.2616 74.8282 32.3156 74.4442 32.3695C74.4442 32.3695 74.4381 32.3742 74.4028 32.3002C74.227 32.1675 74.0866 32.1088 73.9461 32.0501C73.8864 32.0256 73.8267 32.0012 73.6599 31.8329C73.0549 31.3344 72.5572 30.9796 72.0594 30.6249C72.051 30.5198 72.0426 30.4147 72.0955 30.1214C72.0533 29.598 71.9496 29.2627 71.846 28.9274C71.8014 28.9086 71.7567 28.8898 71.6605 28.6994C71.6116 27.9122 71.6143 27.2967 71.617 26.6811Z"
    fill="#C44843" />
  <path
    d="M7.36213 28.577C7.83433 25.1083 8.95703 21.8083 11.2177 19.2029C13.6978 16.3446 16.6157 13.8746 19.431 11.1967C19.5192 11.158 19.5963 11.2433 19.5864 11.3705C17.3899 13.6255 15.1463 15.6978 13.0411 17.9051C12.0048 18.9917 10.9829 20.2191 10.3844 21.5765C9.43783 23.7237 8.84863 26.0324 8.11593 28.2754C7.45223 30.3071 7.61533 30.5606 9.73223 30.6313C10.3877 30.6532 11.069 30.6299 11.7013 30.4735C13.1072 30.1259 14.3567 30.5712 15.4293 31.335C16.8733 32.3633 18.3023 32.5522 19.9822 32.0896C20.7323 31.8831 21.739 31.889 22.4027 32.2383C24.5622 33.3749 26.8124 33.8283 29.2175 33.8496C29.9719 33.8563 30.8064 34.0967 31.461 34.4801C34.212 36.0914 36.9588 37.6239 40.3114 37.3159C40.5476 37.2942 40.8143 37.6126 40.9385 37.815C37.5149 38.3578 34.6543 37.224 31.9901 35.417C30.7182 34.5543 29.366 34.1959 27.8308 34.3098C25.897 34.4532 24.0885 33.9937 22.3913 32.9907C21.8686 32.6818 21.0799 32.4249 20.557 32.5955C18.3876 33.3035 16.4643 32.9629 14.65 31.6352C13.7483 30.9753 12.8168 30.8874 11.7055 31.2366C10.0759 31.7488 8.42353 31.7439 7.02023 30.3795C6.76663 29.9607 6.52163 29.6339 6.27673 29.307C6.40073 29.281 6.52473 29.255 6.80643 29.3067C7.09683 29.1153 7.22953 28.8461 7.36213 28.577Z"
    fill="#C44843" />
  <path
    d="M60.1876 24.0178C60.1876 24.0178 60.3251 24.0134 60.3939 24.0127C59.2265 28.5344 58.9417 33.1565 59.0657 37.8184C59.092 38.8067 59.1251 39.8055 59.2989 40.7731C59.3563 41.0924 59.8245 41.4716 60.1769 41.5769C61.4086 41.9449 61.5615 42.7971 61.5051 43.9212C61.4467 45.0849 61.731 46.282 61.5653 47.4199C61.3926 48.6057 60.8615 49.7381 60.3761 51.0516C60.2917 51.8489 60.3183 52.4886 60.3448 53.1283C60.3445 53.2625 60.3441 53.3967 60.2945 53.726C60.2187 54.141 60.1921 54.3611 60.1656 54.5812C60.1656 54.5812 60.1728 54.5845 60.1046 54.5938C60.0365 54.603 59.912 54.6488 59.9054 54.5277C59.8773 53.7996 60.0406 53.0634 58.9483 53.0713C58.8249 52.528 58.5847 51.926 58.7852 51.6083C60.0397 49.6198 60.3989 47.5299 59.9532 45.218C59.8196 44.5253 60.0937 43.7522 60.2031 42.8299C56.9191 42.7881 53.6754 43.1975 51.4526 40.438C51.8368 40.4871 52.2199 40.4449 52.3714 40.6144C54.243 42.7091 56.6599 41.9331 58.7702 41.9393C58.6717 40.4785 58.4923 39.0143 58.4938 37.5503C58.4957 35.4808 58.4784 33.3908 58.7491 31.3474C59.0756 28.8835 59.695 26.4592 60.1876 24.0178Z"
    fill="#C65A53" />
  <path
    d="M59.0354 53.144C60.0407 53.0633 59.8774 53.7995 59.8718 54.6087C59.7571 55.0216 59.6694 55.2324 59.5816 55.4431C59.5191 55.5144 59.4629 55.5904 59.2991 55.7627C59.1311 56.0075 59.0769 56.1608 59.0226 56.3141C58.9652 56.3899 58.9068 56.4649 58.7397 56.6106C58.5386 56.7354 58.5092 56.8133 58.5438 56.9159C58.5438 56.9159 58.4691 57.0113 58.3775 57.099C58.2469 57.2791 58.2078 57.3715 58.1688 57.4639C58.1688 57.4639 58.1754 57.4696 58.0954 57.5109C57.9787 57.7191 57.9422 57.886 57.9056 58.0528C57.877 58.1564 57.8485 58.26 57.7579 58.4941C57.6757 58.7228 57.6555 58.821 57.6353 58.9192C57.4903 59.0065 57.3453 59.0938 57.0059 59.1964C56.5025 59.2297 56.1935 59.2476 55.8845 59.2655C55.7682 59.2395 55.6518 59.2135 55.3884 59.117C55.0745 59.0217 54.9075 58.9968 54.7406 58.9718C54.7406 58.9718 54.6341 58.911 54.5419 58.8268C54.3591 58.7072 54.2684 58.6719 54.1778 58.6366C54.0412 58.469 53.9047 58.3014 53.7008 57.9792C53.4282 57.4305 53.223 57.0363 53.0178 56.6422C52.7709 56.3939 52.524 56.1456 52.3488 55.8135C52.7228 55.541 53.025 55.3523 53.4173 55.2001C53.7506 55.5242 54.0395 55.784 54.2299 56.1037C55.7731 58.6945 55.8199 58.7227 57.4642 56.2247C58.0935 55.2688 58.5178 54.1749 59.0354 53.144Z"
    fill="#C4524C" />
  <path
    d="M1.11489 40.7387C1.11489 40.7387 1.11863 40.6044 1.11622 40.4583C1.11294 40.2593 1.11207 40.2064 1.11121 40.1536C1.53874 38.9855 2.05723 37.8883 1.79563 36.5198C1.6827 35.9288 2.33093 35.189 2.72653 34.4098C2.81973 34.3029 2.85073 34.19 2.85073 34.19C2.87563 34.117 2.90043 34.0439 3.03903 33.8202C3.07753 33.3281 3.00233 32.9867 2.92703 32.6452C2.92703 32.6452 2.86473 32.6054 2.85533 32.5483C2.84583 32.4911 2.79893 32.4231 2.79893 32.4231C2.75143 32.2773 2.70383 32.1315 2.72743 31.8331C2.81933 31.5799 2.84003 31.4794 2.86083 31.3789C2.86083 31.3789 2.90693 31.2583 3.07533 31.1943C3.62483 31.1179 4.00613 31.1055 4.37743 31.1648C4.33073 31.3263 4.29383 31.416 4.17283 31.5482C4.14213 31.8533 4.19563 32.1161 4.25123 32.3761C4.25343 32.3734 4.24713 32.3761 4.25713 32.4557C4.29413 32.5812 4.32133 32.627 4.34403 32.7792C4.34733 33.0978 4.35503 33.3102 4.31923 33.6219C4.17433 34.1405 4.07303 34.5597 3.94553 35.0184C3.91943 35.0577 3.89903 35.1501 3.83643 35.1937C3.72903 35.3279 3.68433 35.4186 3.66293 35.521C3.68623 35.533 3.64203 35.5039 3.57103 35.5325C3.47613 35.6553 3.45223 35.7497 3.38083 35.9456C3.24933 36.3093 3.01343 36.665 3.10593 36.8181C3.70653 37.8128 3.01153 38.5993 2.75533 39.4462C2.62073 39.8907 2.38063 40.3025 2.08083 40.7315C1.68733 40.7355 1.40111 40.7371 1.11489 40.7387Z"
    fill="#C3524B" />
  <path
    d="M51.302 55.0001C48.8934 53.9726 46.0916 54.1584 43.872 52.4666C43.4399 52.1373 42.5971 52.3587 41.7648 52.3164C41.476 52.3088 41.4041 52.3626 41.37 52.468C41.2814 52.5492 41.1928 52.6305 40.9268 52.6609C40.5659 52.4854 40.3823 52.3608 40.2312 52.1714C40.3395 51.9834 40.4155 51.8603 40.573 51.6618C42.3106 50.8055 43.8983 50.88 45.4472 51.9092C45.7903 52.1372 46.2908 52.3998 46.6294 52.3083C47.8425 51.9804 48.6861 52.6812 49.5653 53.2885C49.6993 53.7537 49.7942 54.2288 50.0809 54.4825C50.3959 54.7613 50.8874 54.8363 51.302 55.0001Z"
    fill="#C45B54" />
  <path
    d="M40.4915 51.7368C40.4156 51.86 40.3397 51.9831 40.127 52.1797C39.6808 52.4373 39.3714 52.6215 39.062 52.8057C38.6367 52.6122 38.2114 52.4188 37.6956 52.0743C37.3262 51.7546 37.0472 51.586 36.7683 51.4175C36.7041 51.385 36.64 51.3525 36.4782 51.2332C36.3804 51.1462 36.2903 51.108 36.2903 51.108C36.2255 51.1 36.1608 51.092 35.9927 50.9563C35.6135 50.8481 35.3377 50.8676 35.0619 50.8872C34.9412 50.942 34.8205 50.9969 34.575 50.9435C33.3651 50.5631 32.2799 50.2909 31.1948 50.0187C31.0549 49.9041 30.9149 49.7894 30.7378 49.5093C30.5948 49.2767 30.4889 49.2094 30.383 49.142C30.2994 49.1313 30.2379 49.0882 30.2322 48.8519C30.381 48.4172 30.4961 48.1434 30.6985 47.9038C31.9867 49.2203 33.2774 50.298 35.3305 49.9301C35.5371 49.9427 35.62 49.9417 35.8147 49.9219C36.3989 50.0909 36.8714 50.2788 37.3642 50.5268C37.3846 50.5869 37.4474 50.697 37.4789 50.6918C37.5104 50.6866 37.6218 50.735 37.6624 50.824C37.8149 50.9695 37.9269 51.0261 38.1223 51.1045C38.2973 51.1956 38.3887 51.2648 38.5111 51.4047C38.6782 51.5278 38.8144 51.58 39.0353 51.6314C39.5772 51.666 40.0343 51.7014 40.4915 51.7368Z"
    fill="#C3584F" />
  <path
    d="M16.4885 45.9543C16.3673 45.9397 16.2461 45.925 16.0124 45.8325C15.82 45.7871 15.7402 45.8195 15.6603 45.852C14.1851 46.5131 12.8641 46.1519 11.6121 45.249C11.1367 44.9061 10.6307 44.6064 10.0489 44.1385C9.95914 43.7826 9.95904 43.5753 10.0624 43.3425C11.3958 43.9492 12.4364 45.0384 14.0329 44.977C14.3268 44.987 14.5611 44.9497 14.8816 44.8603C15.1632 44.7705 15.3586 44.7329 15.6826 44.722C15.9849 44.735 16.1587 44.7211 16.3835 44.7112C16.4347 44.7152 16.5219 44.7699 16.555 44.8375C16.6757 44.9455 16.7633 44.986 16.8551 45.0266C16.8593 45.0267 16.8643 45.0178 16.8415 45.1217C16.7086 45.4685 16.5986 45.7114 16.4885 45.9543Z"
    fill="#BE4640" />
  <path
    d="M30.6111 47.8698C30.496 48.1435 30.3809 48.4173 30.2224 48.7942C29.9385 48.7568 29.698 48.6162 29.334 48.3443C28.9763 48.1279 28.7421 48.043 28.4379 47.9295C28.1332 47.9887 27.8985 48.0763 27.5861 48.1757C27.3053 48.216 27.1021 48.2446 26.8989 48.2733C26.7477 48.3337 26.5965 48.3942 26.2568 48.3954C25.7504 48.4229 25.4325 48.5097 25.1145 48.5964C25.1145 48.5964 25.1052 48.5669 25.0496 48.5839C24.9277 48.6693 24.8614 48.7377 24.7951 48.806C23.8899 48.7054 22.8552 48.903 22.3165 47.6162C22.2238 47.3852 22.2229 47.2845 22.3047 47.1726C23.4652 47.2822 24.544 47.5042 25.6209 47.4954C26.678 47.4867 27.7332 47.2436 28.8118 47.2093C29.3034 47.4231 29.7725 47.5311 30.2313 47.6487C30.2211 47.6583 30.2302 47.6316 30.262 47.7033C30.3856 47.8157 30.4775 47.8564 30.5774 47.8866C30.5854 47.8759 30.6111 47.8698 30.6111 47.8698Z"
    fill="#C1514C" />
  <path
    d="M51.3595 55.0607C50.8874 54.8362 50.3959 54.7612 50.0808 54.4824C49.7942 54.2287 49.6992 53.7537 49.6775 53.3039C49.9752 53.2878 50.1153 53.344 50.2853 53.4161C50.3151 53.432 50.4485 53.4368 50.5653 53.4345C51.2804 53.3853 51.8787 53.3384 52.4461 53.2939C52.7619 53.9641 53.0445 54.5638 53.3271 55.1636C53.0248 55.3523 52.7226 55.5411 52.3152 55.7308C52.1538 55.7051 52.0975 55.6783 51.9635 55.5152C51.7817 55.3121 51.6776 55.2453 51.5735 55.1786C51.5213 55.1595 51.4692 55.1404 51.3595 55.0607Z"
    fill="#C34139" />
  <path
    d="M1.02615 40.7932C1.40108 40.7373 1.6873 40.7357 2.07353 40.8371C1.92723 41.8092 0.956017 42.9074 2.79533 43.1777C2.96243 43.5314 3.17633 43.8098 3.39023 44.0883C2.63563 44.0821 1.74193 44.3381 1.15333 44.019C-0.394723 43.1796 0.431207 41.9557 1.02615 40.7932Z"
    fill="#C96560" />
  <path
    d="M83.5019 26.6387C83.6568 26.6251 83.8117 26.6116 84.0829 26.5901C84.279 28.3841 85.1558 30.263 83.5296 31.9903C83.122 31.9614 82.8793 31.858 82.6949 31.667C83.0002 30.6088 83.3064 29.6486 83.4736 28.6642C83.5853 28.0068 83.4994 27.3151 83.5019 26.6387Z"
    fill="#B9443E" />
  <path
    d="M22.2222 47.184C22.2231 47.2846 22.224 47.3853 22.2252 47.5615C21.07 47.4593 19.9144 47.2815 18.6191 46.9831C18.0484 46.5578 17.6173 46.2531 16.9047 45.7493C17.8697 45.8394 18.4503 45.8937 19.0952 46.0108C20.1804 46.4438 21.2013 46.8139 22.2222 47.184Z"
    fill="#C04641" />
  <path
    d="M82.6369 31.7546C82.8795 31.858 83.1221 31.9613 83.4635 32.074C83.3875 32.3189 83.2128 32.5544 82.9399 32.8626C82.7839 32.946 82.7419 32.9778 82.7156 33.0309C82.5085 33.0746 82.3013 33.1183 81.9618 33.0369C81.3658 32.8764 80.9023 32.8411 80.4387 32.8058C80.3105 32.843 80.1824 32.8801 79.8858 32.8537C79.1539 32.8702 78.5904 32.9502 78.027 33.0309C78.0642 32.8062 78.1012 32.5808 78.2463 32.3243C79.7819 32.1136 81.2094 31.9341 82.6369 31.7546Z"
    fill="#BB3F38" />
  <path
    d="M78.1381 32.3556C78.1011 32.5809 78.0641 32.8063 78.0269 33.031C78.5902 32.9503 79.1537 32.8703 79.7855 32.8604C78.0022 33.92 76.2094 34.0959 74.4928 32.4543C74.8282 32.3156 75.2123 32.2617 75.7131 32.1301C76.0373 32.1738 76.2447 32.2952 76.4508 32.52C76.5959 32.8152 76.7424 33.007 76.8888 33.1988C77.0152 32.9448 77.1417 32.6909 77.3732 32.4027C77.6983 32.3642 77.9182 32.3599 78.1381 32.3556Z"
    fill="#CC6D67" />
  <path
    d="M3.49965 44.1142C3.17645 43.8097 2.96255 43.5312 2.90295 43.1616C3.83025 43.1843 4.60325 43.2983 5.42485 43.4919C5.70025 43.9889 6.91805 43.7385 6.25445 44.7561C6.02345 44.7301 5.79255 44.704 5.42365 44.5839C5.21855 44.4629 5.15375 44.4673 5.09095 44.5031C4.59695 44.3821 4.10295 44.2612 3.49965 44.1142Z"
    fill="#BB3A36" />
  <path
    d="M4.38734 31.0931C4.00614 31.1056 3.62494 31.118 3.12634 31.1556C3.64704 29.9225 4.81784 29.5326 6.17014 29.2859C6.52174 29.6339 6.76664 29.9607 6.92024 30.3509C6.35324 30.4965 5.87754 30.5787 5.40014 30.5658C5.28824 30.3081 5.17814 30.1455 5.06804 29.983C4.81574 30.3248 4.56344 30.6665 4.33784 31.0225C4.36454 31.0367 4.38734 31.0931 4.38734 31.0931Z"
    fill="#CF6C65" />
  <path
    d="M6.33464 44.8089C6.91804 43.7387 5.70024 43.9891 5.53064 43.497C6.28454 43.4902 6.98114 43.558 7.67364 43.726C8.02174 43.9995 8.37384 44.1728 8.72594 44.346C7.95554 44.5178 7.18514 44.6896 6.33464 44.8089Z"
    fill="#C8655A" />
  <path
    d="M19.0308 45.9479C18.4502 45.8936 17.8696 45.8394 16.9046 45.7493C17.6172 46.253 18.0482 46.5578 18.5026 46.9578C17.8641 46.7533 17.2023 46.4536 16.5145 46.0542C16.5986 45.7116 16.7087 45.4687 16.9457 45.1301C17.7254 45.3389 18.3781 45.6434 19.0308 45.9479Z"
    fill="#CC6A63" />
  <path
    d="M8.79802 44.3541C8.37372 44.1727 8.02162 43.9995 7.78662 43.7058C8.58882 43.5129 9.27392 43.4406 9.95902 43.3682C9.95912 43.5755 9.95912 43.7828 9.95932 44.0938C9.95942 44.1974 9.85582 44.2623 9.68512 44.2353C9.44152 44.2241 9.36872 44.2399 9.29582 44.2557C9.15392 44.2912 9.01202 44.3267 8.79802 44.3541Z"
    fill="#BE443C" />
  <path
    d="M39.1393 52.8721C39.3713 52.6215 39.6807 52.4373 40.0944 52.2446C40.3823 52.3606 40.5659 52.4852 40.8371 52.6801C40.3553 52.8132 39.786 52.8759 39.1393 52.8721Z"
    fill="#D97E76" />
  <path
    d="M72.0188 30.6975C72.5571 30.9795 73.0549 31.3343 73.5836 31.7727C73.0691 31.4943 72.5237 31.1322 72.0188 30.6975Z"
    fill="#CC6D67" />
  <path
    d="M31.2491 50.1111C32.2798 50.2912 33.365 50.5634 34.4753 50.9234C33.4348 50.742 32.3692 50.4726 31.2491 50.1111Z"
    fill="#C7615B" />
  <path
    d="M71.5419 26.7363C71.615 27.2967 71.6123 27.9122 71.6177 28.6406C71.5727 28.0994 71.5194 27.4454 71.5419 26.7363Z"
    fill="#CC6D67" />
  <path
    d="M28.508 47.958C28.7422 48.0429 28.9763 48.1279 29.2619 48.2666C28.5844 48.3252 27.8556 48.33 27.0128 48.304C27.1021 48.2445 27.3053 48.2159 27.678 48.1937C28.0677 48.1194 28.2879 48.0387 28.508 47.958Z"
    fill="#C7615B" />
  <path
    d="M60.386 53.0274C60.3183 52.4886 60.2914 51.8489 60.3472 51.1465C60.4288 51.6981 60.4279 52.3123 60.386 53.0274Z"
    fill="#F9CFC8" />
  <path
    d="M53.017 56.7471C53.223 57.0364 53.4282 57.4305 53.6376 57.9285C53.4333 57.6389 53.2248 57.2454 53.017 56.7471Z"
    fill="#F9CFC8" />
  <path
    d="M80.5363 32.8524C80.9022 32.841 81.3657 32.8763 81.8601 33.0002C81.4719 33.0255 81.053 32.9623 80.5363 32.8524Z"
    fill="#CC6D67" />
  <path
    d="M25.1978 48.5915C25.4325 48.5096 25.7505 48.4228 26.1349 48.4028C25.8946 48.5086 25.5878 48.5476 25.1978 48.5915Z"
    fill="#C7615B" />
  <path
    d="M35.1669 50.9226C35.3378 50.8678 35.6136 50.8483 35.9086 50.9063C35.7091 50.9752 35.4905 50.9665 35.1669 50.9226Z"
    fill="#C7615B" />
  <path
    d="M36.8014 51.4941C37.0471 51.5862 37.3261 51.7547 37.6257 51.9969C37.3758 51.9038 37.1052 51.7372 36.8014 51.4941Z"
    fill="#C7615B" />
  <path d="M2.93262 32.76C3.00222 32.9868 3.07742 33.3283 3.10242 33.724C3.01412 33.4771 2.97622 33.1759 2.93262 32.76Z"
    fill="#CF6C65" />
  <path d="M7.3016 28.6384C7.2295 28.846 7.0968 29.1152 6.901 29.3229C6.9722 29.0743 7.1066 28.887 7.3016 28.6384Z"
    fill="#CF6C65" />
  <path
    d="M59.682 55.4339C59.6692 55.2323 59.757 55.0216 59.8783 54.7297C59.912 54.6486 60.0365 54.6028 60.1016 54.5906C60.0386 54.8605 59.9106 55.1426 59.682 55.4339Z"
    fill="#F9CFC8" />
  <path
    d="M55.9512 59.3313C56.1936 59.2476 56.5025 59.2296 56.9267 59.229C56.7006 59.2966 56.3593 59.3469 55.9512 59.3313Z"
    fill="#F9CFC8" />
  <path d="M71.8704 29.03C71.9496 29.2627 72.0533 29.598 72.1265 30.0475C72.0291 29.8186 71.9619 29.4756 71.8704 29.03Z"
    fill="#CC6D67" />
  <path
    d="M60.2372 54.5399C60.1922 54.3611 60.2188 54.141 60.3036 53.8262C60.3441 53.9872 60.3265 54.2429 60.2372 54.5399Z"
    fill="#F9CFC8" />
  <path
    d="M41.371 52.5274C41.4042 52.3623 41.4761 52.3086 41.6572 52.3227C41.6097 52.4216 41.4908 52.5043 41.371 52.5274Z"
    fill="#D97E76" />
  <path
    d="M73.9817 32.1213C74.0865 32.1088 74.227 32.1675 74.4035 32.2965C74.2988 32.3087 74.158 32.2506 73.9817 32.1213Z"
    fill="#CC6D67" />
  <path
    d="M2.80197 31.3997C2.84007 31.4796 2.81927 31.5801 2.76647 31.721C2.71597 31.684 2.68877 31.6071 2.68297 31.5287C2.68047 31.4943 2.72177 31.4566 2.80197 31.3997Z"
    fill="#CF6C65" />
  <path
    d="M51.5876 55.2461C51.6776 55.2454 51.7817 55.3121 51.9061 55.441C51.8181 55.44 51.7099 55.3768 51.5876 55.2461Z"
    fill="#C45B54" />
  <path
    d="M59.0949 56.2762C59.0768 56.1609 59.1311 56.0076 59.2641 55.8247C59.2843 55.9427 59.2258 56.0904 59.0949 56.2762Z"
    fill="#F9CFC8" />
  <path
    d="M57.9786 58.006C57.942 57.886 57.9786 57.7192 58.0918 57.5083C58.1295 57.6293 58.0907 57.7942 57.9786 58.006Z"
    fill="#F9CFC8" />
  <path
    d="M54.7961 59.0405C54.9074 58.9968 55.0743 59.0217 55.299 59.1115C55.1884 59.154 55.0201 59.1315 54.7961 59.0405Z"
    fill="#F9CFC8" />
  <path
    d="M58.5981 56.8902C58.5091 56.8133 58.5385 56.7354 58.6976 56.6682C58.7537 56.7391 58.7168 56.8091 58.5981 56.8902Z"
    fill="#F9CFC8" />
  <path
    d="M58.2415 57.4352C58.2078 57.3716 58.2469 57.2791 58.3572 57.1562C58.3905 57.2194 58.3524 57.3129 58.2415 57.4352Z"
    fill="#F9CFC8" />
  <path
    d="M54.2104 58.7057C54.2683 58.672 54.359 58.7073 54.4827 58.811C54.4249 58.8444 54.3341 58.8096 54.2104 58.7057Z"
    fill="#F9CFC8" />
  <path
    d="M57.7018 58.8749C57.6555 58.8209 57.6757 58.7226 57.7536 58.5747C57.797 58.6268 57.7827 58.7288 57.7018 58.8749Z"
    fill="#F9CFC8" />
  <path
    d="M2.77063 32.4481C2.79933 32.4231 2.84663 32.4913 2.85223 32.5114C2.85773 32.5315 2.78163 32.5381 2.78163 32.5381C2.78163 32.5381 2.74203 32.4731 2.77063 32.4481Z"
    fill="#CF6C65" />
  <path
    d="M82.7609 33.0623C82.7416 32.9779 82.7837 32.946 82.8821 32.9343C82.9374 33.0263 82.8986 33.0799 82.7609 33.0623Z"
    fill="#CC6D67" />
  <path
    d="M15.7344 45.868C15.7403 45.8196 15.8202 45.7871 15.9271 45.7991C15.9056 45.857 15.857 45.8705 15.7344 45.868Z"
    fill="#CC6A63" />
  <path
    d="M2.81067 34.1985C2.85197 34.1899 2.82057 34.303 2.80207 34.3255C2.78367 34.3481 2.73267 34.282 2.73267 34.282C2.73267 34.282 2.76947 34.2071 2.81067 34.1985Z"
    fill="#CF6C65" />
  <path
    d="M36.296 51.1454C36.2902 51.1081 36.3803 51.1464 36.4012 51.1572C36.4221 51.168 36.3671 51.2176 36.3671 51.2176C36.3671 51.2176 36.3019 51.1828 36.296 51.1454Z"
    fill="#C7615B" />
  <path
    d="M1.03806 40.1675C1.11293 40.2067 1.11381 40.2595 1.11041 40.3917C1.05878 40.3744 1.01142 40.2778 1.03806 40.1675Z"
    fill="#C96560" />
  <path
    d="M9.34766 44.2866C9.36876 44.2398 9.44156 44.2241 9.62536 44.2234C9.62396 44.265 9.51176 44.2913 9.34766 44.2866Z"
    fill="#C8655A" />
  <path
    d="M30.4178 49.2288C30.4888 49.2096 30.5946 49.2769 30.7229 49.4406C30.6478 49.4631 30.5503 49.3892 30.4178 49.2288Z"
    fill="#C7615B" />
  <path
    d="M24.8742 48.8136C24.8614 48.7377 24.9277 48.6694 25.0648 48.5862C25.0748 48.6547 25.014 48.7379 24.8742 48.8136Z"
    fill="#C7615B" />
  <path
    d="M5.12915 44.5414C5.15365 44.4674 5.21855 44.463 5.32495 44.5204C5.36445 44.5511 5.27155 44.6046 5.27155 44.6046C5.27155 44.6046 5.16745 44.5795 5.12915 44.5414Z"
    fill="#C8655A" />
  <path
    d="M60.1852 23.9071C59.6949 26.459 59.0755 28.8832 58.7491 31.3471C58.4783 33.3905 58.4957 35.4806 58.4937 37.55C58.4923 39.014 58.6717 40.4782 58.7701 41.939C56.6598 41.9329 54.243 42.7088 52.3713 40.6141C52.2199 40.4447 51.8368 40.4868 51.4464 40.4397C51.3315 40.4488 51.3323 40.4364 51.3096 40.3225C50.1439 40.1012 49.0002 39.9998 47.8579 39.8853C46.1785 39.717 44.477 39.6956 43.2431 38.167C42.9676 37.8255 42.1929 37.8959 41.5516 37.7942C41.3257 37.7988 41.1962 37.7858 41.0668 37.7727C40.8142 37.6125 40.5475 37.294 40.3114 37.3157C36.9587 37.6237 34.2119 36.0913 31.4609 34.4799C30.8063 34.0965 29.9718 33.8562 29.2175 33.8495C26.8124 33.8281 24.5622 33.3747 22.4027 32.2382C21.7389 31.8888 20.7322 31.8829 19.9822 32.0895C18.3023 32.5521 16.8732 32.3631 15.4292 31.3348C14.3567 30.5711 13.1071 30.1258 11.7012 30.4734C11.0689 30.6297 10.3877 30.653 9.73214 30.6311C7.61524 30.5604 7.45214 30.307 8.11594 28.2752C8.84864 26.0323 9.43784 23.7236 10.3844 21.5764C10.9828 20.2189 12.0048 18.9916 13.0411 17.905C15.1462 15.6977 17.3899 13.6254 19.6236 11.4141C20.9636 10.5859 22.2794 9.87803 23.5421 9.08383C24.4891 8.48823 25.3043 7.65593 26.2888 7.14803C29.1943 5.64893 32.0505 3.93503 35.1249 2.92303C37.8308 2.03233 40.797 1.70013 43.6623 1.61703C47.3424 1.51023 51.0692 1.65923 54.7119 2.16703C56.7773 2.45503 58.7811 3.54863 60.6904 4.52403C62.4283 5.41183 64.1073 6.49803 65.6171 7.73953C67.1422 8.99353 68.83 10.3318 69.71 12.0245C70.6888 13.9073 72.557 14.8707 73.4628 16.7466C74.47 18.8325 75.8224 20.7457 76.8994 22.8011C77.2444 23.4594 77.2248 24.3486 76.0835 24.4823C75.6659 23.1588 75.259 21.8693 74.8256 20.4956C74.0559 21.3032 73.3936 21.0162 72.7634 20.17C70.9383 17.7191 68.4294 18.4176 66.0346 18.7763C65.2045 18.9006 64.4217 19.4286 63.5968 19.4896C62.0025 19.6074 61.251 20.4735 60.8944 21.9342C60.738 22.5752 60.4249 23.1771 60.1852 23.9071ZM14.3162 19.3487C14.4835 19.6894 14.6509 20.0302 14.8183 20.3709C15.1635 20.183 15.5802 20.0654 15.8409 19.7944C16.7549 18.8441 17.6445 17.8656 18.4789 16.8439C18.7493 16.5128 18.8214 16.0162 18.9843 15.5953C18.5121 15.6451 17.8739 15.5149 17.597 15.7762C16.4711 16.8381 15.456 18.0202 14.3162 19.3487Z"
    fill="#D3281C" />
  <path
    d="M76.4522 32.4166C76.2448 32.2951 76.0374 32.1737 75.7417 32.0362C75.6533 32.02 75.6455 32.0259 75.6243 31.9335C75.3243 31.6115 75.0455 31.3821 74.7667 31.1526C74.6207 31.077 74.4746 31.0013 74.1848 30.8734C73.8927 30.8091 73.7442 30.7972 73.5957 30.7852C73.3336 29.7294 73.0714 28.6736 72.7277 27.2892C73.4286 26.0016 75.1318 25.6361 76.6222 24.9139C77.2315 24.6186 77.9313 24.1848 78.2252 23.62C78.9014 22.3208 79.7582 22.8017 80.4301 23.3456C81.101 23.8887 81.5153 24.7468 82.0853 25.4301C82.448 25.8649 82.8894 26.2326 83.3987 26.6345C83.4995 27.3151 83.5854 28.0068 83.4737 28.6642C83.3065 29.6486 83.0003 30.6088 82.695 31.667C81.2093 31.9341 79.7818 32.1136 78.2463 32.3244C77.9183 32.3599 77.6983 32.3642 77.2721 32.3859C76.8612 32.4077 76.6567 32.4121 76.4522 32.4166Z"
    fill="#F1E6DE" />
  <path
    d="M74.7593 31.2671C75.0455 31.3821 75.3243 31.6116 75.6219 31.9306C75.3445 31.8073 75.0482 31.5945 74.7593 31.2671Z"
    fill="#CC6D67" />
  <path
    d="M73.6528 30.8358C73.7442 30.7971 73.8926 30.8091 74.1007 30.8724C74.0102 30.9114 73.8601 30.899 73.6528 30.8358Z"
    fill="#CC6D67" />
  <path
    d="M40.9386 37.8151C41.1963 37.786 41.3258 37.799 41.6077 37.8739C43.3406 39.1743 44.9362 40.3773 47.0713 40.3931C48.4917 40.4036 49.912 40.4219 51.3324 40.4367C51.3324 40.4367 51.3316 40.449 51.3378 40.4471C53.6755 43.1975 56.9192 42.7881 60.2031 42.8299C60.0937 43.7522 59.8197 44.5252 59.9533 45.2179C60.399 47.5298 60.0397 49.6197 58.7853 51.6082C58.5848 51.926 58.8249 52.5279 58.9484 53.0713C58.5177 54.1751 58.0934 55.2689 57.4642 56.2248C55.8199 58.7228 55.7731 58.6946 54.2299 56.1038C54.0395 55.7841 53.7506 55.5243 53.4172 55.2002C53.0446 54.5639 52.762 53.9641 52.4463 53.2939C51.8788 53.3384 51.2805 53.3853 50.541 53.3989C50.3391 53.3232 50.291 53.3348 50.2556 53.4003C50.1155 53.3441 49.9754 53.2879 49.7231 53.2162C48.6862 52.6812 47.8426 51.9803 46.6295 52.3082C46.2909 52.3997 45.7904 52.1372 45.4473 51.9092C43.8984 50.8799 42.3107 50.8055 40.5731 51.6617C40.0343 51.7017 39.5771 51.6663 38.9957 51.5655C38.7409 51.4448 38.6105 51.3895 38.4801 51.3342C38.3887 51.265 38.2973 51.1958 38.0741 51.0234C37.8354 50.8585 37.7286 50.7969 37.6218 50.7353C37.6218 50.7353 37.5104 50.6869 37.5151 50.6562C37.4611 50.5727 37.4024 50.5199 37.3437 50.467C36.8713 50.2791 36.3989 50.0912 35.7651 49.868C35.4714 49.8607 35.3392 49.8887 35.2069 49.9168C33.2774 50.2983 31.9867 49.2206 30.6984 47.904C30.6112 47.8699 30.5855 47.8761 30.5504 47.8118C30.4203 47.7089 30.3253 47.6703 30.2303 47.6318C30.2303 47.6318 30.2212 47.6585 30.1739 47.5656C29.6808 47.3497 29.2351 47.2266 28.7893 47.1035C27.7333 47.2438 26.6781 47.4869 25.621 47.4955C24.5441 47.5043 23.4653 47.2824 22.3047 47.1727C21.2012 46.8139 20.1804 46.4438 19.0952 46.0108C18.3781 45.6434 17.7254 45.3389 16.9685 45.0262C16.8644 45.0181 16.8594 45.027 16.8334 44.9508C16.7122 44.8398 16.6171 44.805 16.522 44.7702C16.522 44.7702 16.4348 44.7155 16.3201 44.6477C15.9883 44.6185 15.7712 44.657 15.5542 44.6954C15.3587 44.7331 15.1633 44.7708 14.7803 44.8318C14.3863 44.8801 14.1799 44.905 13.9735 44.9299C12.4365 45.0387 11.3959 43.9494 10.0625 43.3428C9.27401 43.4406 8.58881 43.513 7.79071 43.6056C6.98111 43.558 6.28451 43.4902 5.48201 43.4175C4.60321 43.2985 3.83021 43.1845 2.94981 43.0865C0.956084 42.9075 1.92731 41.8093 2.18091 40.8348C2.38061 40.3028 2.62081 39.8909 2.75531 39.4464C3.01161 38.5996 3.70651 37.8129 3.10591 36.8182C3.01351 36.6651 3.24931 36.3094 3.43431 35.9014C3.60731 35.6874 3.64291 35.6037 3.64211 35.5042C3.64211 35.5042 3.68631 35.5331 3.74191 35.4945C3.83141 35.354 3.86521 35.2522 3.89911 35.1504C3.89911 35.1504 3.91951 35.0579 4.04321 34.9978C4.23231 34.4661 4.29751 33.9943 4.36281 33.5226C4.35511 33.3103 4.34731 33.0981 4.37811 32.7386C4.36021 32.5197 4.30371 32.448 4.24711 32.3763C4.24711 32.3763 4.25351 32.3736 4.25751 32.2673C4.26001 31.9428 4.25841 31.7244 4.25691 31.5061C4.29381 31.4162 4.33071 31.3264 4.37751 31.1649C4.38731 31.0932 4.36451 31.0368 4.43391 31.0497C4.80291 30.9287 5.10241 30.7949 5.40191 30.6611C5.87761 30.5788 6.35321 30.4965 6.92891 30.4429C8.42361 31.744 10.076 31.7489 11.7056 31.2367C12.8169 30.8875 13.7484 30.9754 14.6501 31.6353C16.4643 32.963 18.3877 33.3035 20.5571 32.5956C21.08 32.425 21.8687 32.6819 22.3914 32.9908C24.0886 33.9938 25.8971 34.4533 27.8309 34.3099C29.3661 34.196 30.7182 34.5543 31.9902 35.4171C34.6544 37.2241 37.515 38.3579 40.9386 37.8151Z"
    fill="#EEEAE2" />
  <path
    d="M4.31924 33.6218C4.29754 33.9941 4.23224 34.4658 4.06934 34.9583C4.07304 34.5598 4.17434 34.1405 4.31924 33.6218Z"
    fill="#F5BDB5" />
  <path d="M4.1728 31.5483C4.2593 31.7243 4.2608 31.9427 4.2561 32.27C4.1959 32.1162 4.1419 31.8534 4.1728 31.5483Z"
    fill="#F5BDB5" />
  <path
    d="M4.25708 32.4557C4.30358 32.4479 4.36008 32.5196 4.38248 32.6322C4.32118 32.6271 4.29408 32.5812 4.25708 32.4557Z"
    fill="#F5BDB5" />
  <path
    d="M3.83642 35.1938C3.86522 35.252 3.83142 35.3538 3.71862 35.4824C3.68432 35.4185 3.72902 35.328 3.83642 35.1938Z"
    fill="#F5BDB5" />
  <path d="M3.571 35.5325C3.6428 35.6035 3.6072 35.6873 3.4818 35.7995C3.4522 35.7496 3.476 35.6553 3.571 35.5325Z"
    fill="#F5BDB5" />
  <path
    d="M38.511 51.4049C38.6104 51.3895 38.7408 51.4447 38.9108 51.5662C38.8142 51.5802 38.6781 51.5279 38.511 51.4049Z"
    fill="#C7615B" />
  <path
    d="M37.6624 50.8242C37.7287 50.7968 37.8355 50.8584 37.9906 51.0014C37.9269 51.0262 37.8149 50.9697 37.6624 50.8242Z"
    fill="#C7615B" />
  <path
    d="M37.3641 50.527C37.4024 50.5198 37.461 50.5726 37.4835 50.6613C37.4473 50.6971 37.3845 50.5871 37.3641 50.527Z"
    fill="#C7615B" />
  <path
    d="M35.3304 49.9304C35.339 49.8888 35.4713 49.8607 35.6532 49.8869C35.6199 49.942 35.537 49.943 35.3304 49.9304Z"
    fill="#C7615B" />
  <path
    d="M14.033 44.9772C14.1799 44.9048 14.3863 44.8799 14.6941 44.8837C14.5612 44.9498 14.3269 44.9872 14.033 44.9772Z"
    fill="#CC6A63" />
  <path
    d="M15.6827 44.7222C15.7712 44.6568 15.9883 44.6183 16.2689 44.6436C16.1587 44.7213 15.985 44.7352 15.6827 44.7222Z"
    fill="#CC6A63" />
  <path
    d="M16.5551 44.8377C16.6171 44.8049 16.7123 44.8397 16.8292 44.9506C16.7634 44.9863 16.6758 44.9457 16.5551 44.8377Z"
    fill="#CC6A63" />
  <path
    d="M28.8119 47.2092C29.2351 47.2263 29.6808 47.3494 30.1841 47.5557C29.7725 47.531 29.3035 47.4231 28.8119 47.2092Z"
    fill="#C3584F" />
  <path
    d="M28.438 47.9297C28.2879 48.039 28.0677 48.1197 27.7557 48.1823C27.8985 48.0765 28.1332 47.9889 28.438 47.9297Z"
    fill="#C3584F" />
  <path
    d="M30.262 47.7033C30.3253 47.6702 30.4203 47.7087 30.5423 47.8222C30.4776 47.8564 30.3857 47.8157 30.262 47.7033Z"
    fill="#C3584F" />
  <path
    d="M50.2854 53.4159C50.291 53.3346 50.3391 53.3231 50.4242 53.401C50.4486 53.4366 50.3152 53.4318 50.2854 53.4159Z"
    fill="#C45B54" />
  <path
    d="M76.4508 32.52C76.6566 32.4122 76.8611 32.4078 77.1669 32.4201C77.1416 32.6909 77.0152 32.9449 76.8888 33.1989C76.7424 33.007 76.5959 32.8152 76.4508 32.52Z"
    fill="#BB3F38" />
  <path
    d="M5.40013 30.5657C5.10233 30.7947 4.80283 30.9285 4.40723 31.0353C4.56343 30.6664 4.81573 30.3246 5.06803 29.9829C5.17813 30.1454 5.28823 30.3079 5.40013 30.5657Z"
    fill="#C3524B" />
  <path
    d="M14.3582 19.2535C15.4561 18.0204 16.4712 16.8383 17.5971 15.7764C17.8741 15.5151 18.5123 15.6453 18.9844 15.5955C18.8216 16.0164 18.7495 16.513 18.4791 16.8441C17.6447 17.8658 16.7551 18.8443 15.8411 19.7946C15.5804 20.0656 15.1636 20.1832 14.8185 20.3711C14.6511 20.0304 14.4837 19.6896 14.3582 19.2535Z"
    fill="#F9C7BD" />
  <path
    d="M51.3097 42.3226C49.912 42.4218 48.4916 42.4035 47.0712 42.393C44.9361 42.3772 43.3405 41.1742 41.7041 39.8562C42.193 39.896 42.9676 39.8257 43.2432 40.1671C44.4771 41.6958 46.1786 41.7171 47.8579 41.8854C49.0003 41.9999 50.144 42.1014 51.3097 42.3226Z"
    fill="#C65A53" />
</svg>