<svg width="95" height="68" viewBox="0 0 95 68" fill="none" xmlns="http://www.w3.org/2000/svg">
  <path
    d="M5.41982 12.9398C5.41982 12.9398 5.42383 12.8587 5.55678 12.8255C6.5624 12.1522 7.6671 11.6795 8.2659 10.842C10.418 7.83204 13.8337 6.96064 16.4212 5.62134C17.6605 6.45344 18.6869 7.14264 19.7641 7.86384C19.8824 7.94224 19.9347 8.00204 19.9671 8.13474C20.0423 8.19414 20.1222 8.19414 20.2959 8.20194C20.5137 8.22774 20.6378 8.24584 20.8366 8.32904C22.5206 8.78634 24.1298 9.17854 25.712 9.59954C25.685 9.62834 25.7353 9.56774 25.7255 9.67864C26.1493 10.0922 26.5456 10.5005 27.0258 10.6719C27.6792 10.905 28.3967 10.9572 29.1204 11.1335C29.1541 11.1802 29.182 11.2919 29.1765 11.3958C29.3732 11.6357 29.5754 11.7718 29.8497 11.972C30.509 12.0875 31.1409 12.3003 31.6726 12.1516C32.4188 11.9429 32.7806 11.9933 33.3128 12.6737C33.7367 13.2156 34.6648 13.3775 35.389 13.6559C35.6748 13.7658 36.181 13.6148 36.3027 13.7862C37.0886 14.892 38.2487 14.8671 39.4109 14.9302C39.433 14.9165 39.404 14.9598 39.4317 15.0536C40.5603 15.82 41.6174 16.587 42.7779 17.1316C43.5319 17.4855 44.4367 17.5154 45.2825 17.7175C45.2911 17.7446 45.3477 17.7462 45.3133 17.8483C44.5288 18.985 44.4169 19.9621 45.2722 20.5622C45.3401 21.4953 45.1689 22.2904 45.4834 22.7508C45.9953 23.5001 45.769 23.88 45.3203 24.4821C45.0277 24.8747 44.7555 25.7355 44.9564 25.9704C46.0192 27.2127 45.1251 27.9933 44.4445 28.8257C43.1067 30.4616 43.0935 30.4508 44.2277 31.642C44.0359 32.7462 43.4989 33.8335 43.8126 34.5396C44.2026 35.4173 44.1718 36.0286 43.7292 36.8167C43.2249 36.9259 42.8026 36.9956 42.2863 37.0492C42.002 37.038 41.8116 37.0428 41.5272 36.9785C38.6792 36.6009 35.9253 36.2924 33.0821 35.9538C32.8057 35.9132 32.6187 35.9027 32.3477 35.8212C31.7052 35.6582 31.1466 35.5663 30.4781 35.4504C30.1441 35.4267 29.9201 35.4271 29.6232 35.3474C28.7406 35.1186 27.9306 34.9698 27.0382 34.7774C26.7184 34.6803 26.4811 34.6268 26.1607 34.5369C25.8445 34.4821 25.6114 34.4638 25.2882 34.3966C25.0638 34.3313 24.9293 34.3151 24.7037 34.2374C22.971 33.71 21.3071 33.3103 19.6928 32.7633C17.0565 31.87 14.4524 30.8807 11.7778 29.8462C11.036 29.4866 10.3512 29.2128 9.8006 28.9926C10.0113 27.3262 10.2409 25.8353 10.3471 24.3356C10.3638 24.099 9.8227 23.8226 9.5703 23.4714C9.6768 23.1349 9.7523 22.8915 9.8347 22.5378C9.8329 22.2076 9.8244 21.9878 9.8042 21.6974C9.7925 21.6268 9.8273 21.488 9.9226 21.4407C10.5522 20.6092 10.7222 19.8542 9.8183 19.1298C9.7941 19.0762 9.7841 18.959 9.7761 18.8782C9.6847 18.7352 9.6013 18.6729 9.5287 18.6056C9.5394 18.6006 9.528 18.6215 9.5067 18.5475C9.3998 18.4235 9.3142 18.3736 9.2412 18.3189C9.2539 18.3141 9.2349 18.3335 9.2362 18.2304C8.1009 16.4553 6.2329 15.9975 4.52009 15.2644C4.51077 15.2623 4.49253 15.2565 4.53379 15.1439C4.85664 14.3341 5.13823 13.637 5.41982 12.9398Z"
    fill="#D1281C" />
  <path
    d="M17.0244 3.88487C18.045 0.492361 21.7094 -0.461809 24.5549 1.67968C25.4887 2.3824 26.6681 2.79822 27.4916 3.59814C29.6256 5.6708 32.6529 5.7234 35.0588 7.1634C35.618 7.4981 36.8577 7.1155 37.092 7.4945C38.19 9.2706 40.3948 8.2139 41.634 9.4735C41.7649 9.6066 42.1654 9.477 42.4403 9.4611C42.7223 9.4448 43.2002 9.3108 43.2557 9.4129C43.9667 10.7218 45.4945 10.2193 46.4626 10.9213C48.1531 12.1469 49.871 11.3256 51.4232 10.7404C53.7685 9.8563 56.0199 8.6961 58.2492 7.5332C60.4403 6.3903 62.5358 5.0638 64.7098 3.8857C65.7283 3.33375 66.8364 2.94993 67.8965 2.47346C68.4486 2.22536 68.9997 1.96811 69.5252 1.66889C71.1396 0.749701 72.4999 1.11725 74.1524 2.91947C74.7625 3.58487 75.4092 4.2165 76.0773 5.0612C74.6803 6.459 73.4929 8.0448 71.4107 8.2313C71.1192 8.2575 70.843 8.489 70.5658 8.6369C69.8276 9.0309 69.0932 9.432 68.3565 9.8288C66.6223 10.763 64.8874 11.6961 63.1543 12.6323C63.116 12.653 63.1035 12.7229 63.0651 12.7425C61.2553 13.6668 59.4441 14.5885 57.6313 15.5071C57.5941 15.526 57.5369 15.5021 57.4893 15.5039C55.0593 15.5975 53.5964 16.6313 52.7686 18.8884C52.6515 19.2075 52.6314 19.5932 52.6751 19.934C52.7421 20.456 52.9036 20.9658 52.9549 21.5416C52.8625 21.7805 52.8403 21.9585 52.7994 22.2447C52.7815 22.6418 52.7822 22.9307 52.7074 23.2595C52.4837 23.4678 52.3355 23.6362 52.1537 23.745C52.0195 23.6899 51.9189 23.6944 51.8184 23.6989C51.9405 23.7351 52.0627 23.7713 52.1907 23.9003C52.3996 24.2195 52.6026 24.4459 52.798 24.7775C52.6677 25.4169 52.4624 25.948 52.4412 26.4863C52.4081 27.3278 52.4996 28.1742 52.5462 29.0665C52.5541 29.1145 52.5393 29.2107 52.519 29.3235C52.7777 29.6815 53.0567 29.9267 53.3375 30.1718C53.3393 30.1717 53.3398 30.1752 53.3563 30.2399C53.4162 30.3874 53.4816 30.4453 53.5977 30.5679C53.6178 30.7814 53.6087 30.9054 53.5305 31.0807C53.0772 31.3218 52.4276 31.4426 52.3576 31.7141C52.1197 32.637 52.0865 33.613 51.9685 34.5666C51.9619 34.5645 51.9662 34.5527 51.8667 34.5943C51.7208 34.989 51.6744 35.3422 51.6449 35.7827C51.8265 36.1097 51.991 36.3492 52.1507 36.6458C52.1458 36.7028 52.1592 36.8166 52.0704 36.8188C51.8633 36.8262 51.745 36.8314 51.4909 36.8188C49.1431 36.7907 46.9312 36.7804 44.7102 36.6452C43.8202 34.4692 46.0532 32.1515 44.0235 30.1927C45.2781 28.7944 46.467 27.4309 45.5953 25.4222C45.5238 25.2574 45.7074 24.9839 45.7651 24.759C45.9782 23.9281 46.435 23.0689 46.3467 22.2709C46.1779 20.7444 45.6983 19.2525 45.3476 17.7462C45.3476 17.7462 45.291 17.7447 45.2732 17.6127C44.915 17.1839 44.6203 16.778 44.2255 16.6113C43.1662 16.164 42.0667 15.811 40.9776 15.4368C40.4595 15.2588 39.9288 15.1177 39.4039 14.9599C39.4039 14.9599 39.4329 14.9165 39.4349 14.8168C38.4582 14.0951 37.481 13.4708 36.4979 12.8558C36.4251 12.8103 36.3087 12.8156 36.2156 12.8254C35.0008 12.953 33.9453 12.7149 33.2001 11.6216C33.0939 11.4658 32.7263 11.3314 32.5642 11.3972C31.1723 11.9625 30.331 10.968 29.3908 10.2971C28.3424 9.5489 26.8123 9.6155 26.0861 8.3037C26.0158 8.1768 25.6398 8.2043 25.4038 8.1888C24.1252 8.1049 22.846 8.0301 21.5173 7.9577C21.4675 7.9631 21.3688 7.9464 21.3111 7.8623C20.6931 7.5355 20.1328 7.293 19.495 6.9881C18.3233 6.5301 17.4795 5.9343 17.4169 4.615C17.405 4.3659 17.1612 4.128 17.0244 3.88487ZM52.3003 30.6025C52.3003 30.6025 52.338 30.5778 52.3003 30.6025V30.6025Z"
    fill="#EDECE3" />
  <path
    d="M10.8588 44.078C10.8155 43.9487 10.7722 43.8193 10.8004 43.5162C10.7699 42.8437 10.6493 42.348 10.569 41.8458C10.3172 40.2714 10.0805 38.6945 9.94421 37.1038C10.1901 37.116 10.3297 37.1432 10.5249 37.2307C10.7449 37.3124 10.9093 37.3337 11.1664 37.3414C11.3783 37.3621 11.4975 37.3964 11.6568 37.4909C11.8359 37.5881 11.9749 37.6251 12.2288 37.6663C12.6485 37.6985 12.9531 37.7265 13.3347 37.8136C13.6657 37.8934 13.9199 37.9143 14.24 38.017C15.5902 38.4699 16.8744 38.841 18.2277 39.2894C19.6767 39.7084 21.0586 40.0422 22.4362 40.393C27.5095 41.6849 32.5586 43.0851 37.6651 44.2264C39.6627 44.6729 41.788 44.543 43.9206 44.6696C43.9861 44.6636 44.1169 44.6484 44.1129 44.7616C44.1147 45.1766 44.1204 45.4785 44.1227 45.912C44.1538 46.5717 44.1882 47.0998 44.1779 47.6174C44.1331 47.6069 44.2245 47.616 44.1254 47.6352C44.0622 48.4859 44.0982 49.3176 44.1195 50.215C44.0768 50.3713 44.0223 50.4406 43.8415 50.5015C43.5289 51.0283 43.3161 51.5425 43.0169 52.2653C42.6869 51.9181 42.3076 51.68 42.168 51.3421C41.7364 50.2975 40.8709 50.6547 40.615 51.1314C39.841 52.573 38.9088 52.0352 37.8559 51.6779C37.3513 51.5067 36.7536 51.6338 36.2059 51.5642C35.4711 51.4707 34.7478 51.2778 34.012 51.2029C33.4449 51.1452 32.8661 51.2037 32.203 51.2333C31.9912 51.2497 31.8689 51.2432 31.7236 51.141C30.8468 50.7182 29.993 50.3913 29.0438 50.0616C28.8267 50.0235 28.7049 49.9882 28.5312 49.8623C26.0054 49.2074 23.5246 48.6713 21.0598 48.0692C19.3241 47.6453 17.6101 47.1316 15.8092 46.5837C14.5382 46.3507 13.3444 46.192 12.0573 46.0265C11.8438 45.9866 11.7236 45.9534 11.6073 45.8805C11.6113 45.8408 11.5863 45.7649 11.5325 45.688C11.3118 45.2883 11.1448 44.9655 10.9913 44.5662C10.9562 44.3525 10.9075 44.2152 10.8588 44.078Z"
    fill="#D0291E" />
  <path
    d="M83.3347 40.3048C83.2941 40.4018 83.2534 40.4989 83.136 40.7455C82.3542 42.6231 81.6492 44.3513 80.8776 46.1324C80.779 46.3474 80.7471 46.5094 80.7151 46.6714C80.7151 46.6714 80.7115 46.6671 80.6396 46.7313C80.1297 47.2953 79.6917 47.7953 79.166 48.3161C79.0187 48.3454 78.9592 48.3538 78.7892 48.3622C77.6867 48.5796 76.684 48.759 75.7091 49.0367C75.4029 49.124 75.1713 49.4756 74.807 49.7462C74.4978 49.8076 74.2872 49.8289 74.0288 49.8362C73.9098 49.8229 73.8523 49.8515 73.715 49.9552C73.4851 50.0302 73.3488 50.0581 73.1633 50.0252C72.8561 50.0924 72.5981 50.2202 72.2484 50.3664C72.0324 50.3847 71.9081 50.3847 71.7173 50.3156C71.3083 50.3182 70.9658 50.3899 70.5331 50.4895C70.318 50.5287 70.193 50.5399 70.0319 50.4634C69.7295 50.38 69.4633 50.3844 69.0948 50.3968C68.8554 50.4088 68.7185 50.4127 68.4621 50.4068C67.3745 50.6127 66.4064 50.8283 65.3658 51.0706C65.1917 51.1129 65.0902 51.1286 64.8907 51.1071C64.633 51.1703 64.4733 51.2707 64.2738 51.402C64.234 51.4329 64.1344 51.4465 64.0301 51.4025C63.4674 51.5099 63.0089 51.6613 62.4577 51.8262C62.2407 51.8295 62.1164 51.8193 61.9497 51.7503C61.7381 51.7191 61.569 51.7467 61.3219 51.7753C61.0983 51.7252 60.9526 51.6742 60.7969 51.5693C60.7048 51.5334 60.6228 51.5516 60.4317 51.5675C60.1043 51.5611 59.8861 51.557 59.5998 51.4852C58.7971 51.6097 58.0624 51.8018 57.2082 52.0305C56.4177 52.0937 55.7467 52.1204 55.0239 52.0583C54.7667 51.6095 54.5614 51.2496 54.3536 50.7953C54.3079 50.3933 54.2647 50.0856 54.2205 49.7281C54.1979 49.61 54.1541 49.5628 54.0044 49.4939C53.8134 49.2996 53.706 49.1477 53.6796 48.9181C53.8962 47.6735 54.0318 46.5068 54.2936 45.2892C56.3297 45.1471 58.246 45.1253 60.1479 44.9483C62.858 44.6961 65.6305 44.6176 68.2451 43.9481C72.644 42.822 76.9387 41.2866 81.2796 39.9309C81.9803 39.7121 82.6932 39.5325 83.4175 39.4309C83.4013 39.7863 83.368 40.0456 83.3347 40.3048Z"
    fill="#CD2C21" />
  <path
    d="M8.41882 32.7759C8.43782 32.1811 8.45672 31.5864 8.62862 30.8804C9.83672 32.4616 11.575 32.1761 13.1732 32.3087C13.4022 32.3277 13.6243 32.4309 13.9227 32.5744C15.7745 33.1694 17.5532 33.6853 19.4477 34.2102C19.8725 34.2216 20.1817 34.2239 20.4912 34.2249C20.4916 34.2235 20.4893 34.225 20.5468 34.3025C20.8524 34.4311 21.1004 34.4821 21.4003 34.6019C21.7068 34.8037 21.9614 34.9368 22.3269 35.0805C22.9418 35.1867 23.4457 35.2824 24.0215 35.4598C26.6326 36.0667 29.1643 36.6328 31.7142 37.0983C32.8529 37.3062 34.0281 37.312 35.2423 37.5089C35.498 37.7285 35.6883 37.9305 35.8997 37.9559C37.7394 38.1766 39.5875 38.3311 41.4224 38.5844C41.993 38.6632 42.5306 38.9838 43.0697 39.3084C43.0417 40.3524 43.0274 41.2817 42.9977 42.3381C42.5117 43.216 40.1182 43.3627 39.1697 42.9898C37.7633 42.437 36.2629 42.106 34.7797 41.787C34.4871 41.7241 34.0917 42.143 33.6702 42.3089C33.4583 42.2005 33.3198 42.1228 33.0703 42.0295C31.7547 41.8469 30.7351 40.9001 29.3588 41.0872C28.0821 40.6778 26.8738 40.3493 25.5585 40.0075C23.5011 39.5188 21.5508 39.0432 19.5618 38.4938C19.3673 38.3769 19.2113 38.3338 19.0512 38.2855C19.047 38.2803 19.0343 38.2769 18.979 38.1992C18.6759 38.0758 18.4282 38.0301 18.0907 37.941C17.6824 37.8297 17.364 37.7617 16.9855 37.6187C16.6777 37.4925 16.43 37.4412 16.1693 37.3074C15.9685 37.1875 15.7807 37.1502 15.4999 37.1097C15.2827 37.1024 15.1585 37.0983 15.0158 37.0049C14.6229 36.8773 14.2486 36.8389 13.8224 36.7138C12.2771 35.402 10.5284 35.2245 8.69852 35.3805C8.63222 35.0607 8.56592 34.7408 8.60322 34.303C8.80732 33.9111 8.90792 33.6372 9.00922 33.3611C9.37852 33.5104 9.68162 33.6329 10.0788 33.7934C10.0648 32.2662 8.99992 32.9789 8.41882 32.7759Z"
    fill="#040102" />
  <path
    d="M52.783 23.2196C52.7823 22.9307 52.7816 22.6418 52.8703 22.1848C52.9815 21.8381 53.0033 21.6595 53.025 21.4808C52.9037 20.9658 52.7422 20.4561 52.6752 19.934C52.6315 19.5932 52.6516 19.2075 52.7687 18.8884C53.5965 16.6313 55.0594 15.5975 57.4894 15.5039C57.537 15.5021 57.5942 15.526 57.6314 15.5072C59.4441 14.5885 61.2553 13.6669 63.0652 12.7426C63.1036 12.723 63.116 12.6531 63.1544 12.6324C64.8875 11.6961 66.6224 10.7631 68.3566 9.82893C69.0933 9.43203 69.8277 9.03103 70.5659 8.63703C70.8431 8.48903 71.1192 8.25753 71.4107 8.23143C73.493 8.04493 74.6804 6.45903 76.1169 5.15503C80.1966 5.83163 83.1996 8.38753 85.9146 11.2747C87.4765 12.9358 88.8774 14.8058 90.0434 16.7662C90.8008 18.0396 91.6569 19.04 92.8596 19.844C94.352 20.8417 94.305 22.0184 93.5212 23.6431C92.8129 25.1114 91.3595 25.3997 90.1999 26.3793C89.8062 26.435 89.5981 26.4887 89.39 26.5424C89.1914 26.6845 88.9928 26.8267 88.5895 26.994C87.7477 27.2087 87.1106 27.3983 86.4735 27.5878C86.4279 27.6114 86.3823 27.6351 86.2394 27.5823C86.0757 27.5648 86.0093 27.6237 85.9428 27.6825C85.7797 27.715 85.6166 27.7474 85.3039 27.6991C84.928 27.6044 84.7017 27.5904 84.4459 27.5101C84.4256 27.2282 84.4347 27.0128 84.5445 26.748C84.9403 26.685 85.2355 26.6713 85.6402 26.6718C85.8228 26.6779 85.8959 26.6699 86.0326 26.6403C86.0962 26.6187 86.2303 26.6109 86.2303 26.6109C86.2303 26.6109 86.3615 26.64 86.466 26.6586C86.8315 26.5259 87.0923 26.3746 87.4518 26.1852C88.7891 25.4656 90.1478 24.9319 91.2237 24.0501C91.9239 23.4763 92.4509 22.4368 92.6056 21.5287C92.7185 20.866 90.6532 20.0215 89.824 20.3056C88.4328 20.7823 87.06 21.3132 85.5819 21.7923C85.418 21.7497 85.3515 21.7362 85.3171 21.6251C87.1416 20.7703 88.9341 20.0131 91.0259 19.1294C89.6504 17.2488 88.3103 15.5457 87.111 13.748C85.079 10.702 82.1941 8.62123 79.2278 6.66283C78.4739 6.16523 77.172 5.80253 76.4361 6.11773C74.5756 6.91473 73.1753 8.49763 71.0919 9.13733C69.3035 9.68643 67.767 11.0494 66.0997 12.0189C65.6944 12.2546 65.1957 12.3227 64.7708 12.5313C64.2662 12.7792 63.8107 13.1276 63.3066 13.3765C61.3371 14.3492 59.3575 15.3011 57.3784 16.2538C57.3002 16.2914 57.1885 16.2628 57.0927 16.2589C54.9219 16.1709 53.6941 17.5482 53.8889 19.781C53.9379 20.3427 53.7948 20.9205 53.7486 21.4916C53.6933 22.1751 53.6473 22.8593 53.5094 23.5317C53.2086 23.4201 52.9958 23.3198 52.783 23.2196Z"
    fill="#C24B43" />
  <path
    d="M69.8216 60.2062C69.6238 61.3283 69.3496 62.4433 69.246 63.5741C69.0949 65.2251 68.1955 66.3505 66.7889 66.9427C65.2236 67.6018 63.7115 67.0467 62.3379 66.1728C62.0215 65.9716 61.6991 65.7066 61.5085 65.3922C60.7662 64.168 60.0759 62.9122 59.4983 61.5603C60.4292 61.6398 61.2444 62.0324 62.0235 61.9701C63.4863 61.853 64.9192 61.3917 66.3817 61.2283C67.5254 61.1005 68.3444 60.6379 68.9764 59.6302C69.1819 59.489 69.2981 59.3599 69.4144 59.2307C69.5502 59.5559 69.6859 59.881 69.8216 60.2062ZM67.4063 64.7697C68.7472 64.2865 68.914 63.5354 67.9174 62.2384C66.8909 62.8192 66.7975 63.6479 67.4063 64.7697Z"
    fill="#0C0C0B" />
  <path
    d="M23.7388 64.5917C23.5763 63.1578 23.4139 61.724 23.3181 60.1228C23.317 59.474 23.249 58.9927 23.181 58.5114C23.1757 58.3359 23.1703 58.1604 23.3486 57.9886C23.6683 57.9689 23.8042 57.9455 24.0155 57.9618C24.1531 58.0963 24.2153 58.1911 24.2626 58.3981C24.4864 58.8976 24.6361 59.481 24.9795 59.6387C26.5583 60.3635 28.1708 61.0296 29.8136 61.5916C30.5924 61.858 31.4663 61.844 32.3059 62.0668C32.3086 62.3963 32.3026 62.6161 32.2966 62.8359C31.8731 63.3398 31.4016 63.811 31.0344 64.3534C29.4201 66.7379 26.7701 67.52 24.6462 66.0254C24.9135 65.5645 25.1779 65.2843 25.7229 64.7062C24.8143 64.6538 24.2766 64.6227 23.7388 64.5917ZM25.2383 63.7457C25.789 61.8992 25.556 61.2193 23.8348 60.6896C24.0857 61.8522 24.2948 62.8212 24.5126 63.9495C24.7041 63.9317 24.8957 63.9139 25.2383 63.7457Z"
    fill="#090909" />
  <path
    d="M83.4005 39.3348C82.6932 39.5325 81.9805 39.7122 81.2797 39.931C76.9388 41.2867 72.6441 42.822 68.2453 43.9482C65.6306 44.6176 62.8581 44.6962 60.148 44.9484C58.2461 45.1254 56.3299 45.1472 54.1893 45.2704C53.7475 45.3139 53.5362 45.3253 53.2216 45.3028C53.0106 45.0665 52.9031 44.8641 52.8531 44.5948C53.1523 44.2773 53.3938 44.0265 53.709 43.8282C54.1147 44.038 54.4467 44.1954 54.8871 44.3524C55.2119 44.3525 55.4284 44.3529 55.7216 44.4356C57.3786 44.4628 58.9589 44.4078 60.6456 44.3528C61.078 44.3368 61.4041 44.3207 61.7301 44.3046C61.633 44.1838 61.5358 44.0631 61.4387 43.9424C61.672 43.7023 61.8877 43.2762 62.1415 43.2519C64.0094 43.0726 65.8851 42.9761 67.7578 42.8455C67.9466 42.8324 68.1737 42.6742 68.3122 42.738C69.717 43.3855 70.8703 42.8058 71.208 41.3935C72.792 41.0165 74.3005 40.6574 75.941 40.2995C77.6092 40.2473 79.2634 40.6446 80.5186 39.1507C80.7432 39.1512 80.8715 39.1524 81.0599 39.2236C81.5883 39.1318 82.0476 38.931 82.5274 38.8192C83.0167 38.7051 83.5264 38.6786 84.027 38.6138C84.011 38.6647 83.9949 38.7157 83.8555 38.8496C83.6215 39.0666 83.511 39.2007 83.4005 39.3348Z"
    fill="#200403" />
  <path
    d="M5.32598 13.0027C5.13814 13.637 4.85655 14.3341 4.43244 15.1238C3.30879 15.2955 2.43492 15.4073 1.84157 16.4567C1.1319 17.7119 1.78706 19.2527 3.51404 20.3936C3.61906 20.4204 3.70043 20.402 3.87413 20.3861C4.2948 20.7424 4.62315 21.0963 4.99894 21.5357C5.29679 21.677 5.54719 21.7327 5.79698 21.8835C5.79611 22.1053 5.79584 22.2321 5.68971 22.347C5.03988 22.2348 4.49593 22.1345 3.95197 22.0342C3.91017 22.0051 3.86837 21.9761 3.76957 21.7962C3.56173 21.5863 3.41087 21.5271 3.26002 21.4679C3.19556 21.4577 3.1311 21.4476 2.95818 21.3573C2.76788 21.239 2.70007 21.2568 2.64628 21.3306C2.51591 21.3536 2.38555 21.3766 2.16303 21.2638C1.91545 20.9537 1.76001 20.7793 1.60457 20.605C1.575 20.561 1.54544 20.5171 1.4641 20.3274C1.32097 20.1503 1.22964 20.119 1.1383 20.0877C1.1383 20.0877 1.18235 20.0807 1.16474 19.9914C0.964069 19.7558 0.781009 19.6095 0.597949 19.4632C0.563729 19.3705 0.529509 19.2778 0.536679 19.021C0.538169 18.6852 0.498279 18.5135 0.458379 18.3418C0.425179 18.2961 0.391979 18.2504 0.341029 18.0054C0.330239 17.4118 0.337219 17.0175 0.344189 16.6233C0.941629 14.7326 1.92227 14.0082 3.96043 13.7751C4.40541 13.7242 4.80938 13.3116 5.32598 13.0027Z"
    fill="#C44E46" />
  <path
    d="M19.3319 34.2011C17.5531 33.6853 15.7744 33.1694 13.9182 32.4718C13.2978 31.7962 12.8308 31.1314 12.195 30.8469C11.1423 30.3758 9.98086 30.1495 8.86536 29.8201C8.87496 29.7675 8.88456 29.7148 9.06196 29.5991C10.098 29.668 10.9663 29.8 11.8347 29.9319C14.4523 30.8807 17.0564 31.87 19.6927 32.7633C21.3071 33.3103 22.9709 33.71 24.6304 34.3007C24.0729 34.7855 23.1799 33.5227 22.6999 34.801C22.4832 34.8954 22.3496 34.9826 22.216 35.0699C21.9614 34.9368 21.7068 34.8037 21.3461 34.5204C20.9898 34.3218 20.7395 34.2734 20.4892 34.2249C20.4892 34.2249 20.4916 34.2234 20.4484 34.1367C19.9814 33.6272 19.5765 33.3398 19.3319 34.2011Z"
    fill="#3E0808" />
  <path
    d="M68.8872 59.6421C68.3444 60.6378 67.5254 61.1004 66.3818 61.2283C64.9193 61.3917 63.4863 61.853 62.0235 61.9701C61.2445 62.0324 60.4293 61.6398 59.5166 61.4515C59.3933 61.399 59.3838 61.3475 59.3926 61.1266C59.5895 60.8244 59.7682 60.6915 60.0577 60.5433C60.6725 60.4274 61.1767 60.3268 61.7202 60.3352C62.8531 60.2886 63.972 60.2298 65.032 59.9475C65.9172 59.7117 66.7334 59.2143 67.6777 58.8547C68.1458 59.1318 68.5165 59.387 68.8872 59.6421Z"
    fill="#DDDAD5" />
  <path
    d="M32.2972 61.9571C31.4663 61.844 30.5924 61.858 29.8136 61.5916C28.1707 61.0296 26.5583 60.3635 24.9795 59.6387C24.6361 59.481 24.4864 58.8976 24.3674 58.3896C25.9704 58.6749 27.4447 59.1183 28.9404 59.4698C29.6246 59.6306 30.3509 59.6105 31.0582 59.6725C31.315 59.7628 31.5719 59.8531 31.9063 60.0694C32.0883 60.7827 32.1927 61.3699 32.2972 61.9571Z"
    fill="#DFE0DB" />
  <path
    d="M16.949 3.92529C17.1613 4.1278 17.4051 4.3658 17.4169 4.6149C17.4796 5.9342 18.3234 6.5299 19.5024 7.0873C19.6292 7.4432 19.6712 7.6374 19.7133 7.8316C18.6869 7.1425 17.6604 6.4533 16.4212 5.6212C13.8337 6.9605 10.418 7.8319 8.26589 10.8418C7.66709 11.6794 6.5623 12.152 5.58875 12.8006C5.69368 12.445 5.81911 11.9846 6.11849 11.7324C8.16599 10.0072 10.2109 8.2735 12.3447 6.66C13.0424 6.1325 14.0021 5.9545 15.0063 5.5687C15.2358 5.4553 15.3009 5.39 15.366 5.3247C15.5075 5.2583 15.6491 5.1919 15.9168 5.0539C16.0894 4.8957 16.1358 4.8091 16.1823 4.7225C16.4127 4.4703 16.6431 4.2181 16.949 3.92529Z"
    fill="#C44E46" />
  <path
    d="M84.1019 38.5322C83.5262 38.6784 83.0167 38.705 82.5274 38.819C82.0476 38.9308 81.5883 39.1316 81.0609 39.1245C81.0036 38.8242 81.0053 38.6926 81.105 38.5461C81.3273 38.2551 81.4516 37.9791 81.6666 37.7394C82.0794 37.4614 82.4723 37.192 82.7047 36.8212C82.9766 36.3874 83.1085 35.8652 83.3669 35.34C83.3903 35.1335 83.3481 34.9683 83.3035 34.6798C83.3009 34.0628 83.3006 33.5692 83.3773 33.0161C83.5002 32.7054 83.5461 32.4542 83.5927 32.0919C83.5908 31.7583 83.5882 31.5357 83.5897 31.2223C83.6013 31.0107 83.6089 30.8898 83.7062 30.7576C83.9163 30.7527 84.0366 30.7592 84.1569 30.7657C84.391 31.594 84.8487 32.4323 84.8129 33.2487C84.7366 34.9887 84.4043 36.7174 84.1019 38.5322Z"
    fill="#120B0C" />
  <path
    d="M43.2383 59.0651C43.0255 59.0864 42.8127 59.1078 42.3994 59.139C42.0713 59.1755 41.9437 59.202 41.8161 59.2285C41.5068 59.1958 41.1976 59.1632 40.713 59.0488C40.1878 58.8477 39.8379 58.7284 39.488 58.6092C39.488 58.6092 39.3717 58.5447 39.2745 58.4722C39.107 58.3214 39.0227 58.3004 38.9243 58.3367C38.8109 58.2955 38.6975 58.2543 38.4131 58.1445C37.8956 58.0564 37.5493 58.037 37.2029 58.0175C37.1531 58.0059 37.1032 57.9943 36.9209 57.8964C36.5455 57.7485 36.3025 57.687 36.0797 57.522C36.4879 57.2963 36.8757 57.1742 37.3671 57.0464C38.4279 57.2108 39.388 57.3664 40.3412 57.557C40.7988 57.6485 41.2365 57.8767 41.6951 57.9217C43.558 58.1042 45.4255 58.2397 47.2213 58.436C47.1009 58.7855 47.0506 59.0916 46.9033 59.4076C46.6779 59.4303 46.5494 59.4431 46.421 59.4558C46.2976 59.4248 46.1743 59.3937 45.9402 59.2795C45.4498 59.1853 45.0701 59.1741 44.6905 59.163C44.5657 59.14 44.4409 59.1171 44.164 59.0328C43.754 59.0026 43.4962 59.0339 43.2383 59.0651Z"
    fill="#C5635C" />
  <path
    d="M80.154 56.643C77.9247 57.3655 75.6954 58.088 73.3449 58.7035C73.2178 58.3616 73.2119 58.1266 73.2759 57.8107C74.6207 57.315 75.9166 56.9551 77.1652 56.4719C78.7517 55.8578 80.2997 55.1436 81.8664 54.5974C81.8856 54.9721 81.9026 55.2221 81.9197 55.472C81.9197 55.472 81.8387 55.5631 81.7121 55.5731C80.3801 54.6594 81.1193 56.1926 80.7135 56.2792C80.6301 56.3355 80.5467 56.3918 80.3605 56.493C80.2144 56.5643 80.1798 56.5993 80.154 56.643Z"
    fill="#CA6E68" />
  <path
    d="M16.4684 55.0514C15.46 54.9025 14.4515 54.7536 13.3166 54.4532C12.8325 54.322 12.4748 54.3423 12.1172 54.3626C11.6567 54.0653 11.1962 53.7681 10.7234 53.3324C10.711 53.1939 10.6527 53.0645 10.6527 53.0645C10.615 53.0272 10.5774 52.9899 10.4864 52.7979C10.423 52.4682 10.4128 52.2933 10.4197 52.0118C10.4507 51.8345 10.4645 51.7639 10.5669 51.7004C10.7658 51.75 10.8761 51.7925 11.0189 51.9081C11.1443 52.0256 11.2373 52.0698 11.3087 52.1323C11.2871 52.1506 11.3197 52.1044 11.3388 52.1841C11.4486 52.3167 11.5395 52.3697 11.6853 52.4711C11.7706 52.6117 11.8008 52.7038 11.8384 52.8361C11.8639 52.9279 11.8911 52.974 11.9929 53.0592C12.0966 53.1401 12.1347 53.1767 12.2464 53.2542C12.6408 53.2287 12.9616 53.1623 13.394 53.0867C14.582 53.3845 15.6586 53.6914 16.7374 54.0954C16.6493 54.4788 16.5588 54.7651 16.4684 55.0514Z"
    fill="#C04D49" />
  <path
    d="M61.6807 60.2264C61.1766 60.3269 60.6725 60.4274 59.9957 60.4441C59.0975 60.3447 58.3721 60.3292 57.6467 60.3137C57.5296 60.28 57.4124 60.2464 57.2052 60.1506C57.1152 60.0885 57.0895 59.9772 57.1632 59.9313C57.2848 59.7205 57.3327 59.5555 57.4969 59.3771C60.0278 58.799 62.4324 58.0526 64.891 59.0582C63.7962 59.515 62.7385 59.8707 61.6807 60.2264Z"
    fill="#B75651" />
  <path
    d="M10.4783 51.6933C10.4645 51.7639 10.4507 51.8346 10.3124 52.0213C9.2711 52.0317 8.9105 51.5343 9.0489 50.6094C9.0999 50.2687 9.0025 49.9056 8.9669 49.4268C8.9607 48.7123 8.96051 48.1237 8.96021 47.5352C8.97921 47.2273 8.99821 46.9194 9.14771 46.4852C9.66191 45.8527 10.0454 45.3465 10.429 44.8402C10.461 44.7935 10.493 44.7468 10.6752 44.6697C10.8762 44.6405 10.927 44.6416 10.9779 44.6428C11.1448 44.9656 11.3118 45.2883 11.413 45.7022C10.9542 46.0153 10.5611 46.2372 10.1797 46.5771C10.1622 48.2548 10.1331 49.8147 10.119 51.421C10.1671 51.5264 10.2157 51.5664 10.3337 51.6058C10.3876 51.6243 10.4783 51.6933 10.4783 51.6933Z"
    fill="#C34A42" />
  <path
    d="M8.78431 29.864C9.98101 30.1494 11.1424 30.3757 12.1951 30.8468C12.8308 31.1313 13.2979 31.7961 13.8452 32.3925C13.6243 32.4308 13.4022 32.3276 13.1732 32.3086C11.575 32.176 9.83681 32.4614 8.68461 30.7648C8.62611 30.4764 8.66471 30.1922 8.78431 29.864Z"
    fill="#120808" />
  <path
    d="M29.9896 57.4212C29.9896 57.4212 29.9004 57.3533 29.7773 57.252C29.0012 57.0287 28.348 56.9067 27.6949 56.6817C27.695 56.3725 27.6949 56.1663 27.8003 55.9328C28.2956 55.8944 28.7156 55.7829 29.07 55.89C30.4509 56.3077 31.811 56.7946 33.2104 57.2832C33.242 57.3107 33.3634 57.3119 33.3634 57.3119C33.3634 57.3119 33.4557 57.2313 33.5482 57.1943C33.7051 57.1414 33.7696 57.1254 33.8698 57.1023C33.9516 57.0771 33.9898 57.0486 34.1273 56.9449C34.5562 56.7955 34.8779 56.7106 35.1905 56.7518C35.1792 57.1276 35.177 57.3775 35.0768 57.6553C34.7193 57.7625 34.4598 57.8417 34.0982 57.8474C33.0302 57.7494 32.0644 57.7248 31.0056 57.6751C30.605 57.5737 30.2973 57.4975 29.9896 57.4212Z"
    fill="#C0504B" />
  <path
    d="M31.0303 59.5822C30.3509 59.6106 29.6246 59.6307 28.9404 59.4699C27.4447 59.1184 25.9704 58.675 24.3824 58.2775C24.2153 58.1911 24.1531 58.0963 24.0201 57.8764C23.9512 57.6373 23.9531 57.5232 23.9549 57.4091C24.3012 57.3154 24.6475 57.2216 25.1287 57.1343C25.2636 57.1407 25.3235 57.1605 25.3625 57.2561C25.6382 57.4285 25.8748 57.5053 26.2191 57.6137C27.071 57.8339 27.8152 58.0223 28.5594 58.2108C29.3738 58.6379 30.1881 59.0649 31.0303 59.5822Z"
    fill="#575654" />
  <path
    d="M73.206 57.8918C73.2119 58.1268 73.2177 58.3617 73.2276 58.7141C73.2316 58.8315 73.2255 58.8235 73.1583 58.8443C73.035 58.9413 72.9788 59.0174 72.9227 59.0935C72.8408 59.1419 72.7589 59.1904 72.5164 59.2175C72.2586 59.2584 72.1614 59.3205 72.0643 59.3826C71.3696 59.6157 70.3528 58.9718 69.9128 60.1762C69.6859 59.8812 69.5502 59.556 69.4145 59.2309C69.2982 59.36 69.1819 59.4892 68.9764 59.6303C68.5165 59.3871 68.1458 59.132 67.539 58.8583C67.0308 58.7935 66.7587 58.7472 66.5486 58.6038C67.4028 58.4112 68.1931 58.2955 68.9875 58.2246C70.3924 58.0993 71.7997 58.0013 73.206 57.8918Z"
    fill="#AF544F" />
  <path
    d="M11.7778 29.8461C10.9664 29.7999 10.0981 29.668 9.10925 29.5343C9.11815 27.8651 9.24765 26.1977 9.36785 24.3277C9.41885 23.9382 9.47915 23.7513 9.53935 23.5645C9.82265 23.8225 10.3638 24.099 10.3471 24.3356C10.2409 25.8353 10.0113 27.3261 9.80055 28.9926C10.3512 29.2127 11.036 29.4866 11.7778 29.8461Z"
    fill="#D0554E" />
  <path
    d="M16.5363 55.1128C16.5589 54.7652 16.6493 54.4789 16.8401 54.0931C17.3521 53.9777 17.8175 54.0817 18.1661 53.9245C19.4645 53.3387 20.4047 53.8719 21.1817 54.7867C20.8969 55.059 20.7001 55.3194 20.5033 55.5797C19.8529 55.0588 19.2195 54.8235 18.343 55.2006C17.8564 55.4099 17.1896 55.1967 16.5363 55.1128Z"
    fill="#C6605A" />
  <path
    d="M52.4777 59.4624C52.3524 59.432 52.2271 59.4015 51.9494 59.3059C51.6341 59.2147 51.4712 59.1885 51.3084 59.1624C51.3084 59.1624 51.1872 59.1047 51.0856 59.041C50.9073 58.9224 50.8272 58.873 50.7229 58.7796C50.6167 58.7466 50.5315 58.7631 50.4478 58.8216C50.4493 58.8634 50.4976 58.9317 50.4976 58.9317C50.2729 58.8862 50.0481 58.8406 49.7166 58.6617C49.991 58.259 50.3722 57.9897 50.8661 57.7292C51.1177 57.7965 51.2566 57.855 51.4233 57.9286C51.4511 57.9437 51.5764 57.9597 51.6925 57.9694C52.5096 58.0755 53.2107 58.1721 53.9799 58.3367C54.2337 58.4031 54.4194 58.4011 54.6644 58.3893C54.8036 58.3795 54.8831 58.3834 55.051 58.4776C55.2093 58.7959 55.2791 59.0274 55.2691 59.2407C55.136 59.2101 55.0827 59.1977 55.0231 59.1232C54.9585 59.1097 54.9003 59.1584 54.7875 59.2325C54.733 59.2578 54.6127 59.2599 54.5365 59.2349C54.3726 59.2645 54.2849 59.319 54.0743 59.3829C53.4601 59.4156 52.9689 59.4391 52.4777 59.4624Z"
    fill="#C04743" />
  <path
    d="M9.5703 23.4713C9.4791 23.7513 9.4189 23.9382 9.3266 24.1942C8.2767 23.843 7.2587 23.4226 6.1662 22.8459C5.99291 22.5793 5.89428 22.4691 5.79565 22.3588C5.79592 22.2321 5.79618 22.1053 5.89336 21.8796C6.1187 21.7854 6.2471 21.7901 6.426 21.8614C6.5808 21.9609 6.6852 21.9938 6.8885 22.0389C7.837 22.2478 8.6865 22.4445 9.609 22.6436C9.7306 22.6467 9.7792 22.6473 9.8279 22.648C9.7523 22.8914 9.6767 23.1348 9.5703 23.4713Z"
    fill="#C24740" />
  <path
    d="M79.2538 48.2953C79.6918 47.7953 80.1297 47.2954 80.6421 46.7317C80.9952 47.2719 81.2738 47.8758 81.4585 48.5968C81.4184 48.9962 81.4721 49.2786 81.5259 49.561C81.5613 49.5981 81.5967 49.6352 81.5617 49.7967C81.7169 50.0853 81.9426 50.2495 82.1683 50.4137C82.1683 50.4137 82.1567 50.4301 82.1843 50.4901C82.2901 50.6052 82.3681 50.6602 82.4462 50.7153C82.5293 50.8668 82.6125 51.0183 82.625 51.3282C82.2366 51.5174 81.9188 51.5482 81.5553 51.5226C81.4364 51.4037 81.3633 51.3411 81.2565 51.2155C81.1588 51.0739 81.0762 51.0318 80.9874 51.0271C80.9999 51.0279 80.9755 51.0342 80.9863 50.9334C80.8317 50.5955 80.6662 50.3584 80.4434 50.032C80.0086 49.3935 79.6312 48.8444 79.2538 48.2953Z"
    fill="#CA615C" />
  <path
    d="M25.3234 57.1605C25.3234 57.1605 25.2636 57.1407 25.2365 57.125C24.9351 56.8559 24.6606 56.6024 24.264 56.2095C23.8869 55.7794 23.6319 55.4888 23.4663 55.1527C23.6883 55.1083 23.8209 55.1095 23.9787 55.1513C24.0039 55.1919 24.1318 55.2179 24.1318 55.2179C24.1318 55.2179 24.2312 55.1227 24.3127 55.115C24.5401 55.1698 24.6861 55.2323 24.8773 55.3774C25.0388 55.4992 25.155 55.5383 25.3697 55.5843C26.2104 55.7142 26.9527 55.8372 27.6949 55.9602C27.6949 56.1664 27.6949 56.3725 27.5939 56.7372C26.9671 56.9672 26.4413 57.0386 25.8165 57.1064C25.5861 57.122 25.4548 57.1413 25.3234 57.1605Z"
    fill="#C0504A" />
  <path
    d="M8.67887 35.4867C10.5285 35.2246 12.2771 35.4021 13.7784 36.7887C13.6189 37.1008 13.4514 37.2514 13.1788 37.4011C12.8645 37.3829 12.6554 37.3656 12.4255 37.2479C11.6572 35.4985 10.2087 36.0122 8.87217 36.004C8.81717 35.9973 8.70867 36.0204 8.70867 36.0204C8.69217 35.8779 8.67567 35.7353 8.67887 35.4867Z"
    fill="#120808" />
  <path
    d="M9.83786 37.1186C10.0805 38.6945 10.3171 40.2714 10.569 41.8458C10.6493 42.348 10.7698 42.8437 10.8 43.4124C10.2142 41.3745 9.70046 39.2666 9.28516 37.0267C9.53496 36.9693 9.68636 37.044 9.83786 37.1186Z"
    fill="#C4615B" />
  <path
    d="M23.3769 55.1983C23.6319 55.4889 23.8869 55.7795 24.1862 56.1446C23.0347 56.0656 21.839 55.9119 20.5732 55.669C20.7 55.3194 20.8968 55.059 21.2741 54.8638C22.0954 55.0186 22.7361 55.1084 23.3769 55.1983Z"
    fill="#C25C55" />
  <path
    d="M9.94419 37.1037C9.68649 37.0439 9.53499 36.9693 9.29489 36.9031C9.12079 36.8325 9.03529 36.7535 8.93539 36.5231C8.92309 36.2513 8.92519 36.1309 8.92719 36.0104C10.2087 36.012 11.6571 35.4982 12.3367 37.2702C12.2094 37.4065 12.15 37.4198 12.0112 37.4339C11.8267 37.4334 11.7217 37.432 11.6168 37.4307C11.4976 37.3964 11.3784 37.362 11.1048 37.2837C10.79 37.2166 10.6297 37.1934 10.4693 37.1703C10.3297 37.1431 10.1901 37.116 9.94419 37.1037Z"
    fill="#250506" />
  <path
    d="M32.3059 62.0669C32.1928 61.37 32.0883 60.7828 32.0072 60.0905C32.237 60.0793 32.4937 60.1243 32.6406 60.2763C33.0863 60.7372 33.4896 61.2395 33.9093 61.7257C33.4397 62.1164 32.9702 62.5071 32.3986 62.8669C32.3026 62.6163 32.3086 62.3965 32.3059 62.0669Z"
    fill="#353534" />
  <path
    d="M50.7535 57.7205C50.3723 57.9898 49.9911 58.2591 49.6065 58.6272C49.558 58.7557 49.5129 58.7853 49.3068 58.8361C48.9155 58.9436 48.6852 59.0298 48.3734 59.1169C48.1541 59.1903 48.0161 59.2628 47.7701 59.3614C47.4414 59.3908 47.2208 59.3942 47.0002 59.3976C47.0506 59.0916 47.1009 58.7855 47.3244 58.3862C48.5828 58.1021 49.6681 57.9113 50.7535 57.7205Z"
    fill="#C35E56" />
  <path
    d="M80.9442 46.0794C81.6492 44.3513 82.3542 42.6232 83.1349 40.8254C82.5581 42.6203 81.9056 44.4848 81.1294 46.2938C80.9852 46.1853 80.9647 46.1324 80.9442 46.0794Z"
    fill="#F1CEC9" />
  <path
    d="M84.1675 30.657C84.0367 30.7593 83.9164 30.7528 83.6065 30.7383C83.2817 30.7303 83.1466 30.7304 83.0404 30.6275C83.2507 30.0247 83.3949 29.5068 83.6236 29.0298C83.8656 28.525 84.1881 28.0592 84.4755 27.5764C84.7017 27.5903 84.928 27.6043 85.2231 27.6676C83.653 28.1578 84.4305 29.5574 84.1675 30.657Z"
    fill="#CC6058" />
  <path
    d="M82.0213 55.4385C81.9026 55.222 81.8856 54.9721 81.9552 54.5755C82.1801 54.2518 82.3183 54.0747 82.5653 53.8897C83.901 53.4131 83.1258 52.6424 82.9801 51.935C82.9992 51.9062 83.0384 51.8491 83.0384 51.8491C84.1994 53.1732 83.8095 54.6877 82.0213 55.4385Z"
    fill="#D37D77" />
  <path
    d="M55.349 59.2589C55.2792 59.0273 55.2093 58.7957 55.1416 58.4287C55.8894 58.6591 56.635 59.0248 57.3807 59.3905C57.3327 59.5555 57.2848 59.7204 57.0649 59.9372C56.7626 59.9886 56.6324 59.9882 56.5021 59.9878C56.3305 59.9414 56.1588 59.8949 55.8591 59.7771C55.6037 59.5567 55.4763 59.4078 55.349 59.2589Z"
    fill="#CC7671" />
  <path
    d="M25.9156 57.11C26.4414 57.0386 26.9672 56.9672 27.594 56.8403C28.3482 56.9068 29.0012 57.0288 29.7226 57.2404C29.3843 57.5487 28.9777 57.7674 28.5653 58.0984C27.8153 58.0224 27.0711 57.8339 26.1815 57.537C25.9959 57.3224 25.9558 57.2162 25.9156 57.11Z"
    fill="#F8E3E0" />
  <path
    d="M8.97282 49.5527C9.00252 49.9056 9.09982 50.2687 9.04892 50.6094C8.91042 51.5344 9.27102 52.0317 10.2952 52.128C10.4128 52.2933 10.423 52.4682 10.4478 52.7284C9.18202 52.8236 8.73762 52.1115 8.81562 50.9199C8.83992 50.549 8.79902 50.1737 8.82212 49.6755C8.85632 49.5506 8.97282 49.5527 8.97282 49.5527Z"
    fill="#CD6560" />
  <path
    d="M34.2003 57.921C34.4598 57.8417 34.7193 57.7625 35.186 57.6791C35.6153 57.6584 35.8373 57.6418 36.0594 57.6252C36.3024 57.6868 36.5454 57.7484 36.8448 57.8856C36.2242 58.1194 35.5522 58.3061 34.8685 58.4251C34.453 58.4975 34.0195 58.4653 33.5994 58.3804C33.8032 58.1608 34.0017 58.0409 34.2003 57.921Z"
    fill="#FCDDDA" />
  <path
    d="M23.6996 64.6844C24.2766 64.6228 24.8143 64.6539 25.7229 64.7064C25.1779 65.2844 24.9135 65.5647 24.5982 65.931C24.2516 65.6036 23.956 65.1903 23.6996 64.6844Z"
    fill="#343433" />
  <path
    d="M8.3877 32.8962C8.9999 32.9789 10.0649 32.2662 10.0788 33.7933C9.6817 33.6328 9.3785 33.5103 9.0093 33.3611C8.9079 33.6372 8.80729 33.9111 8.62889 34.2075C8.48629 33.8256 8.4214 33.4211 8.3877 32.8962Z"
    fill="#120808" />
  <path
    d="M55.2692 59.2406C55.4763 59.4078 55.6036 59.5567 55.7705 59.7676C54.7563 59.7565 53.7025 59.6834 52.5632 59.5362C52.9689 59.4389 53.4601 59.4155 54.1496 59.3948C54.4362 59.3515 54.5245 59.3056 54.6128 59.2597C54.6128 59.2597 54.733 59.2577 54.8356 59.2389C54.9382 59.2201 55.0296 59.1853 55.0296 59.1853C55.0828 59.1976 55.136 59.21 55.2692 59.2406Z"
    fill="#FCDDDA" />
  <path
    d="M5.6898 22.347C5.8943 22.4691 5.99292 22.5793 6.0984 22.7661C5.40473 22.6337 4.70412 22.4248 3.97778 22.125C4.49602 22.1345 5.03997 22.2348 5.6898 22.347Z"
    fill="#CA6962" />
  <path
    d="M34.0983 57.8476C34.0018 58.041 33.8032 58.1609 33.5233 58.3256C32.7539 58.2446 32.0657 58.1188 31.2517 57.9121C31.1258 57.8312 31.0986 57.7004 31.0986 57.7004C32.0645 57.725 33.0303 57.7495 34.0983 57.8476Z"
    fill="#CC756D" />
  <path
    d="M81.601 51.5788C81.9188 51.548 82.2366 51.5172 82.6206 51.4175C82.7915 51.4638 82.8961 51.5792 83.0195 51.7718C83.0383 51.8491 82.9991 51.9061 82.9123 51.9709C82.7131 52.2657 82.6008 52.4957 82.4021 52.6838C82.0776 52.2875 81.8392 51.9331 81.601 51.5788Z"
    fill="#D37D77" />
  <path
    d="M57.6719 60.4125C58.3722 60.3292 59.0976 60.3447 59.8849 60.4595C59.7682 60.6916 59.5895 60.8245 59.3935 61.048C58.8165 60.9296 58.2567 60.7204 57.6719 60.4125Z"
    fill="#FCDDDA" />
  <path
    d="M10.3391 44.8511C10.0454 45.3467 9.66177 45.8529 9.19067 46.3778C9.48507 45.8849 9.86717 45.3733 10.3391 44.8511Z"
    fill="#C4615B" />
  <path
    d="M46.9031 59.4073C47.2207 59.394 47.4413 59.3906 47.8535 59.3745C48.1576 59.3538 48.2702 59.3458 48.4098 59.3668C48.437 59.3958 48.4905 59.4546 48.4905 59.4546C47.9091 60.3153 47.2262 60.0425 46.476 59.5435C46.5494 59.4428 46.6777 59.4301 46.9031 59.4073Z"
    fill="#FCDDDA" />
  <path
    d="M8.96692 49.4268C8.97292 49.5527 8.85632 49.5505 8.79812 49.5486C8.77302 48.9291 8.80622 48.3115 8.89982 47.6145C8.96052 48.1237 8.96072 48.7123 8.96692 49.4268Z"
    fill="#C4615B" />
  <path
    d="M86.5957 27.589C87.1105 27.3981 87.7476 27.2085 88.5088 27.0383C87.9946 27.2352 87.3563 27.4128 86.5957 27.589Z"
    fill="#CC6058" />
  <path d="M23.2062 58.606C23.249 58.9927 23.3169 59.474 23.2789 59.9958C23.1925 59.591 23.2119 59.1458 23.2062 58.606Z"
    fill="#343433" />
  <path
    d="M31.0057 57.6753C31.0986 57.7004 31.1258 57.8312 31.1382 57.8968C30.7739 57.8423 30.3973 57.7222 30.0051 57.5117C30.2973 57.4976 30.605 57.5738 31.0057 57.6753Z"
    fill="#F8E3E0" />
  <path
    d="M44.7395 59.2421C45.07 59.174 45.4497 59.1852 45.8443 59.2822C45.5024 59.3525 45.1455 59.337 44.7395 59.2421Z"
    fill="#FCDDDA" />
  <path
    d="M80.8049 56.2667C81.1192 56.1926 80.3801 54.6594 81.6551 55.5946C81.4486 55.8221 81.1725 56.0381 80.8049 56.2667Z"
    fill="#D37D77" />
  <path
    d="M83.4176 39.4308C83.511 39.2005 83.6216 39.0664 83.8176 38.9199C83.7719 39.342 83.6408 39.7765 83.4222 40.2579C83.368 40.0455 83.4013 39.7862 83.4176 39.4308Z"
    fill="#F1CEC9" />
  <path
    d="M43.2888 59.1439C43.4962 59.0339 43.754 59.0026 44.0686 59.0334C43.8634 59.1379 43.6013 59.1803 43.2888 59.1439Z"
    fill="#FCDDDA" />
  <path
    d="M39.5154 58.7058C39.8378 58.7284 40.1878 58.8477 40.5965 59.0411C40.2844 59.0109 39.9137 58.9067 39.5154 58.7058Z"
    fill="#FCDDDA" />
  <path
    d="M81.5281 49.4509C81.4721 49.2785 81.4183 48.9961 81.448 48.6985C81.5312 48.9024 81.5308 49.1217 81.5281 49.4509Z"
    fill="#D37D77" />
  <path
    d="M12.2312 54.3965C12.4749 54.3423 12.8326 54.322 13.2415 54.3702C12.9769 54.4359 12.661 54.4332 12.2312 54.3965Z"
    fill="#CD6560" />
  <path
    d="M82.1321 50.3432C81.9426 50.2496 81.7169 50.0854 81.5726 49.873C81.8014 49.9742 81.9487 50.1234 82.1321 50.3432Z"
    fill="#D37D77" />
  <path
    d="M0.565063 19.5276C0.781053 19.6096 0.964113 19.7558 1.145 20.0018C0.939263 19.9316 0.735703 19.7617 0.565063 19.5276Z"
    fill="#CA6962" />
  <path
    d="M48.4549 59.1159C48.6852 59.0296 48.9155 58.9434 49.2365 58.8762C49.1092 59.0698 48.8913 59.2443 48.582 59.4367C48.4905 59.4546 48.437 59.3959 48.4283 59.3115C48.4195 59.2272 48.4549 59.1159 48.4549 59.1159Z"
    fill="#FCDDDA" />
  <path
    d="M1.58459 20.6855C1.76004 20.7794 1.91548 20.9538 2.07958 21.2049C1.91369 21.1098 1.73914 20.9379 1.58459 20.6855Z"
    fill="#CA6962" />
  <path
    d="M0.275619 16.696C0.337249 17.0174 0.330279 17.4117 0.315339 17.9244C0.273919 17.6183 0.240469 17.1936 0.275619 16.696Z"
    fill="#CA6962" />
  <path
    d="M37.2822 58.0846C37.5493 58.0369 37.8956 58.0564 38.3218 58.1454C38.0549 58.1938 37.7082 58.1728 37.2822 58.0846Z"
    fill="#FCDDDA" />
  <path
    d="M23.8684 57.4075C23.9531 57.5233 23.9513 57.6374 23.9447 57.8368C23.8042 57.9456 23.6683 57.969 23.4355 57.9548C23.4864 57.7466 23.6341 57.5762 23.8684 57.4075Z"
    fill="#706B68" />
  <path
    d="M51.3204 59.245C51.4712 59.1886 51.6341 59.2147 51.8524 59.3056C51.7161 59.3561 51.5243 59.3418 51.3204 59.245Z"
    fill="#FCDDDA" />
  <path
    d="M8.87209 36.0038C8.92509 36.131 8.92299 36.2514 8.88319 36.4532C8.76329 36.3843 8.68099 36.234 8.65369 36.052C8.70859 36.0203 8.81709 35.9971 8.87209 36.0038Z"
    fill="#C4615B" />
  <path
    d="M56.5131 60.0748C56.6323 59.9883 56.7626 59.9887 56.9912 59.9831C57.0895 59.9772 57.1152 60.0885 57.1137 60.1456C56.9162 60.189 56.7201 60.1754 56.5131 60.0748Z"
    fill="#FCDDDA" />
  <path
    d="M89.4712 26.5652C89.598 26.4886 89.8062 26.4349 90.0978 26.387C89.9717 26.4579 89.7621 26.523 89.4712 26.5652Z"
    fill="#CC6058" />
  <path
    d="M50.7439 58.8291C50.8273 58.873 50.9073 58.9224 51.0185 59.039C50.901 59.0849 50.7489 59.0691 50.5472 58.9925C50.4977 58.9317 50.4494 58.8634 50.5191 58.8527C50.6406 58.8377 50.6923 58.8334 50.7439 58.8291Z"
    fill="#FCDDDA" />
  <path
    d="M3.31067 21.5273C3.41095 21.5269 3.5618 21.5861 3.74095 21.7252C3.63324 21.7323 3.49724 21.6596 3.31067 21.5273Z"
    fill="#CA6962" />
  <path
    d="M10.9914 44.5664C10.9271 44.6418 10.8762 44.6407 10.7499 44.6297C10.7039 44.495 10.7334 44.37 10.8109 44.1616C10.9075 44.2154 10.9562 44.3526 10.9914 44.5664Z"
    fill="#C4615B" />
  <path
    d="M80.8776 46.1323C80.9647 46.1322 80.9852 46.1852 81.0324 46.3191C80.9897 46.4703 80.9204 46.5406 80.7832 46.6411C80.7471 46.5093 80.7791 46.3473 80.8776 46.1323Z"
    fill="#CA615C" />
  <path
    d="M0.424805 18.4272C0.498285 18.5136 0.538175 18.6852 0.549615 18.9471C0.477845 18.8624 0.434545 18.6875 0.424805 18.4272Z"
    fill="#CA6962" />
  <path
    d="M41.8665 59.2765C41.9436 59.2018 42.0712 59.1754 42.2958 59.1663C42.2342 59.2306 42.0756 59.2776 41.8665 59.2765Z"
    fill="#FCDDDA" />
  <path
    d="M72.1511 59.3944C72.1615 59.3205 72.2587 59.2584 72.444 59.2151C72.4341 59.2913 72.336 59.3488 72.1511 59.3944Z"
    fill="#CA6E68" />
  <path
    d="M15.2974 5.32397C15.3009 5.39007 15.2358 5.45537 15.0997 5.50917C15.0663 5.40577 15.133 5.34757 15.2974 5.32397Z"
    fill="#EDECE3" />
  <path
    d="M72.9963 59.0814C72.9788 59.0172 73.035 58.9411 73.1613 58.8472C73.1776 58.9094 73.1237 58.9894 72.9963 59.0814Z"
    fill="#CA6E68" />
  <path
    d="M16.1125 4.74292C16.1358 4.80922 16.0893 4.89592 15.9664 4.99202C15.9409 4.92212 15.9919 4.84262 16.1125 4.74292Z"
    fill="#EDECE3" />
  <path
    d="M86.0081 27.6931C86.0092 27.6236 86.0757 27.5648 86.1636 27.5691C86.185 27.6322 86.0734 27.7036 86.0081 27.6931Z"
    fill="#CC6058" />
  <path
    d="M82.4335 50.6377C82.3681 50.6601 82.29 50.6051 82.1876 50.4808C82.2492 50.461 82.3351 50.5106 82.4335 50.6377Z"
    fill="#D37D77" />
  <path d="M38.9614 58.39C39.0227 58.3002 39.107 58.3212 39.2089 58.461C39.1485 58.5314 39.0679 58.505 38.9614 58.39Z"
    fill="#FCDDDA" />
  <path
    d="M10.6273 53.1019C10.6527 53.0645 10.7111 53.194 10.7128 53.2297C10.6443 53.2527 10.6068 53.2107 10.6273 53.1019Z"
    fill="#CD6560" />
  <path
    d="M80.2002 56.6548C80.1798 56.5993 80.2144 56.5643 80.2915 56.5239C80.3447 56.5853 80.3185 56.6375 80.2002 56.6548Z"
    fill="#D37D77" />
  <path
    d="M2.70832 21.355C2.70008 21.2567 2.7679 21.2389 2.87354 21.3079C2.89734 21.3388 2.77034 21.3796 2.70832 21.355Z"
    fill="#CA6962" />
  <path
    d="M1.17603 20.148C1.22973 20.1191 1.32106 20.1504 1.44145 20.2513C1.3749 20.3063 1.28928 20.2687 1.17603 20.148Z"
    fill="#CA6962" />
  <path
    d="M9.5361 22.6411C8.6866 22.4444 7.837 22.2478 6.865 21.974C6.7425 21.897 6.6826 21.7729 6.6187 21.6766C6.0204 21.5369 5.48598 21.4935 4.95159 21.45C4.62325 21.0962 4.2949 20.7423 3.80361 20.3585C3.5906 20.3351 3.54055 20.3417 3.49049 20.3482C1.78716 19.2526 1.132 17.7118 1.84167 16.4566C2.43502 15.4072 3.30889 15.2955 4.39128 15.2363C4.49254 15.2564 4.51078 15.2622 4.54126 15.363C4.752 15.7257 4.87364 16.0969 5.12226 16.2315C6.4759 16.9643 7.8608 17.6388 9.2349 18.3334C9.2349 18.3334 9.2539 18.314 9.2592 18.3947C9.3524 18.5241 9.4402 18.5727 9.528 18.6214C9.528 18.6214 9.5394 18.6005 9.5443 18.6829C9.6275 18.8298 9.7058 18.8944 9.7841 18.9589C9.7841 18.9589 9.7941 19.0761 9.7894 19.2388C9.7884 19.7757 9.7921 20.15 9.7566 20.5958C9.7444 20.8732 9.7715 21.079 9.7833 21.3388C9.7679 21.3928 9.8273 21.4879 9.8273 21.4879C9.8273 21.4879 9.7925 21.6267 9.7384 21.7649C9.6349 22.1491 9.5855 22.3951 9.5361 22.6411Z"
    fill="#F2E2D9" />
  <path
    d="M45.3132 17.8481C45.6983 19.2523 46.1778 20.7442 46.3467 22.2708C46.435 23.0688 45.9782 23.928 45.7651 24.7589C45.7074 24.9838 45.5238 25.2573 45.5953 25.4221C46.467 27.4308 45.2781 28.7942 44.0235 30.1926C46.0532 32.1513 43.8202 34.4691 44.6003 36.6647C44.352 36.8257 44.2043 36.842 43.9927 36.846C43.9287 36.8336 43.8111 36.7771 43.8111 36.7771C44.1717 36.0285 44.2025 35.4172 43.8125 34.5394C43.4988 33.8334 44.0358 32.7461 44.2276 31.6419C43.0934 30.4506 43.1066 30.4615 44.4444 28.8255C45.125 27.9932 46.0191 27.2126 44.9563 25.9703C44.7554 25.7354 45.0276 24.8746 45.3201 24.482C45.7689 23.8799 45.9952 23.5 45.4833 22.7507C45.1688 22.2903 45.34 21.4952 45.2721 20.5621C44.4168 19.9619 44.5287 18.9848 45.3132 17.8481Z"
    fill="#F5C7BC" />
  <path
    d="M21.5671 7.95215C22.8461 8.03015 24.1253 8.10495 25.4039 8.18885C25.6399 8.20425 26.0159 8.17675 26.0862 8.30375C26.8124 9.61555 28.3425 9.54895 29.3909 10.297C30.331 10.9679 31.1724 11.9625 32.5643 11.3972C32.7263 11.3314 33.094 11.4658 33.2002 11.6216C33.9453 12.7149 35.0009 12.953 36.2156 12.8254C36.3088 12.8156 36.4252 12.8103 36.4979 12.8558C37.481 13.4708 38.4583 14.0951 39.4128 14.8305C38.2487 14.8671 37.0885 14.892 36.3027 13.7862C36.1809 13.6148 35.6748 13.7658 35.389 13.656C34.6648 13.3776 33.7367 13.2156 33.3128 12.6737C32.7806 11.9933 32.4188 11.9429 31.6726 12.1516C31.1409 12.3003 30.509 12.0875 29.8399 11.8787C29.566 11.5782 29.374 11.4351 29.182 11.292C29.182 11.292 29.1541 11.1802 29.1007 11.0281C28.6536 10.6606 28.2779 10.3967 27.862 10.2408C27.1666 9.98015 26.4455 9.78855 25.7353 9.56785C25.7353 9.56785 25.685 9.62835 25.693 9.48645C25.1356 9.13895 24.5742 8.92105 24.0036 8.73045C23.195 8.46045 22.3796 8.21065 21.5671 7.95215Z"
    fill="#F5C7BC" />
  <path
    d="M22.7831 34.7939C23.1799 33.5226 24.073 34.7854 24.7216 34.3621C24.9293 34.315 25.0638 34.3312 25.3209 34.4631C25.7102 34.5769 25.977 34.5751 26.2437 34.5732C26.4811 34.6267 26.7184 34.6802 27.0893 34.8687C28.0472 35.1449 28.8716 35.2861 29.696 35.4273C29.92 35.4269 30.1441 35.4266 30.5399 35.5335C31.2849 35.7245 31.8583 35.8083 32.4317 35.8921C32.6187 35.9026 32.8057 35.9131 33.1358 36.046C34.0106 36.3859 34.7423 36.6033 35.4435 36.897C35.3375 37.1186 35.2621 37.264 35.1868 37.4094C34.0281 37.3119 32.8529 37.3061 31.7142 37.0982C29.1643 36.6326 26.6327 36.0665 23.9752 35.3713C23.4989 35.0655 23.141 34.9297 22.7831 34.7939Z"
    fill="#250604" />
  <path
    d="M35.2423 37.5089C35.2621 37.2641 35.3375 37.1187 35.5753 36.8997C37.6989 36.8999 39.6601 36.9738 41.6213 37.0476C41.8116 37.0428 42.0019 37.038 42.3034 37.1584C42.6945 37.9037 42.9745 38.5237 43.2194 39.1829C43.1843 39.222 43.0834 39.1937 43.0834 39.1937C42.5306 38.9838 41.9931 38.6632 41.4224 38.5844C39.5876 38.3311 37.7394 38.1765 35.8997 37.9559C35.6883 37.9305 35.498 37.7285 35.2423 37.5089Z"
    fill="#110303" />
  <path
    d="M39.4316 15.0535C39.9289 15.1175 40.4596 15.2586 40.9777 15.4367C42.0668 15.8109 43.1662 16.1638 44.2256 16.6111C44.6204 16.7779 44.9151 17.1837 45.2647 17.5854C44.4367 17.5152 43.5319 17.4854 42.7778 17.1315C41.6173 16.5869 40.5603 15.8199 39.4316 15.0535Z"
    fill="#F5C7BC" />
  <path
    d="M9.2362 18.2304C7.8607 17.6389 6.4758 16.9644 5.12222 16.2316C4.8736 16.097 4.75196 15.7258 4.55054 15.3652C6.2329 15.9975 8.1009 16.4553 9.2362 18.2304Z"
    fill="#C44E46" />
  <path
    d="M41.5272 36.9784C39.6601 36.9737 37.6989 36.8999 35.6058 36.8234C34.7423 36.6034 34.0106 36.3859 33.2251 36.0762C35.9253 36.2924 38.6792 36.6008 41.5272 36.9784Z"
    fill="#3E0808" />
  <path
    d="M21.5173 7.95749C22.3796 8.21049 23.1949 8.46029 24.0036 8.73039C24.5741 8.92089 25.1356 9.13879 25.72 9.45759C24.1297 9.17839 22.5206 8.78619 20.9133 8.28809C21.0665 8.10359 21.2177 8.02489 21.3688 7.94629C21.3688 7.94629 21.4676 7.96299 21.5173 7.95749Z"
    fill="#C24942" />
  <path
    d="M25.7255 9.67847C26.4456 9.78827 27.1666 9.97997 27.8621 10.2407C28.2779 10.3966 28.6536 10.6605 29.0671 10.9813C28.3967 10.957 27.6792 10.9049 27.0258 10.6718C26.5456 10.5004 26.1493 10.092 25.7255 9.67847Z"
    fill="#C24942" />
  <path
    d="M43.2545 39.1437C42.9745 38.5236 42.6946 37.9036 42.3975 37.1744C42.8026 36.9955 43.2249 36.9258 43.7292 36.8166C43.8112 36.7771 43.9287 36.8336 44.0285 36.9141C44.216 37.0396 44.3038 37.0845 44.3439 37.2217C43.949 37.9239 43.6018 38.5338 43.2545 39.1437Z"
    fill="#250604" />
  <path
    d="M21.3113 7.86206C21.2177 8.02486 21.0665 8.10356 20.8386 8.22306C20.6378 8.24576 20.5137 8.22756 20.2461 8.15686C20.1025 8.10426 19.9717 8.07526 19.9717 8.07526C19.9348 8.00186 19.8824 7.94206 19.7641 7.86366C19.6713 7.63736 19.6292 7.44316 19.5798 7.14966C20.1329 7.29286 20.6933 7.53536 21.3113 7.86206Z"
    fill="#F5C7BC" />
  <path
    d="M29.6232 35.3474C28.8715 35.2862 28.0471 35.145 27.1716 34.9124C27.9305 34.9697 28.7405 35.1185 29.6232 35.3474Z"
    fill="#3E0808" />
  <path
    d="M9.92261 21.4407C9.82731 21.488 9.76791 21.393 9.79421 21.2122C9.81221 20.8624 9.80401 20.6934 9.79581 20.5244C9.79211 20.1501 9.78841 19.7759 9.81361 19.2925C10.7222 19.8543 10.5523 20.6092 9.92261 21.4407Z"
    fill="#C24740" />
  <path
    d="M32.3476 35.8211C31.8582 35.8084 31.2848 35.7246 30.6497 35.5576C31.1465 35.5663 31.7051 35.6582 32.3476 35.8211Z"
    fill="#3E0808" />
  <path
    d="M26.1607 34.5368C25.977 34.5751 25.7103 34.5769 25.4109 34.5121C25.6114 34.4637 25.8445 34.482 26.1607 34.5368Z"
    fill="#3E0808" />
  <path
    d="M29.1765 11.3958C29.374 11.435 29.566 11.5781 29.7678 11.8146C29.5754 11.7718 29.3732 11.6357 29.1765 11.3958Z"
    fill="#C24942" />
  <path
    d="M9.60899 22.6437C9.58549 22.3952 9.63479 22.1491 9.74999 21.8354C9.82439 21.9877 9.83289 22.2076 9.83459 22.5378C9.77919 22.6474 9.73059 22.6468 9.60899 22.6437Z"
    fill="#C44E46" />
  <path
    d="M19.967 8.13473C19.9717 8.07543 20.1025 8.10443 20.1523 8.14933C20.1222 8.19423 20.0423 8.19413 19.967 8.13473Z"
    fill="#C24942" />
  <path
    d="M9.50668 18.5474C9.44018 18.5727 9.35238 18.5241 9.24658 18.3995C9.31418 18.3735 9.39978 18.4235 9.50668 18.5474Z"
    fill="#C44E46" />
  <path
    d="M9.77607 18.8783C9.70577 18.8945 9.62747 18.8299 9.53357 18.688C9.60127 18.6729 9.68467 18.7352 9.77607 18.8783Z"
    fill="#C44E46" />
  <path
    d="M43.2194 39.1828C43.6017 38.5338 43.949 37.9239 44.4659 37.2248C45.6174 37.2214 46.5992 37.3072 47.6648 37.3912C47.8843 37.305 48.02 37.2206 48.2486 37.1367C48.4653 37.1419 48.5891 37.1465 48.7681 37.216C48.9858 37.3179 49.1482 37.3548 49.4053 37.3916C49.6261 37.3908 49.7522 37.3903 49.9835 37.3958C50.4049 37.3114 50.7212 37.221 51.1248 37.1238C51.3504 37.0235 51.4886 36.93 51.6268 36.8365C51.7451 36.8313 51.8634 36.8261 52.0892 36.9118C52.4444 37.139 52.6919 37.2752 52.9766 37.471C53.0396 37.6297 53.1006 37.6964 53.213 37.8234C53.255 38.0388 53.2808 38.1613 53.2396 38.3544C53.3319 39.1423 53.4912 39.8596 53.6814 40.6354C53.7194 40.7915 53.7667 40.8619 53.8296 41.0116C53.7962 41.4092 53.7873 41.7003 53.7134 42.0833C53.6441 42.7087 53.6398 43.2421 53.6354 43.7755C53.3938 44.0263 53.1523 44.2771 52.7395 44.5997C51.1745 44.8689 49.7808 45.0664 48.2898 45.2704C47.9981 45.2674 47.8036 45.2578 47.4953 45.2239C46.2932 45.0158 45.2051 44.8321 44.1169 44.6484C44.1169 44.6484 43.9861 44.6636 43.8999 44.5786C43.7351 44.3321 43.6565 44.1705 43.5759 43.8967C43.3869 43.26 43.2 42.7355 43.0131 42.2109C43.0274 41.2816 43.0417 40.3523 43.0697 39.3083C43.0833 39.1936 43.1843 39.2219 43.2194 39.1828ZM44.8095 41.546C44.8492 41.7108 44.889 41.8755 44.9386 42.2309C44.9237 42.3572 44.9088 42.4836 44.8076 42.6689C44.8443 42.7499 44.8811 42.831 44.9663 43.0821C44.9826 43.1985 44.999 43.3149 44.9991 43.618C47.3901 43.6595 49.7812 43.701 52.2523 43.5824C52.2898 43.5361 52.3273 43.4898 52.4509 43.3438C52.4509 43.1318 52.4509 42.9198 52.3211 42.4918C51.9975 42.254 51.6775 42.0111 51.3494 41.7799C51.0048 41.537 50.6524 41.3053 50.3034 41.0688C50.6559 40.8144 50.9875 40.5194 51.3689 40.321C51.5943 40.2038 51.8985 40.2396 52.2742 40.1935C52.1833 39.6071 52.1075 39.1183 52.0268 38.5975C50.9482 38.5975 50.0059 38.5975 48.9546 38.5622C48.8721 38.5577 48.8041 38.5871 48.512 38.7355C48.1855 38.6875 47.8589 38.6395 47.4994 38.5456C47.4405 38.5169 47.3908 38.527 47.1335 38.6838C46.8983 38.7149 46.6631 38.7459 46.2901 38.656C45.9493 38.7046 45.6085 38.7532 45.1233 38.8331C45.0748 38.8421 45.0264 38.8512 44.8693 38.867C44.8416 38.8902 44.7891 38.9155 44.7908 38.9363C44.7961 39.0016 44.8218 39.0652 44.8752 39.3857C44.89 40.0751 44.9048 40.7644 44.8095 41.546Z"
    fill="#EFD25B" />
  <path
    d="M52.5383 29.0186C52.4997 28.1743 52.4082 27.3279 52.4413 26.4864C52.4625 25.948 52.6677 25.417 52.8662 24.8081C53.2869 24.79 53.6318 24.8464 53.9723 24.9125C53.9679 24.9222 53.9529 24.9363 53.9401 25.0582C53.9307 25.5069 53.9342 25.8338 53.9321 26.2489C53.9184 26.4544 53.9101 26.5717 53.9041 26.6918C53.9064 26.6948 53.9029 26.6864 53.8233 26.7434C53.3419 27.5398 52.9401 28.2792 52.5383 29.0186Z"
    fill="#F4C6BD" />
  <path
    d="M52.5463 29.0664C52.9401 28.279 53.3419 27.5396 53.8313 26.8613C53.9132 27.1141 53.969 27.3363 53.8918 27.4922C53.4284 28.428 53.1886 29.2742 54.083 30.174C54.2731 30.3652 53.8811 31.1401 53.7211 31.5461C53.6566 31.3071 53.6282 31.1682 53.5998 31.0293C53.6088 30.9052 53.6178 30.7812 53.5987 30.4937C53.4937 30.2784 53.4168 30.2267 53.3399 30.175C53.3399 30.175 53.3394 30.1715 53.3064 30.0873C53.0288 29.7388 52.7841 29.4747 52.5394 29.2105C52.5394 29.2105 52.5542 29.1144 52.5463 29.0664Z"
    fill="#C24B43" />
  <path
    d="M53.5305 31.0806C53.6282 31.1683 53.6566 31.3072 53.6921 31.6359C53.6802 31.9499 53.6613 32.0741 53.5678 32.2559C53.2701 32.7653 53.0469 33.217 52.7991 33.7292C52.7744 33.7897 52.7526 33.9186 52.6771 33.962C52.544 34.1663 52.4865 34.3272 52.436 34.4855C52.4431 34.4828 52.4283 34.4748 52.3519 34.4892C52.1754 34.5253 52.0752 34.5469 51.9751 34.5686C52.0865 33.6129 52.1198 32.6369 52.3577 31.7141C52.4277 31.4425 53.0773 31.3217 53.5305 31.0806Z"
    fill="#F4C6BD" />
  <path
    d="M51.491 36.8187C51.4886 36.9301 51.3504 37.0236 51.0197 37.1191C50.511 37.2107 50.1947 37.3003 49.8784 37.3898C49.7523 37.3903 49.6261 37.3909 49.3526 37.3234C49.0412 37.2206 48.8771 37.1859 48.713 37.1513C48.5891 37.1466 48.4653 37.142 48.164 37.136C47.8513 37.2208 47.7162 37.3069 47.581 37.3931C46.5993 37.3073 45.6175 37.2215 44.5136 37.1326C44.3038 37.0846 44.216 37.0396 44.0925 36.9266C44.2044 36.8421 44.3521 36.8258 44.6095 36.7898C46.9313 36.7804 49.1432 36.7906 51.491 36.8187Z"
    fill="#C9B77B" />
  <path
    d="M53.9767 24.9026C53.6318 24.8462 53.2869 24.7898 52.8738 24.7028C52.6027 24.4458 52.3996 24.2193 52.1915 23.8993C52.1864 23.8058 52.1873 23.8044 52.1873 23.8044C52.3355 23.636 52.4837 23.4676 52.7074 23.2593C52.9957 23.3196 53.2085 23.4199 53.511 23.5282C53.6007 23.5363 53.6005 23.5435 53.6207 23.6436C53.7528 24.13 53.8648 24.5163 53.9767 24.9026Z"
    fill="#EEB6AD" />
  <path
    d="M51.9686 34.5666C52.0753 34.547 52.1755 34.5253 52.3695 34.6079C52.5626 35.3205 52.662 35.9289 52.7186 36.546C52.6758 36.5546 52.5897 36.5399 52.4806 36.546C52.2995 36.5644 52.2276 36.5765 52.1557 36.5887C51.9911 36.3492 51.8266 36.1097 51.7222 35.7135C51.8437 35.2221 51.905 34.8874 51.9663 34.5527C51.9663 34.5527 51.962 34.5645 51.9686 34.5666Z"
    fill="#C24B43" />
  <path
    d="M52.1508 36.6457C52.2276 36.5764 52.2995 36.5643 52.4821 36.5832C52.6272 36.6568 52.6716 36.6764 52.7946 36.7538C52.9465 36.9474 53.0299 37.0601 53.0771 37.2379C53.0072 37.3391 52.9734 37.3753 52.9396 37.4115C52.692 37.2753 52.4444 37.1391 52.1781 36.9097C52.1593 36.8165 52.1459 36.7027 52.1508 36.6457Z"
    fill="#DDB967" />
  <path
    d="M52.519 29.3235C52.7841 29.4748 53.0288 29.739 53.3047 30.0875C53.0568 29.9267 52.7777 29.6815 52.519 29.3235Z"
    fill="#F4C6BD" />
  <path
    d="M51.8668 34.5942C51.905 34.8873 51.8436 35.222 51.7052 35.626C51.6745 35.3421 51.7209 34.989 51.8668 34.5942Z"
    fill="#F4C6BD" />
  <path
    d="M52.9549 21.5415C53.0032 21.6593 52.9815 21.838 52.8889 22.0765C52.8403 21.9584 52.8626 21.7804 52.9549 21.5415Z"
    fill="#EEB6AD" />
  <path
    d="M52.1857 23.8066C52.0628 23.7711 51.9406 23.7349 51.8185 23.6988C51.919 23.6943 52.0196 23.6898 52.1538 23.7449C52.1874 23.8045 52.1865 23.8058 52.1857 23.8066Z"
    fill="#EEB6AD" />
  <path d="M52.3201 30.5906C52.3421 30.5762 52.2981 30.6049 52.3201 30.5906V30.5906Z" fill="#F4C6BD" />
  <path
    d="M53.3563 30.2397C53.4168 30.2267 53.4937 30.2784 53.5697 30.4043C53.4816 30.4452 53.4163 30.3872 53.3563 30.2397Z"
    fill="#F4C6BD" />
  <path
    d="M47.6091 45.2483C47.8036 45.2579 47.9981 45.2675 48.3876 45.3461C50.1349 45.4529 51.6872 45.4907 53.3241 45.6149C53.4658 46.3765 53.5334 47.0511 53.5762 47.7273C53.6029 48.1489 53.5924 48.5729 53.5985 48.9959C53.706 49.1477 53.8135 49.2996 53.9878 49.5483C54.0782 49.7299 54.1338 49.7742 54.2215 49.778C54.2647 50.0856 54.3079 50.3933 54.28 50.8855C54.0626 51.7824 54.0404 52.3939 55.0757 52.1471C55.7467 52.1204 56.4177 52.0937 57.3175 52.0609C58.2535 51.8875 58.9607 51.7202 59.6679 51.5529C59.8861 51.557 60.1043 51.5611 60.4934 51.6051C60.7118 51.6378 60.7594 51.6305 60.807 51.6232C60.9527 51.6742 61.0983 51.7252 61.414 51.8281C61.7201 51.8564 61.8561 51.8328 61.9921 51.8092C62.1164 51.8193 62.2407 51.8295 62.5582 51.8648C63.2124 51.7421 63.6734 51.5943 64.1344 51.4465C64.1344 51.4465 64.234 51.4329 64.3659 51.404C64.6614 51.2982 64.8251 51.2213 64.9888 51.1443C65.0903 51.1286 65.1917 51.1129 65.4638 51.1163C66.7009 51.2436 67.7718 51.3702 68.5816 50.4166C68.7185 50.4127 68.8554 50.4088 69.1457 50.4628C69.5554 50.5308 69.8118 50.541 70.0681 50.5511C70.1931 50.5399 70.318 50.5287 70.6068 50.5271C71.1084 50.486 71.4461 50.4353 71.7838 50.3847C71.9081 50.3847 72.0324 50.3847 72.3426 50.3997C72.7566 50.3051 72.9845 50.1955 73.2125 50.0859C73.3488 50.0581 73.4851 50.0302 73.7609 49.9917C73.992 49.9821 74.0507 49.9385 74.0766 49.8502C74.2872 49.8289 74.4978 49.8076 74.9063 49.7692C76.6417 50.039 77.8131 49.3172 78.8997 48.3622C78.9592 48.3538 79.0187 48.3454 79.166 48.3161C79.6311 48.8444 80.0085 49.3935 80.4371 50.1305C80.6506 50.557 80.813 50.7956 80.9754 51.0342C80.9754 51.0342 80.9998 51.0278 81.0124 51.0976C81.1133 51.2044 81.2017 51.2414 81.2901 51.2784C81.3632 51.341 81.4363 51.4037 81.5552 51.5226C81.8393 51.9332 82.0776 52.2876 82.3944 52.7989C82.4668 53.186 82.4607 53.4161 82.4055 53.6598C82.3386 53.7021 82.3003 53.75 82.3062 53.7564C82.3485 53.802 82.3998 53.8391 82.4445 53.8861C82.4406 53.8934 82.4565 53.8978 82.4565 53.8978C82.3183 54.0748 82.18 54.2519 81.953 54.4508C80.2997 55.1437 78.7516 55.8578 77.1652 56.4719C75.9166 56.9552 74.6206 57.315 73.2759 57.8107C71.7997 58.0012 70.3924 58.0992 68.9875 58.2246C68.1931 58.2954 67.4028 58.4111 66.44 58.6309C65.8223 58.8225 65.3751 58.8898 64.928 58.9571C62.4325 58.0526 60.0279 58.799 57.4969 59.3771C56.635 59.0249 55.8893 58.6591 55.0531 58.3421C54.8832 58.3833 54.8036 58.3795 54.5902 58.3333C54.2749 58.2809 54.0934 58.2747 53.9118 58.2684C53.2108 58.172 52.5097 58.0755 51.6724 57.9318C51.5362 57.8846 51.4572 57.8562 51.4572 57.8562L51.3955 57.9133C51.2566 57.8549 51.1177 57.7965 50.8661 57.7292C49.6681 57.9112 48.5828 58.102 47.3944 58.3426C45.4254 58.2395 43.5579 58.1041 41.695 57.9216C41.2365 57.8766 40.7988 57.6484 40.3411 57.5569C39.388 57.3662 38.4278 57.2107 37.3225 56.9478C36.5161 56.7786 35.8579 56.7023 35.1997 56.6259C34.878 56.7107 34.5562 56.7956 34.0846 56.9186C33.855 56.9768 33.8214 57.0278 33.834 57.1096C33.7696 57.1255 33.7051 57.1414 33.4765 57.1721C33.2678 57.2098 33.2233 57.2329 33.1788 57.2559C31.811 56.7947 30.4509 56.3077 29.07 55.8901C28.7156 55.7829 28.2956 55.8945 27.8003 55.9329C26.9527 55.8373 26.2105 55.7142 25.3159 55.5098C25.053 55.3838 24.9426 55.3393 24.8321 55.2948C24.6861 55.2323 24.5402 55.1698 24.2443 55.0879C24.0475 55.0826 24.0005 55.0966 23.9535 55.1107C23.821 55.1095 23.6884 55.1083 23.4663 55.1527C22.7361 55.1084 22.0954 55.0186 21.3621 54.8517C20.4047 53.8719 19.4645 53.3387 18.166 53.9245C17.8175 54.0817 17.3521 53.9777 16.8377 53.9961C15.6586 53.6915 14.5821 53.3846 13.2825 53.0614C12.764 53.1012 12.4684 53.1573 12.1728 53.2133C12.1347 53.1768 12.0966 53.1402 12.0118 53.0146C11.9472 52.8546 11.9025 52.8114 11.8311 52.796C11.8008 52.7039 11.7706 52.6118 11.6602 52.3956C11.4933 52.2157 11.4065 52.1601 11.3197 52.1045C11.3198 52.1045 11.2871 52.1507 11.2788 52.0573C11.1758 51.9209 11.0811 51.878 10.9865 51.835C10.8761 51.7926 10.7658 51.7501 10.5669 51.7005C10.4783 51.6934 10.3875 51.6243 10.3272 51.5554C10.2327 51.4197 10.1783 51.3824 10.1039 51.3746C10.133 49.8148 10.1622 48.2549 10.2764 46.5246C10.7754 46.2096 11.1894 46.065 11.6033 45.9204C11.7236 45.9535 11.8438 45.9867 12.1294 46.1032C13.4913 46.4357 14.6879 46.6849 15.9521 47.0141C16.5219 47.3366 17.0012 47.6653 17.5301 47.8068C20.1584 48.5102 22.787 49.2224 25.4429 49.806C26.452 50.0277 27.5342 49.9139 28.583 49.953C28.7049 49.9883 28.8267 50.0236 29.1215 50.128C30.1118 50.5436 30.9292 50.8903 31.7466 51.2369C31.8689 51.2433 31.9912 51.2498 32.3014 51.2776C33.873 51.9515 35.2322 52.7045 36.8569 52.1196C37.0521 52.0493 37.3195 52.1941 37.5554 52.2229C39.8142 52.4981 42.0733 52.7697 44.3499 53.0445C44.195 52.0759 44.0681 51.2825 43.9412 50.489C44.0223 50.4407 44.0768 50.3714 44.2145 50.1885C44.291 49.2694 44.2578 48.4428 44.2245 47.6162C44.2245 47.6162 44.1331 47.607 44.2717 47.5932C44.9065 46.9754 44.9868 46.3798 44.4073 45.6903C45.0008 45.5015 45.5595 45.405 46.122 45.3445C46.6155 45.2915 47.1133 45.2788 47.6091 45.2483Z"
    fill="#EFE8DF" />
  <path
    d="M43.578 44.009C43.6566 44.1706 43.7351 44.3322 43.8344 44.5848C41.788 44.5431 39.6628 44.673 37.6652 44.2266C32.5587 43.0852 27.5095 41.685 22.4362 40.3932C21.0586 40.0424 19.6768 39.7085 18.2366 39.181C18.1793 38.8507 18.1823 38.7063 18.1881 38.4905C18.1909 38.419 18.1967 38.2761 18.3014 38.2754C18.6156 38.2754 18.825 38.2761 19.0344 38.2769C19.0344 38.2769 19.0471 38.2803 19.0978 38.3515C19.2992 38.471 19.4498 38.5193 19.6005 38.5676C21.5508 39.0432 23.5012 39.5188 25.5507 40.0954C25.543 40.3964 25.4361 40.5964 25.2958 40.859C26.2083 41.1584 27.096 41.4495 28.0961 41.7572C29.2119 42.0434 30.203 42.4352 31.2229 42.5379C31.853 42.6013 32.527 42.2244 33.1813 42.0452C33.3198 42.1228 33.4583 42.2005 33.7308 42.3884C35.3839 44.0876 37.5372 43.4201 39.3549 43.98C40.6443 44.3772 42.1621 44.0261 43.578 44.009Z"
    fill="#3A0706" />
  <path
    d="M43.8415 50.5017C44.0681 51.2826 44.195 52.076 44.3499 53.0446C42.0733 52.7699 39.8141 52.4982 37.5554 52.223C37.3195 52.1943 37.0521 52.0494 36.8569 52.1197C35.2322 52.7046 33.873 51.9516 32.3909 51.255C32.8661 51.204 33.4449 51.1455 34.012 51.2031C34.7478 51.278 35.4711 51.471 36.2059 51.5644C36.7536 51.6341 37.3513 51.5069 37.8559 51.6781C38.9088 52.0354 39.841 52.5732 40.615 51.1316C40.8709 50.6549 41.7364 50.2977 42.168 51.3423C42.3076 51.6803 42.6869 51.9183 43.0169 52.2655C43.3161 51.5427 43.5289 51.0285 43.8415 50.5017Z"
    fill="#C54E45" />
  <path
    d="M28.5312 49.8623C27.5342 49.9138 26.452 50.0277 25.4429 49.8059C22.7871 49.2223 20.1584 48.5101 17.5302 47.8068C17.0012 47.6652 16.522 47.3365 15.9532 46.945C15.8866 46.796 15.8865 46.658 15.8865 46.658C17.6102 47.1316 19.3241 47.6453 21.0599 48.0693C23.5246 48.6714 26.0054 49.2074 28.5312 49.8623Z"
    fill="#C54E45" />
  <path
    d="M18.1854 38.5619C18.1823 38.7064 18.1793 38.8507 18.1674 39.1037C16.8744 38.8412 15.5902 38.4701 14.2795 37.9554C14.5135 37.5726 14.774 37.3334 15.0344 37.0942C15.1585 37.0983 15.2827 37.1024 15.5483 37.1827C15.8539 37.3026 16.0181 37.3463 16.1823 37.39C16.43 37.4413 16.6778 37.4925 16.883 37.6201C16.7493 37.8993 16.6581 38.1022 16.5669 38.3052C17.1064 38.3907 17.6459 38.4763 18.1854 38.5619Z"
    fill="#3E0B0A" />
  <path
    d="M15.8092 46.5837C15.8865 46.658 15.8866 46.796 15.8856 46.865C14.6879 46.6848 13.4913 46.4356 12.2227 46.1099C13.3444 46.192 14.5382 46.3508 15.8092 46.5837Z"
    fill="#C4615B" />
  <path
    d="M47.4953 45.224C47.1133 45.2788 46.6155 45.2915 46.122 45.3446C45.5595 45.405 45.0008 45.5015 44.3452 45.6886C44.2499 45.7948 44.1261 45.7806 44.1261 45.7806C44.1204 45.4787 44.1147 45.1768 44.1129 44.7617C45.205 44.8323 46.2932 45.016 47.4953 45.224Z"
    fill="#E4CA7B" />
  <path
    d="M44.1254 47.6353C44.2578 48.4427 44.2911 49.2694 44.2293 50.1226C44.0982 49.3176 44.0622 48.486 44.1254 47.6353Z"
    fill="#C54E45" />
  <path
    d="M31.7237 51.1412C30.9293 50.8904 30.1118 50.5437 29.2168 50.1309C29.993 50.3915 30.8469 50.7184 31.7237 51.1412Z"
    fill="#C54E45" />
  <path
    d="M15.0159 37.0048C14.774 37.3333 14.5135 37.5725 14.2135 37.8734C13.9199 37.9143 13.6658 37.8935 13.3447 37.7255C13.2798 37.5195 13.2819 37.4606 13.2839 37.4018C13.4514 37.2512 13.6189 37.1006 13.8303 36.8751C14.2486 36.8387 14.623 36.8771 15.0159 37.0048Z"
    fill="#250506" />
  <path
    d="M44.1227 45.912C44.126 45.7805 44.2499 45.7947 44.312 45.7965C44.9867 46.3797 44.9065 46.9752 44.3164 47.6036C44.1881 47.0998 44.1537 46.5717 44.1227 45.912Z"
    fill="#C54E45" />
  <path
    d="M11.6073 45.8807C11.1894 46.0651 10.7755 46.2097 10.2648 46.4068C10.5611 46.2374 10.9542 46.0155 11.4668 45.7793C11.5863 45.7652 11.6113 45.841 11.6073 45.8807Z"
    fill="#C4615B" />
  <path
    d="M13.1788 37.4009C13.2819 37.4606 13.2798 37.5195 13.2678 37.6665C12.9531 37.7265 12.6485 37.6985 12.2252 37.609C12.1066 37.5476 12.0907 37.4332 12.0907 37.4332C12.1501 37.4198 12.2094 37.4065 12.3575 37.3706C12.6554 37.3654 12.8645 37.3827 13.1788 37.4009Z"
    fill="#3E0B0A" />
  <path
    d="M10.5249 37.2307C10.6296 37.1934 10.79 37.2166 11.012 37.2974C10.9093 37.3338 10.7449 37.3124 10.5249 37.2307Z"
    fill="#C4615B" />
  <path
    d="M12.0112 37.434C12.0907 37.4332 12.1066 37.5477 12.1102 37.6049C11.9749 37.6251 11.8359 37.5881 11.6569 37.4909C11.7217 37.4321 11.8267 37.4334 12.0112 37.434Z"
    fill="#C4615B" />
  <path
    d="M78.7892 48.3623C77.8131 49.3173 76.6417 50.0391 75.0049 49.7293C75.1713 49.4757 75.4029 49.1241 75.7091 49.0368C76.6841 48.7591 77.6868 48.5797 78.7892 48.3623Z"
    fill="#CA615C" />
  <path
    d="M53.6796 48.9181C53.5924 48.5729 53.6029 48.1489 53.5762 47.7273C53.5334 47.0511 53.4659 46.3765 53.3456 45.5669C53.2825 45.4327 53.3251 45.3366 53.3251 45.3366C53.5362 45.3252 53.7474 45.3138 54.063 45.3212C54.0318 46.5068 53.8962 47.6735 53.6796 48.9181Z"
    fill="#CA615C" />
  <path
    d="M68.4621 50.4067C67.7718 51.3701 66.7009 51.2436 65.5364 51.0896C66.4064 50.8282 67.3746 50.6126 68.4621 50.4067Z"
    fill="#CA615C" />
  <path
    d="M59.5998 51.4854C58.9607 51.7203 58.2535 51.8876 57.437 52.0245C58.0624 51.8019 58.7971 51.6098 59.5998 51.4854Z"
    fill="#CA615C" />
  <path
    d="M55.0239 52.0584C54.0404 52.394 54.0626 51.7825 54.2826 50.98C54.5614 51.2497 54.7667 51.6096 55.0239 52.0584Z"
    fill="#CA615C" />
  <path
    d="M64.0302 51.4026C63.6735 51.5944 63.2125 51.7422 62.651 51.8513C63.009 51.6613 63.4674 51.51 64.0302 51.4026Z"
    fill="#CA615C" />
  <path
    d="M70.0319 50.4633C69.8118 50.5409 69.5555 50.5308 69.2482 50.4547C69.4634 50.3844 69.7295 50.38 70.0319 50.4633Z"
    fill="#CA615C" />
  <path
    d="M73.1634 50.0251C72.9846 50.1954 72.7566 50.305 72.4343 50.3812C72.5981 50.2201 72.8562 50.0923 73.1634 50.0251Z"
    fill="#CA615C" />
  <path
    d="M71.7173 50.3157C71.4461 50.4354 71.1084 50.4861 70.697 50.4992C70.9658 50.3899 71.3083 50.3183 71.7173 50.3157Z"
    fill="#CA615C" />
  <path
    d="M64.8907 51.1072C64.8251 51.2214 64.6614 51.2983 64.4056 51.3733C64.4733 51.2708 64.633 51.1704 64.8907 51.1072Z"
    fill="#CA615C" />
  <path
    d="M61.9497 51.7503C61.8561 51.8328 61.7201 51.8564 61.4921 51.8272C61.5691 51.7467 61.7382 51.7191 61.9497 51.7503Z"
    fill="#CA615C" />
  <path
    d="M54.2205 49.7281C54.1338 49.7743 54.0782 49.73 54.0713 49.5908C54.1541 49.5629 54.1979 49.6101 54.2205 49.7281Z"
    fill="#CA615C" />
  <path
    d="M74.0288 49.8363C74.0507 49.9386 73.992 49.9823 73.8546 49.9448C73.8523 49.8517 73.9098 49.823 74.0288 49.8363Z"
    fill="#CA615C" />
  <path
    d="M60.797 51.5693C60.7595 51.6305 60.7119 51.6377 60.6025 51.6073C60.6228 51.5516 60.7048 51.5334 60.797 51.5693Z"
    fill="#CA615C" />
  <path
    d="M43.5759 43.8967C42.1621 44.026 40.6442 44.3771 39.3548 43.9799C37.5371 43.42 35.3839 44.0875 33.8041 42.4191C34.0916 42.1429 34.487 41.7239 34.7797 41.7869C36.2628 42.1058 37.7633 42.4369 39.1696 42.9897C40.1182 43.3625 42.5117 43.2159 42.9977 42.3379C43.1999 42.7355 43.3869 43.26 43.5759 43.8967Z"
    fill="#140404" />
  <path
    d="M33.0704 42.0295C32.527 42.2244 31.853 42.6012 31.2229 42.5378C30.203 42.4352 29.2119 42.0433 28.1171 41.6511C28.4927 41.4084 28.96 41.2882 29.4273 41.168C30.7352 40.9001 31.7548 41.8468 33.0704 42.0295Z"
    fill="#120101" />
  <path
    d="M29.3588 41.0873C28.96 41.2883 28.4927 41.4085 28.0045 41.6347C27.0959 41.4496 26.2083 41.1584 25.2958 40.8591C25.4361 40.5965 25.543 40.3965 25.6577 40.1086C26.8738 40.3493 28.0821 40.6779 29.3588 41.0873Z"
    fill="#190606" />
  <path
    d="M18.1881 38.4905C17.6459 38.4764 17.1064 38.3908 16.5669 38.3052C16.6581 38.1022 16.7494 37.8993 16.9431 37.6951C17.3641 37.7618 17.6825 37.8298 18.0944 38.0141C18.1908 38.179 18.1937 38.2276 18.1967 38.2762C18.1967 38.2762 18.1909 38.4191 18.1881 38.4905Z"
    fill="#250506" />
  <path
    d="M22.6999 34.801C23.1409 34.9297 23.4988 35.0655 23.9031 35.2897C23.4456 35.2824 22.9417 35.1867 22.3269 35.0804C22.3496 34.9826 22.4832 34.8954 22.6999 34.801Z"
    fill="#2B0E12" />
  <path
    d="M19.4476 34.2102C19.5765 33.3398 19.9815 33.6272 20.448 34.1381C20.1816 34.2239 19.8725 34.2215 19.4476 34.2102Z"
    fill="#2B0E12" />
  <path
    d="M16.1693 37.3073C16.0181 37.3462 15.8539 37.3024 15.6414 37.1858C15.7807 37.1501 15.9685 37.1874 16.1693 37.3073Z"
    fill="#250506" />
  <path
    d="M18.3014 38.2755C18.1937 38.2276 18.1908 38.179 18.1842 38.0574C18.4282 38.0302 18.6759 38.0759 18.979 38.1993C18.8249 38.2762 18.6156 38.2755 18.3014 38.2755Z"
    fill="#3E0B0A" />
  <path
    d="M20.5469 34.3026C20.7396 34.2735 20.9899 34.3219 21.2943 34.4518C21.1004 34.4822 20.8524 34.4312 20.5469 34.3026Z"
    fill="#2B0E12" />
  <path
    d="M19.5619 38.4939C19.4498 38.5193 19.2992 38.471 19.1019 38.3567C19.2113 38.3339 19.3673 38.377 19.5619 38.4939Z"
    fill="#3E0B0A" />
  <path
    d="M52.7614 36.5373C52.662 35.9289 52.5626 35.3206 52.4458 34.5935C52.4283 34.4749 52.4432 34.4829 52.5195 34.4498C52.6481 34.2507 52.7004 34.0847 52.7526 33.9187C52.7526 33.9187 52.7745 33.7898 52.8919 33.7118C53.2203 33.1554 53.4314 32.6769 53.6424 32.1984C53.6614 32.0742 53.6803 31.95 53.7283 31.736C53.8811 31.1403 54.2731 30.3654 54.0831 30.1742C53.1886 29.2744 53.4284 28.4281 53.8918 27.4923C53.969 27.3365 53.9132 27.1142 53.9109 26.8045C53.9029 26.6863 53.9064 26.6947 54.0155 26.6703C54.8229 25.2312 54.655 24.2378 53.6005 23.5437C53.6005 23.5437 53.6008 23.5365 53.5991 23.5398C53.6474 22.8593 53.6933 22.1751 53.7486 21.4916C53.7948 20.9205 53.938 20.3427 53.889 19.781C53.6941 17.5481 54.9219 16.1709 57.0927 16.2589C57.1886 16.2628 57.3003 16.2914 57.3784 16.2538C59.3575 15.3011 61.3372 14.3492 63.3066 13.3765C63.8107 13.1276 64.2662 12.7791 64.7708 12.5313C65.1957 12.3227 65.6944 12.2546 66.0998 12.0189C67.767 11.0494 69.3036 9.68638 71.0919 9.13728C73.1753 8.49758 74.5756 6.91468 76.4362 6.11768C77.172 5.80248 78.474 6.16518 79.2278 6.66278C82.1941 8.62118 85.079 10.702 87.111 13.7479C88.3104 15.5457 89.6504 17.2488 91.0259 19.1293C88.9341 20.013 87.1416 20.7703 85.2088 21.6503C84.9278 22.1049 84.7871 22.4368 84.6275 22.7886C84.6087 22.8085 84.563 22.8386 84.4613 22.7928C83.162 23.4402 83.0293 24.0595 83.8207 25.3778C83.8189 25.7027 83.8155 25.9193 83.7543 26.1902C83.8544 26.3951 84.0121 26.5458 84.2383 26.7218C84.3525 26.7639 84.3982 26.7806 84.4439 26.7973C84.4347 27.0128 84.4256 27.2282 84.4459 27.5101C84.1881 28.0593 83.8656 28.5251 83.6236 29.0298C83.3949 29.5068 83.2507 30.0247 82.9869 30.715C80.1239 31.8965 77.4005 33.1245 74.5486 33.8209C70.7194 34.7559 66.7908 35.2802 62.8053 35.9764C62.472 36.0491 62.2381 36.1263 61.9116 36.2321C61.6903 36.2692 61.5617 36.2776 61.3619 36.2038C60.3761 36.2494 59.4615 36.3772 58.4411 36.5294C58.1186 36.5586 57.902 36.5634 57.6109 36.486C55.9456 36.4492 54.3548 36.4946 52.7634 36.5393C52.7628 36.5386 52.7614 36.5373 52.7614 36.5373Z"
    fill="#D2271C" />
  <path
    d="M84.5445 26.748C84.3982 26.7806 84.3525 26.7639 84.2276 26.6339C84.0363 26.3923 83.9242 26.2641 83.812 26.1359C83.8155 25.9193 83.8189 25.7028 83.857 25.2652C84.1154 24.309 84.3392 23.5738 84.563 22.8386C84.563 22.8386 84.6087 22.8085 84.7146 22.7683C85.1069 22.4259 85.3932 22.1236 85.6795 21.8213C87.06 21.3132 88.4328 20.7823 89.824 20.3056C90.6533 20.0215 92.7186 20.866 92.6057 21.5287C92.451 22.4368 91.9239 23.4763 91.2238 24.0501C90.1479 24.9319 88.7891 25.4656 87.36 26.1618C86.9003 26.331 86.6309 26.4855 86.3615 26.64L86.2304 26.6109C86.2304 26.6109 86.0962 26.6187 85.9828 26.6058C85.7565 26.6145 85.6437 26.6361 85.5308 26.6577C85.2356 26.6713 84.9404 26.685 84.5445 26.748Z"
    fill="#F2E4DB" />
  <path
    d="M85.5819 21.7921C85.3931 22.1234 85.1068 22.4257 84.7334 22.7483C84.787 22.4366 84.9277 22.1047 85.1767 21.7476C85.3515 21.736 85.4179 21.7495 85.5819 21.7921Z"
    fill="#CC6058" />
  <path
    d="M86.4661 26.6584C86.6309 26.4853 86.9002 26.3308 87.2614 26.1997C87.0923 26.3744 86.8315 26.5257 86.4661 26.6584Z"
    fill="#CC6058" />
  <path
    d="M85.6401 26.6716C85.6435 26.636 85.7564 26.6144 85.9191 26.6273C85.8958 26.6698 85.8227 26.6778 85.6401 26.6716Z"
    fill="#CC6058" />
  <path d="M67.323 64.7057C66.7976 63.648 66.891 62.8194 67.9175 62.2385C68.914 63.5356 68.7473 64.2866 67.323 64.7057Z"
    fill="#C2C3C1" />
  <path
    d="M24.5038 63.7902C24.2947 62.8212 24.0856 61.8522 23.8347 60.6897C25.5559 61.2194 25.789 61.8992 25.1667 63.7408C24.898 63.754 24.7009 63.7721 24.5038 63.7902Z"
    fill="#C9CAC7" />
  <path
    d="M24.5082 63.8699C24.7009 63.7722 24.898 63.754 25.0911 63.816C24.8956 63.914 24.7041 63.9318 24.5082 63.8699Z"
    fill="#343433" />
  <path
    d="M53.7783 41.9914C53.7873 41.7003 53.7962 41.4092 53.9144 40.9488C54.0237 40.0953 54.0237 39.4111 54.0237 38.8349C56.5237 38.5445 58.9131 38.2126 61.3134 38.016C62.213 37.9423 62.3291 37.521 62.3486 36.784C62.8601 36.7662 63.2856 36.7808 63.7314 36.9084C64.8104 37.1563 65.8691 37.2911 67.0334 37.4392C67.0882 36.9474 67.1285 36.5852 67.2668 36.2244C67.4953 36.2258 67.6259 36.226 67.7548 36.3336C68.0787 36.5765 68.5371 36.9167 68.7041 36.8074C69.1243 36.5327 69.4128 36.0551 69.8402 35.6229C70.1612 35.5161 70.3961 35.4452 70.6297 35.4802C70.5924 36.9647 71.4924 36.052 71.9809 36.1413C72.6758 36.2683 73.3958 36.3163 74.0578 36.5394C74.3742 36.646 74.5818 37.0779 74.8387 37.3624C75.1053 37.0156 75.4301 36.6985 75.6245 36.3148C75.8982 35.7745 75.773 34.8826 76.7967 35.2424C77.1895 35.6238 77.7227 36.2179 77.9862 36.1151C78.8191 35.7901 80.234 35.9233 80.042 34.2717C80.3318 33.8387 80.5233 33.4549 80.7134 33.0685C80.7118 33.0658 80.7169 33.0692 80.7851 33.0695C80.8532 33.0698 80.9895 33.0686 81.0334 33.1351C81.2489 33.1566 81.4205 33.1116 81.6748 33.0621C81.8892 32.9707 82.0208 32.8839 82.2252 32.7908C82.3466 32.7824 82.3952 32.7803 82.5058 32.7486C82.6456 32.6639 82.6988 32.5907 82.8206 32.5078C83.0426 32.7026 83.1714 32.8891 83.3002 33.0756C83.3006 33.5692 83.3009 34.0628 83.3032 34.7761C83.3039 35.1243 83.3025 35.2529 83.3012 35.3814C83.1085 35.8652 82.9766 36.3874 82.7047 36.8212C82.4723 37.192 82.0794 37.4614 81.5678 37.7528C81.2545 38.007 81.1307 38.284 81.007 38.561C81.0053 38.6926 81.0036 38.8242 81.0009 39.0546C80.8715 39.1523 80.7431 39.151 80.4556 39.0706C79.2676 39.2354 78.2324 39.4557 77.2127 39.7335C76.7294 39.8651 76.2758 40.1065 75.8088 40.2982C74.3004 40.6572 72.7919 41.0163 71.208 41.3933C70.8703 42.8056 69.7169 43.3854 68.3121 42.7378C68.1736 42.674 67.9466 42.8322 67.7578 42.8453C65.885 42.976 64.0093 43.0724 62.1413 43.2517C61.8875 43.276 61.672 43.7021 61.4387 43.9422C61.5358 44.0629 61.6329 44.1836 61.73 44.3044C61.404 44.3205 61.078 44.3366 60.6213 44.2395C59.5606 43.9646 58.6283 43.6688 57.7017 43.6856C57.0123 43.6982 56.3302 44.1159 55.6449 44.3532C55.4284 44.3527 55.2118 44.3523 54.8446 44.2534C54.3887 43.4338 54.0835 42.7126 53.7783 41.9914ZM69.4051 42.1722C69.5182 42.2093 69.6299 42.2525 69.7455 42.2783C69.7685 42.2834 69.8063 42.2217 69.8373 42.1908C69.7242 42.1538 69.6111 42.1168 69.4051 42.1722Z"
    fill="#040102" />
  <path
    d="M55.7216 44.4356C56.3302 44.116 57.0123 43.6983 57.7016 43.6857C58.6283 43.6689 59.5606 43.9647 60.5149 44.2395C58.9589 44.4077 57.3785 44.4627 55.7216 44.4356Z"
    fill="#140705" />
  <path
    d="M75.9409 40.2994C76.2759 40.1066 76.7295 39.8652 77.2127 39.7336C78.2324 39.4558 79.2676 39.2355 80.3594 39.0715C79.2633 40.6445 77.6091 40.2472 75.9409 40.2994Z"
    fill="#120B0C" />
  <path
    d="M53.2216 45.3027C53.3251 45.3366 53.2825 45.4326 53.261 45.4806C51.6873 45.4907 50.135 45.4528 48.4849 45.3394C49.7808 45.0664 51.1746 44.869 52.682 44.6665C52.9031 44.864 53.0106 45.0664 53.2216 45.3027Z"
    fill="#E4CA7B" />
  <path
    d="M53.7134 42.0835C54.0835 42.7127 54.3887 43.4339 54.7363 44.2539C54.4467 44.1954 54.1147 44.038 53.709 43.8282C53.6397 43.2423 53.6441 42.7089 53.7134 42.0835Z"
    fill="#140705" />
  <path
    d="M4.99902 21.5356C5.48597 21.4934 6.0204 21.5369 6.5419 21.6828C6.4779 21.7885 6.4267 21.7916 6.3755 21.7947C6.2471 21.7901 6.1187 21.7854 5.89398 21.7845C5.54727 21.7326 5.29687 21.6769 4.99902 21.5356Z"
    fill="#CA6962" />
  <path
    d="M3.51404 20.3935C3.54044 20.3417 3.5905 20.3352 3.71118 20.3561C3.70043 20.402 3.61906 20.4204 3.51404 20.3935Z"
    fill="#CA6962" />
  <path
    d="M64.891 59.0583C65.3752 58.8898 65.8223 58.8225 66.378 58.728C66.7587 58.7471 67.0309 58.7934 67.4416 58.8363C66.7334 59.2144 65.9172 59.7118 65.032 59.9476C63.972 60.2299 62.8531 60.2887 61.7202 60.3353C62.7385 59.8707 63.7963 59.5151 64.891 59.0583Z"
    fill="#421E19" />
  <path
    d="M70.6311 35.3743C70.3962 35.4453 70.1613 35.5162 69.729 35.623C68.94 35.848 68.3483 36.0371 67.7566 36.2262C67.626 36.2261 67.4954 36.2259 67.1961 36.1559C65.9221 36.3225 64.8166 36.5589 63.7112 36.7953C63.2857 36.7808 62.8602 36.7663 62.2245 36.7848C60.0759 36.8427 58.1375 36.8676 56.307 36.8582C56.8384 36.7385 57.2618 36.6533 57.6853 36.5681C57.902 36.5633 58.1186 36.5585 58.5666 36.5413C59.6762 36.4479 60.5547 36.3669 61.4331 36.2859C61.5617 36.2775 61.6903 36.2691 62.0069 36.2406C62.4316 36.1406 62.6682 36.0606 62.9049 35.9807C66.7908 35.2801 70.7194 34.7558 74.5486 33.8208C77.4006 33.1244 80.1239 31.8964 82.958 30.8178C83.1466 30.7303 83.2817 30.7303 83.5167 30.7496C83.609 30.8899 83.6014 31.0108 83.4869 31.2369C82.4923 31.9178 81.6047 32.4935 80.717 33.0692C80.717 33.0692 80.7119 33.0659 80.5895 33.066C79.6114 33.3101 78.7647 33.5942 77.8983 33.7904C75.4803 34.3378 73.054 34.8489 70.6311 35.3743Z"
    fill="#3D0A08" />
  <path
    d="M80.7852 33.0696C81.6047 32.4935 82.4923 31.9178 83.4829 31.3276C83.5883 31.5358 83.5909 31.7584 83.4946 32.0909C83.173 32.3005 82.9503 32.4 82.7275 32.4996C82.6989 32.5908 82.6457 32.664 82.4784 32.6986C82.3102 32.7178 82.2314 32.7575 82.1526 32.7973C82.0209 32.884 81.8893 32.9708 81.5743 33.0615C81.2572 33.0665 81.1234 33.0676 80.9896 33.0687C80.9896 33.0687 80.8533 33.0699 80.7852 33.0696Z"
    fill="#140705" />
  <path
    d="M81.105 38.5463C81.1307 38.2843 81.2545 38.0073 81.477 37.7168C81.4516 37.9793 81.3273 38.2553 81.105 38.5463Z"
    fill="#200403" />
  <path
    d="M82.8207 32.5078C82.9502 32.4 83.173 32.3004 83.4939 32.2019C83.5462 32.4542 83.5003 32.7055 83.3774 33.0162C83.1715 32.8891 83.0427 32.7026 82.8207 32.5078Z"
    fill="#221314" />
  <path
    d="M83.367 35.3402C83.3026 35.253 83.3039 35.1245 83.3055 34.8997C83.3481 34.9685 83.3904 35.1336 83.367 35.3402Z"
    fill="#221314" />
  <path
    d="M35.1905 56.7519C35.8579 56.7023 36.5161 56.7787 37.219 56.9535C36.8757 57.1741 36.4878 57.2963 36.0797 57.5219C35.8373 57.6419 35.6153 57.6585 35.284 57.6513C35.177 57.3777 35.1792 57.1278 35.1905 56.7519Z"
    fill="#CC756D" />
  <path
    d="M12.2463 53.2543C12.4683 53.1573 12.7639 53.1012 13.171 53.0706C12.9616 53.1624 12.6408 53.2288 12.2463 53.2543Z"
    fill="#CD6560" />
  <path
    d="M11.0189 51.9083C11.0811 51.878 11.1758 51.921 11.3003 52.0391C11.2373 52.07 11.1443 52.0257 11.0189 51.9083Z"
    fill="#CD6560" />
  <path
    d="M11.3387 52.1842C11.4065 52.1601 11.4933 52.2157 11.6052 52.347C11.5394 52.3697 11.4486 52.3168 11.3387 52.1842Z"
    fill="#CD6560" />
  <path
    d="M11.8385 52.8361C11.9026 52.8113 11.9472 52.8545 11.9463 52.9701C11.8912 52.974 11.864 52.9279 11.8385 52.8361Z"
    fill="#CD6560" />
  <path
    d="M10.1189 51.4209C10.1783 51.3823 10.2326 51.4196 10.2733 51.5368C10.2156 51.5664 10.167 51.5264 10.1189 51.4209Z"
    fill="#CD6560" />
  <path
    d="M33.8697 57.1024C33.8214 57.0278 33.855 56.9769 33.9775 56.9832C33.9898 57.0487 33.9515 57.0772 33.8697 57.1024Z"
    fill="#CC756D" />
  <path
    d="M33.2104 57.2832C33.2234 57.2327 33.268 57.2097 33.3842 57.209C33.4558 57.2313 33.3634 57.3119 33.3634 57.3119C33.3634 57.3119 33.242 57.3107 33.2104 57.2832Z"
    fill="#CC756D" />
  <path
    d="M25.8167 57.1064C25.9559 57.2162 25.9959 57.3224 26.0738 57.5054C25.8749 57.5054 25.6382 57.4286 25.3625 57.2562C25.4549 57.1413 25.5863 57.1221 25.8167 57.1064Z"
    fill="#706B68" />
  <path d="M53.98 58.3366C54.0933 58.2747 54.2749 58.2809 54.5307 58.3432C54.4194 58.4011 54.2338 58.403 53.98 58.3366Z"
    fill="#CC7671" />
  <path
    d="M54.5366 59.2349C54.5245 59.3057 54.4362 59.3516 54.2726 59.3855C54.285 59.319 54.3727 59.2644 54.5366 59.2349Z"
    fill="#CC7671" />
  <path
    d="M50.7229 58.7794C50.6922 58.8333 50.6405 58.8376 50.5176 58.8107C50.5315 58.763 50.6167 58.7464 50.7229 58.7794Z"
    fill="#C35E56" />
  <path
    d="M55.0231 59.1231C55.0296 59.1853 54.9381 59.2201 54.8901 59.2136C54.9003 59.1583 54.9585 59.1096 55.0231 59.1231Z"
    fill="#CC7671" />
  <path
    d="M51.4234 57.9285C51.3955 57.9133 51.4572 57.8562 51.4572 57.8562C51.4572 57.8562 51.5362 57.8846 51.5564 57.9222C51.5765 57.9598 51.4512 57.9437 51.4234 57.9285Z"
    fill="#C35E56" />
  <path
    d="M6.4259 21.8615C6.4266 21.7918 6.4778 21.7886 6.6058 21.7793C6.6825 21.7731 6.7424 21.8971 6.766 21.962C6.6851 21.994 6.5808 21.9611 6.4259 21.8615Z"
    fill="#C44E46" />
  <path
    d="M80.9863 50.9333C80.8131 50.7955 80.6507 50.5569 80.4945 50.2197C80.6662 50.3582 80.8317 50.5953 80.9863 50.9333Z"
    fill="#D37D77" />
  <path d="M81.2565 51.2154C81.2017 51.2413 81.1134 51.2043 81 51.0968C81.0762 51.0316 81.1588 51.0737 81.2565 51.2154Z"
    fill="#D37D77" />
  <path
    d="M23.9788 55.1513C24.0005 55.0966 24.0475 55.0826 24.1628 55.0956C24.2312 55.1227 24.1318 55.2179 24.1318 55.2179C24.1318 55.2179 24.004 55.1919 23.9788 55.1513Z"
    fill="#C25C55" />
  <path
    d="M24.8773 55.3776C24.9426 55.3394 25.053 55.3839 25.2174 55.503C25.155 55.5384 25.0388 55.4993 24.8773 55.3776Z"
    fill="#C25C55" />
  <path
    d="M48.3734 59.1167C48.4548 59.1159 48.4195 59.2272 48.4011 59.2825C48.2701 59.3459 48.1577 59.3539 47.9617 59.3486C48.0161 59.2627 48.154 59.1901 48.3734 59.1167Z"
    fill="#C5635C" />
  <path
    d="M82.4545 53.6463C82.4607 53.4162 82.4668 53.1861 82.4807 52.841C82.6008 52.496 82.7131 52.266 82.8932 52C83.1257 52.6426 83.9009 53.4133 82.5653 53.8899C82.4565 53.8979 82.4406 53.8935 82.4515 53.8283C82.4625 53.7631 82.4545 53.6463 82.4545 53.6463Z"
    fill="#CA615C" />
  <path d="M9.7565 20.5959C9.8039 20.6934 9.8121 20.8624 9.8094 21.1582C9.7714 21.0791 9.7443 20.8733 9.7565 20.5959Z"
    fill="#C44E46" />
  <path
    d="M47.5323 38.5916C47.8589 38.6395 48.1854 38.6875 48.6843 38.722C48.9449 38.7078 49.0138 38.6708 49.0635 38.5975C50.0058 38.5975 50.9482 38.5975 52.0267 38.5975C52.1075 39.1183 52.1833 39.6071 52.2742 40.1935C51.8985 40.2396 51.5942 40.2038 51.3689 40.321C50.9875 40.5194 50.6559 40.8144 50.3034 41.0688C50.6524 41.3053 51.0048 41.537 51.3494 41.7799C51.6775 42.0111 51.9975 42.254 52.3445 42.685C52.3669 43.0666 52.3658 43.255 52.3648 43.4435C52.3273 43.4898 52.2898 43.5361 52.0783 43.6654C49.608 43.6427 47.3117 43.5369 45.0153 43.4312C44.9989 43.3149 44.9826 43.1985 44.9684 42.9189C44.9449 42.7071 44.9194 42.6585 44.8938 42.6099C44.9087 42.4836 44.9236 42.3572 44.9699 42.04C44.9741 41.7173 44.9468 41.5856 44.9196 41.4538C44.9048 40.7644 44.89 40.0751 44.9056 39.1974C44.95 38.9594 44.964 38.9098 44.978 38.8602C45.0264 38.8512 45.0748 38.8421 45.3093 38.8486C45.8062 38.835 46.117 38.806 46.4278 38.7769C46.663 38.7459 46.8982 38.7149 47.2847 38.6654C47.4358 38.6469 47.5323 38.5916 47.5323 38.5916Z"
    fill="#0F0A03" />
  <path
    d="M56.199 36.8927C58.1374 36.8677 60.0759 36.8428 62.1385 36.8171C62.3292 37.5212 62.213 37.9425 61.3135 38.0162C58.9131 38.2128 56.5237 38.5447 54.0237 38.8351C54.0237 39.4113 54.0237 40.0955 53.9389 40.8425C53.7667 40.8621 53.7195 40.7917 53.6991 40.515C53.5595 39.6519 53.4331 38.968 53.3066 38.284C53.2808 38.1615 53.255 38.039 53.3352 37.8128C54.0868 37.4541 54.7323 37.199 55.4776 36.9133C55.7846 36.886 55.9918 36.8893 56.199 36.8927Z"
    fill="#140705" />
  <path
    d="M45.0072 43.5247C47.3117 43.537 49.6081 43.6427 52.0384 43.7455C49.7812 43.701 47.3902 43.6595 45.0072 43.5247Z"
    fill="#CFB75A" />
  <path
    d="M55.3777 36.9438C54.7323 37.1989 54.0868 37.4539 53.3191 37.7197C53.1006 37.6964 53.0396 37.6297 52.9767 37.471C52.9733 37.3752 53.0071 37.339 53.1905 37.2222C54.0193 37.0757 54.6985 37.0098 55.3777 36.9438Z"
    fill="#3D0A08" />
  <path
    d="M53.2396 38.3545C53.4331 38.9678 53.5596 39.6518 53.6683 40.4563C53.4913 39.8597 53.3319 39.1424 53.2396 38.3545Z"
    fill="#DDB967" />
  <path
    d="M49.9835 37.3959C50.1946 37.3003 50.5109 37.2108 50.9323 37.126C50.7212 37.2211 50.4049 37.3115 49.9835 37.3959Z"
    fill="#DDB967" />
  <path
    d="M46.359 38.7166C46.1171 38.8061 45.8063 38.8352 45.3816 38.8331C45.6085 38.7533 45.9493 38.7047 46.359 38.7166Z"
    fill="#C4AB53" />
  <path
    d="M52.4079 43.3937C52.3659 43.2551 52.3669 43.0666 52.4094 42.793C52.4509 42.9198 52.4509 43.1318 52.4079 43.3937Z"
    fill="#CFB75A" />
  <path
    d="M47.6648 37.3913C47.7161 37.307 47.8512 37.2208 48.071 37.1355C48.02 37.2207 47.8843 37.3051 47.6648 37.3913Z"
    fill="#DDB967" />
  <path
    d="M48.7681 37.216C48.877 37.1859 49.0411 37.2206 49.2579 37.3235C49.1482 37.3549 48.9857 37.3179 48.7681 37.216Z"
    fill="#DDB967" />
  <path d="M44.8646 41.5C44.9469 41.5856 44.9741 41.7174 44.9651 41.9447C44.889 41.8756 44.8493 41.7108 44.8646 41.5Z"
    fill="#C4AB53" />
  <path
    d="M47.5158 38.5687C47.5323 38.5917 47.4358 38.647 47.393 38.6115C47.3908 38.5271 47.4405 38.517 47.5158 38.5687Z"
    fill="#C4AB53" />
  <path d="M49.0092 38.58C49.0139 38.671 48.945 38.708 48.8037 38.6797C48.8042 38.5873 48.8722 38.5579 49.0092 38.58Z"
    fill="#C4AB53" />
  <path
    d="M44.9237 38.8638C44.9641 38.91 44.9501 38.9596 44.8879 39.0695C44.8219 39.0654 44.7961 39.0018 44.7908 38.9365C44.7891 38.9157 44.8416 38.8904 44.9237 38.8638Z"
    fill="#C4AB53" />
  <path
    d="M44.8507 42.6396C44.9194 42.6587 44.9449 42.7074 44.9441 42.8341C44.8811 42.8312 44.8443 42.7502 44.8507 42.6396Z"
    fill="#C4AB53" />
  <path
    d="M53.6207 23.6438C54.655 24.2378 54.8229 25.2312 54.0132 26.6674C53.9101 26.5716 53.9184 26.4544 53.9973 26.1757C54.0296 25.6548 53.9913 25.2955 53.953 24.9362C53.953 24.9362 53.9679 24.9222 53.9724 24.9125C53.8648 24.5165 53.7529 24.1302 53.6207 23.6438Z"
    fill="#C24B43" />
  <path
    d="M53.9401 25.0581C53.9912 25.2955 54.0295 25.6548 54.0027 26.0873C53.9341 25.8337 53.9307 25.5069 53.9401 25.0581Z"
    fill="#EEB6AD" />
  <path
    d="M53.5678 32.2559C53.4313 32.6767 53.2203 33.1552 52.9165 33.6512C53.0469 33.2169 53.2701 32.7652 53.5678 32.2559Z"
    fill="#C24B43" />
  <path
    d="M52.6771 33.9619C52.7003 34.0845 52.6481 34.2505 52.5124 34.4523C52.4865 34.3271 52.5441 34.1662 52.6771 33.9619Z"
    fill="#C24B43" />
  <path
    d="M52.726 36.6729C52.6716 36.6763 52.6272 36.6568 52.5913 36.577C52.5898 36.5397 52.6758 36.5545 52.7186 36.5458C52.7614 36.5371 52.7628 36.5384 52.7513 36.5716C52.7398 36.6049 52.726 36.6729 52.726 36.6729Z"
    fill="#D2271C" />
  <path
    d="M52.7946 36.7538C52.726 36.673 52.7398 36.6049 52.7519 36.5724C54.3548 36.4945 55.9456 36.4491 57.6109 36.4859C57.2618 36.6533 56.8384 36.7385 56.307 36.8582C55.9919 36.8892 55.7847 36.8858 55.4776 36.9132C54.6986 37.0098 54.0193 37.0757 53.2267 37.1572C53.0299 37.0601 52.9465 36.9474 52.7946 36.7538Z"
    fill="#C24B43" />
  <path
    d="M82.4056 53.6598C82.4546 53.6461 82.4625 53.763 82.4554 53.8209C82.3999 53.8391 82.3485 53.8019 82.3063 53.7563C82.3003 53.7499 82.3387 53.7021 82.4056 53.6598Z"
    fill="#D37D77" />
  <path
    d="M84.4612 22.7927C84.3391 23.5737 84.1154 24.3089 83.8553 25.1567C83.0292 24.0594 83.1619 23.4401 84.4612 22.7927Z"
    fill="#CC6058" />
  <path
    d="M61.3618 36.2036C60.5546 36.3668 59.6762 36.4478 58.6724 36.5168C59.4615 36.377 60.3761 36.2492 61.3618 36.2036Z"
    fill="#C24B43" />
  <path
    d="M83.7543 26.1902C83.9241 26.2641 84.0362 26.3924 84.1591 26.6085C84.0121 26.5458 83.8544 26.3951 83.7543 26.1902Z"
    fill="#CC6058" />
  <path
    d="M62.8052 35.9763C62.6681 36.0607 62.4315 36.1406 62.0995 36.212C62.238 36.1262 62.4719 36.0491 62.8052 35.9763Z"
    fill="#C24B43" />
  <path
    d="M70.6298 35.4802C73.054 34.8488 75.4802 34.3378 77.8983 33.7903C78.7647 33.5941 79.6114 33.3101 80.5911 33.0686C80.5234 33.4549 80.3319 33.8387 79.9382 34.2634C78.762 34.5816 77.7879 34.8589 76.8138 35.1361C75.773 34.8826 75.8983 35.7745 75.6246 36.3148C75.4302 36.6985 75.1054 37.0156 74.8387 37.3624C74.5819 37.0779 74.3742 36.646 74.0579 36.5394C73.3959 36.3163 72.6759 36.2683 71.981 36.1413C71.4924 36.052 70.5925 36.9647 70.6298 35.4802Z"
    fill="#140705" />
  <path
    d="M76.7968 35.2424C77.7879 34.8589 78.7619 34.5817 79.8399 34.3127C80.234 35.9233 78.8191 35.7901 77.9863 36.1151C77.7227 36.218 77.1895 35.6239 76.7968 35.2424Z"
    fill="#BCB9B5" />
  <path
    d="M63.7314 36.9085C64.8166 36.5589 65.922 36.3225 67.0982 36.1545C67.1286 36.5852 67.0882 36.9474 67.0335 37.4392C65.8691 37.2911 64.8104 37.1563 63.7314 36.9085Z"
    fill="#140705" />
  <path
    d="M67.7548 36.3337C68.3482 36.0372 68.9399 35.8481 69.6428 35.6589C69.4128 36.0552 69.1243 36.5328 68.7041 36.8076C68.5371 36.9168 68.0787 36.5767 67.7548 36.3337Z"
    fill="#140705" />
  <path
    d="M69.4515 42.1262C69.6111 42.117 69.7242 42.154 69.8373 42.191C69.8063 42.2219 69.7685 42.2836 69.7455 42.2785C69.6299 42.2528 69.5182 42.2095 69.4515 42.1262Z"
    fill="#200403" />
  <path
    d="M81.0334 33.1353C81.1234 33.0677 81.2572 33.0666 81.4916 33.0662C81.4205 33.1118 81.2489 33.1568 81.0334 33.1353Z"
    fill="#221314" />
  <path
    d="M82.2252 32.791C82.2313 32.7576 82.3101 32.7178 82.4163 32.7283C82.3952 32.7805 82.3466 32.7826 82.2252 32.791Z"
    fill="#221314" />
</svg>