<svg width="173" height="149" viewBox="0 0 173 149" fill="none" xmlns="http://www.w3.org/2000/svg">
  <path
    d="M23.6688 139.215C23.5141 139.154 23.3596 139.093 23.1417 138.874C22.8868 138.605 22.6951 138.493 22.5034 138.382C22.5034 138.382 22.5332 138.336 22.5301 138.253C21.8058 137.276 21.0783 136.388 20.366 135.487C20.039 135.074 19.8337 134.429 19.4163 134.245C16.9916 133.176 16.4697 130.649 15.4285 128.7C14.245 126.484 13.1991 124.064 13.1576 121.343C13.1178 118.733 12.4608 116.14 12.7802 113.387C12.7358 112.958 12.7967 112.446 12.6341 112.361C11.5511 111.795 11.9231 110.831 12.004 110.035C12.1239 108.853 12.3399 107.661 12.6874 106.526C13.191 104.882 13.7895 103.261 14.454 101.674C15.5233 99.1208 16.6731 96.6018 17.8137 94.0788C17.8882 93.9148 18.1739 93.8458 18.3723 93.8128C18.6786 93.7868 19.0497 93.7568 19.2529 93.5568C19.6385 93.1758 19.9289 92.6988 20.2571 92.2608C21.4764 90.6318 22.7288 89.0268 23.8968 87.3618C24.3476 86.7198 24.4647 86.0068 23.2819 85.9888C22.9938 85.9148 22.7058 85.8408 22.3431 85.6128C22.5385 84.3268 23.3355 84.8528 23.9295 84.9868C24.5058 85.1168 25.0243 85.5178 25.601 85.6288C27.7657 86.0458 29.9458 86.3818 32.1154 86.7748C32.6279 86.8678 33.115 87.1608 33.6252 87.1968C35.6354 87.3348 37.6495 87.4628 39.6635 87.4878C41.2971 87.5088 42.9326 87.3778 44.6978 87.3118C46.7837 87.3118 48.7391 87.3148 50.7754 87.4028C53.9866 87.4108 57.1169 87.3418 60.2468 87.2528C60.7822 87.2368 61.3185 87.1588 61.8489 87.0758C64.8228 86.6068 67.7953 86.1288 70.7683 85.7468C70.7683 85.9648 70.7683 86.0888 70.7803 86.3158C70.9983 86.8688 71.1314 87.3768 71.4274 87.7598C72.3054 88.8968 73.3774 89.9048 74.1184 91.1198C74.6214 91.9458 75.0884 92.5428 76.0844 92.7198C76.4634 93.5768 76.8264 94.3388 77.1864 95.2098C77.2934 95.6678 77.3844 96.0238 77.5154 96.3648C78.0754 97.8198 79.0784 99.0358 79.4664 100.633C79.6714 101.48 79.6884 102.941 81.2194 103.224C81.4844 103.455 81.7444 103.643 81.8034 103.881C82.3264 106.011 82.8804 108.138 83.2734 110.293C83.4044 111.014 83.0944 111.816 82.9834 112.605C87.1104 113.149 90.4944 109.058 89.5674 104.716C88.6954 100.636 86.0393 97.5368 82.9193 94.9418C81.2823 93.5808 79.2864 92.6518 77.4324 91.4168C76.8814 91.1878 76.3383 91.1068 75.8233 90.9398C75.4213 90.8088 75.0554 90.5708 74.7904 90.3808C76.3514 90.4448 77.9003 90.2008 79.2123 90.6488C80.7783 91.1838 82.2844 92.1398 83.5644 93.2128C87.2134 96.2728 90.3983 99.7478 91.2413 104.67C91.6483 107.049 91.1444 109.302 89.6034 111.321C88.0864 113.307 86.0034 114.08 83.7914 114.44C83.5124 117.022 83.4724 119.498 82.9464 121.866C81.5444 128.164 78.4683 133.558 73.5854 137.846C72.5003 138.799 71.3304 139.654 70.1124 140.563C69.8144 140.665 69.6034 140.758 69.2894 140.858C68.7984 141.215 68.0914 141.558 68.0834 141.917C68.0624 142.853 68.4563 143.794 68.4773 144.737C68.4953 145.544 68.5014 146.754 68.0254 147.085C67.0184 147.785 65.673 148.059 64.6503 146.848C63.5743 145.574 62.5385 144.265 61.5409 143.04C61.0072 143.18 60.4288 143.32 59.8577 143.485C59.4977 143.589 59.1526 143.743 58.7939 143.852C58.1071 144.061 57.4255 144.371 56.7239 144.431C55.2506 144.557 53.7009 143.959 52.3544 145.132C51.9321 145.5 51.249 145.569 50.6853 145.775C50.2958 145.797 49.9065 145.818 49.3172 145.754C48.1621 145.72 47.2067 145.772 46.2513 145.824C45.7719 145.824 45.2923 145.824 44.6656 145.71C43.9091 145.323 43.3185 144.99 42.6853 144.797C42.0464 144.601 41.3684 144.469 40.702 144.441C39.4732 144.39 38.2439 144.935 37.0108 144.239C35.9771 143.656 34.8497 143.239 33.6954 142.718C33.0823 143.754 32.6871 144.848 31.9381 145.58C31.0257 146.472 29.8819 147.251 28.694 147.659C28.3426 147.78 27.1958 146.577 26.9672 145.815C26.6837 144.87 26.9171 143.746 27.0321 142.71C27.2384 140.853 25.7713 139.201 23.8827 139.247C23.8827 139.247 23.8788 139.218 23.8922 139.154C23.8839 139.012 23.8622 138.936 23.8404 138.86C23.7832 138.978 23.7259 139.097 23.6688 139.215ZM35.4963 92.2948C34.9947 93.1338 34.3719 93.9248 34.0196 94.8228C33.4797 96.1978 33.1263 97.6458 32.6224 99.2968C33.3268 99.1518 33.6317 99.0888 33.9314 99.2398C33.762 99.6608 33.5064 100.069 33.4379 100.507C33.1282 102.483 32.7454 104.46 32.6239 106.451C32.4207 109.783 32.6945 113.114 34.0137 116.212C35.4839 119.665 38.0955 122.022 41.762 122.975C45.2078 123.872 48.7444 123.851 52.2259 123.252C55.3526 122.713 58.0438 121.269 59.9676 118.607C62.0975 115.66 62.6209 112.21 62.6062 108.777C62.5923 105.53 61.9327 102.286 61.7746 99.0308C61.9377 98.6598 62.3135 98.2288 62.2286 97.9278C61.7691 96.3008 61.2361 94.6898 60.6289 93.1118C60.4998 92.7758 59.9575 92.5998 59.4022 92.3048C58.8304 91.0568 58.2587 89.8088 57.6577 88.4968C55.7367 88.6598 53.7704 88.9768 51.8066 88.9628C47.3709 88.9308 42.9368 88.7158 38.5008 88.6418C38.1077 88.6348 37.5718 89.0188 37.3352 89.3748C36.7078 90.3218 36.2081 91.3528 35.4963 92.2948Z"
    fill="#D9A986" />
  <path
    d="M25.8204 4.28343C25.9046 4.41723 25.9888 4.55103 26.0243 4.83433C26.2441 5.87573 26.3968 6.82473 26.8029 7.64883C27.9982 10.0747 29.1759 10.8482 31.4647 8.80493C32.0374 8.29363 32.8308 7.99933 33.563 7.70563C34.2816 7.41743 35.1204 7.38103 35.7835 7.01263C36.9064 6.38873 37.9758 5.84413 39.2315 6.55083C38.7746 9.48463 38.3557 12.3154 37.9159 15.2617C37.7933 16.8973 37.6505 18.4166 37.622 19.9381C37.6159 20.2656 38.0223 20.6007 38.2387 20.9323C38.4873 20.6029 38.9193 20.2915 38.9536 19.9412C39.1277 18.1597 39.1988 16.3682 39.3737 14.5126C39.7518 11.8045 40.0621 9.16403 40.4123 6.42773C40.789 5.55143 41.3335 5.57353 42.0537 5.79913C42.4947 5.93723 43.024 5.83793 43.5074 5.78633C44.5143 5.67893 45.517 5.53233 46.4846 5.49183C46.3724 6.46733 46.2748 7.35153 46.2267 8.23853C46.1232 10.1426 46.0018 12.048 45.9954 13.9533C45.9941 14.3134 46.491 14.6752 46.7581 15.0362C47.0432 14.6734 47.5407 14.3293 47.5745 13.9444C47.683 12.7066 47.6615 11.4522 47.6136 10.2071C47.552 8.60463 47.4164 7.00503 47.4424 5.39423C48.7114 5.55123 49.847 5.75663 50.9916 5.87233C51.8226 5.95633 52.6656 5.92173 53.5016 6.06863C53.6848 8.61623 53.8697 11.035 54.0499 13.5849C54.0636 15.8534 54.0819 17.9909 54.0804 20.255C54.0561 20.9386 53.9565 21.5174 54.0782 22.0452C54.1718 22.4508 54.5441 22.7921 54.7924 23.162C55.0955 22.8029 55.5834 22.4795 55.6611 22.0769C55.7989 21.3625 55.6878 20.6001 55.689 19.7573C55.6828 19.456 55.6686 19.2552 55.6688 18.9725C55.6116 18.7506 55.54 18.6105 55.47 18.3444C55.4706 17.3772 55.4696 16.5361 55.5337 15.6215C55.5306 15.0341 55.4625 14.52 55.4039 13.8968C55.4082 13.4968 55.4031 13.2058 55.4076 12.787C55.2321 10.5114 55.0471 8.36353 54.9739 6.21193C55.6674 6.11503 56.249 6.02183 56.9333 5.93143C57.4313 6.02743 57.8266 6.12073 58.2364 6.30763C58.6153 6.61303 58.9798 6.82483 59.4382 7.03903C59.7473 7.13583 59.9625 7.23023 60.1899 7.41683C60.6187 8.11063 61.0536 8.44483 61.6621 7.60403C61.8787 7.60563 62.0026 7.60623 62.1736 7.67453C62.3753 7.78853 62.5298 7.83483 62.6843 7.88233C62.6843 7.88233 62.6867 7.88243 62.6982 7.98453C63.1654 8.29823 63.621 8.50963 64.0794 8.82643C64.6823 9.94443 65.5888 10.1989 66.3933 9.54863C66.6163 9.38913 66.7553 9.23763 66.8933 9.08613C66.8933 9.08613 66.9073 9.04523 67.0053 9.01283C67.2113 8.80193 67.3173 8.62323 67.4243 8.44463C67.4873 8.38703 67.5453 8.32523 67.7403 8.20933C68.0993 7.97443 68.3183 7.78933 68.5383 7.60453C68.5383 7.60453 68.5373 7.60413 68.6343 7.58863C69.2233 6.56063 69.7143 5.54823 70.2073 4.44353C70.2103 4.22833 70.2113 4.10533 70.3073 3.96673C70.5233 3.68193 70.6443 3.41263 70.8383 3.08523C71.0523 2.60533 71.1913 2.18363 71.3303 1.76193C71.5583 1.52373 71.7853 1.28543 72.0843 1.06963C72.1553 1.09203 72.1583 1.20153 72.1703 1.28403C72.2963 1.45273 72.4113 1.53903 72.5263 1.62533C72.5893 1.48073 72.6523 1.33613 72.7543 1.11383C73.0543 0.763431 73.3143 0.490531 73.5753 0.217731C73.6953 0.183231 73.8153 0.148732 74.0803 0.178532C74.4633 0.201732 74.7003 0.160729 74.9383 0.119629C75.3233 0.129929 75.7093 0.14033 76.2113 0.25473C76.3373 0.45053 76.3423 0.542529 76.3443 0.746429C76.3443 1.15583 76.3433 1.45373 76.2163 1.75233C74.7773 1.78343 73.3543 1.42373 72.4513 2.85333C72.1143 3.38723 71.6463 3.84313 71.3403 4.39163C70.4053 6.06673 69.4713 7.74673 68.6613 9.48283C68.5173 9.79163 68.8423 10.52 69.1683 10.813C70.7113 12.2005 72.4693 13.3727 73.8843 14.8723C75.5013 16.5846 76.8363 18.5617 78.2953 20.5282C78.3793 22.0937 78.5973 23.4779 80.2393 24.1486C80.2433 24.3622 80.2453 24.4844 80.2573 24.7062C80.4523 25.5044 80.6043 26.2139 80.8313 26.8987C81.1663 27.9099 81.5553 28.9035 81.9363 30.0019C82.1933 30.5341 82.5483 30.9429 82.6573 31.4091C82.9523 32.6782 82.8083 34.1829 83.4543 35.205C84.3953 36.6925 83.7903 38.2077 84.1543 39.7747C84.2453 40.7597 84.4243 41.6285 84.4063 42.4932C84.3763 43.9032 84.2183 45.3106 84.1293 46.5146C83.4203 46.5498 82.6183 46.5592 81.8243 46.6359C80.4573 46.7677 79.0923 46.9251 77.7303 47.102C76.3373 47.2829 74.9493 47.5032 73.5573 47.6997C73.1263 47.7606 72.5923 47.6561 72.2773 47.8749C71.0833 48.7046 69.9003 48.7329 68.8673 48.2047C68.4443 47.3283 68.2163 46.5555 67.7543 45.9669C66.9233 44.909 66.3643 46.2603 65.6431 46.3328C65.459 46.3514 65.2753 46.3751 65.0116 46.3946C64.7428 46.3048 64.5537 46.2169 64.3459 46.0238C63.789 45.3588 63.3049 45.2073 62.8614 46.1302C62.5609 46.1625 62.3579 46.1641 62.1184 46.1025C61.9911 46.1062 61.9004 46.1731 61.7616 46.2678C61.7137 46.2955 61.6117 46.2521 61.5897 46.1797C61.5245 46.0966 61.4814 46.0859 61.4383 46.0753C61.4642 46.1355 61.4901 46.1957 61.497 46.2537C61.478 46.2515 61.4493 46.2769 61.3474 46.2231C61.0853 46.3584 60.925 46.5476 60.7481 46.7956C60.6738 46.9252 60.6002 46.9514 60.417 46.8975C59.148 46.5092 59.8146 47.4655 59.6338 47.9169C59.5139 48.2984 59.3999 48.5868 59.2351 48.9168C59.2169 49.1058 59.2494 49.2531 59.3257 49.5187C59.3427 50.2194 59.3159 50.8018 59.2271 51.4501C59.2774 51.7381 59.3898 51.9599 59.5435 52.2465C59.5913 52.461 59.5978 52.6108 59.4991 52.7627C58.8164 53.219 58.239 53.6731 57.5928 54.1557C57.4264 54.1994 57.3288 54.2147 57.1077 54.207C55.2673 54.3048 53.814 54.8592 52.9347 56.4876C52.7575 56.8156 52.3881 57.1108 52.0385 57.2603C51.2294 57.6063 50.3783 57.8539 49.4413 58.1404C49.1374 58.1032 48.9365 58.0669 48.6658 57.9598C48.0935 57.933 47.591 57.977 46.984 58.057C46.663 58.0608 46.4465 58.0286 46.21 57.9055C45.9178 57.7639 45.575 57.5818 45.3854 57.6841C44.2825 58.2789 43.3755 57.7889 42.9379 56.9263C42.1681 55.4086 40.6616 55.0315 39.3828 54.529C37.8292 53.9185 36.6835 53.0822 35.9103 51.5188C35.8855 50.3724 35.8724 49.3539 35.9312 48.2859C35.8632 48.0784 35.7232 47.9203 35.5198 47.746C35.3781 47.6724 35.3443 47.5955 35.356 47.3871C35.1016 46.2064 32.6872 45.2222 31.8104 45.8367C31.7543 45.8761 31.7618 46.0063 31.6366 46.1158C31.2548 46.1604 30.9761 46.1835 30.6367 46.1134C30.0202 46.0456 29.3152 47.0771 28.6793 46.7259C28.3986 46.8058 28.3475 46.2563 28.0981 46.4339C27.8623 46.6233 27.6398 46.8535 27.4827 46.8152C25.9861 46.4506 26.2553 47.1784 26.679 48.0484C26.7253 48.1435 26.6396 48.3028 26.6025 48.4989C25.3886 48.6069 24.1544 49.2249 23.0862 48.0582C22.8809 47.8339 22.5301 47.5372 22.2971 47.5762C20.2948 47.9117 18.4292 47.5237 16.4852 46.9881C14.8827 46.5466 13.1059 46.7375 11.314 46.6322C11.0482 46.3746 10.7273 46.1338 10.7258 45.891C10.7174 44.5559 10.7871 43.2203 10.8307 41.8185C10.8313 41.7523 10.8291 41.6198 10.8313 41.511C10.9241 40.9126 11.0147 40.4228 11.1069 39.8128C11.1085 38.6321 11.1085 37.5717 11.1085 36.8277C11.4513 35.9374 11.797 35.3002 11.9335 34.6211C12.1184 33.7007 12.0323 32.7187 12.2702 31.8181C12.4737 31.0479 12.9699 30.3551 13.3407 29.5276C13.7172 28.1001 14.0898 26.7732 14.558 25.4302C14.7726 25.1445 14.8916 24.8749 15.014 24.4921C15.0005 24.1518 14.9835 23.9248 14.9665 23.6977C15.0225 23.5466 15.0785 23.3956 15.2455 23.2729C15.9114 22.9784 16.4662 22.6554 17.021 22.3325C16.9725 22.2148 16.924 22.0972 16.8754 21.9796C16.631 21.9253 16.3865 21.871 16.1429 21.7246C16.1433 21.5094 16.143 21.3865 16.2065 21.2034C15.9457 20.998 15.621 20.8527 15.2965 20.7067C15.2965 20.7067 15.2952 20.7064 15.2958 20.5924C15.3033 20.1745 15.3102 19.8705 15.4139 19.5849C16.4635 20.456 17.1417 20.0604 17.7543 19.147C18.1908 18.4962 18.6222 17.8182 19.175 17.273C21.6549 14.8272 24.1774 12.4246 26.823 9.87293C26.2703 8.80163 25.48 7.44963 24.8557 6.02483C23.3198 2.51923 21.7717 1.57133 18.0894 2.03333C17.9977 2.04483 17.9038 2.03833 17.8165 1.94263C17.9077 1.53463 17.9933 1.22423 18.0814 0.914131C18.0838 0.914331 18.0853 0.90973 18.1994 0.91143C18.7951 0.72813 19.2767 0.543029 19.8626 0.358429C20.1756 0.357629 20.3843 0.356431 20.6557 0.430931C21.2342 0.642631 21.75 0.778431 22.2744 1.00463C22.5563 1.21813 22.8296 1.34123 23.1902 1.46973C23.3938 1.47813 23.5101 1.48113 23.6264 1.48413C23.794 1.61843 23.9616 1.75273 24.0929 2.02533C23.775 2.86343 24.0526 3.16483 24.768 3.22353C24.7718 3.29003 24.7818 3.42273 24.7858 3.50543C24.8778 3.71803 24.9658 3.84793 25.1044 4.04933C25.3769 4.17513 25.5987 4.22923 25.8204 4.28343ZM29.6714 42.3898C30.3085 42.1176 30.9843 41.9077 31.566 41.5463C31.8486 41.3707 32.107 40.9051 32.0934 40.5828C32.0823 40.3225 31.6838 39.9295 31.3928 39.8581C30.4939 39.6377 27.1747 41.8697 26.9389 42.8222C26.8701 43.0998 26.8935 43.5498 27.0654 43.6952C27.2348 43.8384 27.7043 43.7955 27.9394 43.6583C28.4954 43.3339 28.9904 42.9051 29.6714 42.3898ZM65.6278 40.4826C65.2902 40.3295 64.9446 40.1917 64.6167 40.0201C63.9543 39.6736 63.3363 39.8084 63.2048 40.5103C63.142 40.8455 63.6228 41.417 63.9991 41.6733C64.9066 42.2912 65.8923 42.7961 66.8573 43.3267C67.2683 43.5523 67.7063 43.7283 68.1313 43.9268C68.2593 43.8214 68.3863 43.716 68.5143 43.6106C68.2493 43.0524 68.0953 42.3913 67.6933 41.9617C67.1693 41.4013 66.4483 41.0243 65.6278 40.4826Z"
    fill="#D8A985" />
  <path
    d="M69.3923 140.851C69.6033 140.758 69.8143 140.665 70.1993 140.611C71.5683 141.336 72.7243 142.105 73.9673 142.693C77.3013 144.269 80.7433 145.657 84.4373 145.96C87.5283 146.213 90.6993 146.382 93.7533 145.977C99.0643 145.273 104.07 143.443 108.449 140.248C111.231 138.218 114.195 136.306 116.531 133.827C120.034 130.11 123.107 125.98 126.26 121.946C127.577 120.26 128.835 118.467 129.759 116.549C131.175 113.611 132.259 110.514 133.531 107.504C133.775 106.926 134.171 106.373 134.616 105.927C135.295 105.245 136.077 104.665 136.887 104.122C137.385 104.25 137.812 104.298 138.235 104.449C137.823 105.313 137.49 106.125 136.994 106.821C135.615 108.755 135.78 110.505 137.54 112.162C137.844 112.447 138.01 112.878 138.148 113.281C137.735 113.591 137.413 113.861 137.091 114.13C136.525 113.425 135.945 112.731 135.399 112.011C135.077 111.587 134.808 111.123 134.372 110.46C133.656 111.97 133.072 113.265 132.434 114.533C129.068 121.213 125.139 127.511 119.933 132.944C113.611 139.544 106.433 144.804 97.4093 147.055C88.8093 149.201 80.6033 148.129 72.8393 143.783C72.0183 143.323 71.0633 143.101 70.0143 142.658C69.7033 141.982 69.5483 141.417 69.3923 140.851Z"
    fill="#9B7B65" />
  <path
    d="M95.6563 67.7768C101.979 60.751 109.888 56.4256 119.02 54.345C125.78 52.8049 132.614 52.6283 139.374 54.3959C142.668 55.2574 146.013 56.1358 149.104 57.5214C156.397 60.7902 162.503 65.5838 166.575 72.6918C166.079 72.9098 165.668 73.0128 165.174 73.0728C163.254 70.9278 161.496 68.7508 159.564 66.7408C155.671 62.6903 150.936 59.7621 145.716 57.9051C141.765 56.4994 137.556 55.5494 133.385 55.0963C128.287 54.5424 123.111 54.8808 118.112 56.283C113 57.7169 108.205 59.8033 103.812 62.9078C100.618 65.1648 97.8423 67.7598 95.4093 70.7708C94.8143 71.5058 94.3053 72.3088 93.7883 73.0388C93.3663 72.7388 93.0593 72.5208 92.7463 72.1958C92.9743 71.6038 93.1463 71.0748 93.4543 70.6418C94.1533 69.6618 94.9183 68.7288 95.6563 67.7768Z"
    fill="#9B7B65" />
  <path
    d="M18.3612 93.7319C18.1738 93.8459 17.8881 93.9149 17.8137 94.0789C16.673 96.6019 15.5232 99.1209 14.4539 101.674C13.7894 103.261 13.1909 104.882 12.6874 106.526C12.3398 107.661 12.1238 108.853 12.0039 110.035C11.9231 110.831 11.5511 111.795 12.6341 112.361C12.7966 112.446 12.7357 112.958 12.6623 113.395C12.1514 113.532 11.7565 113.547 11.3615 113.562C10.321 113.458 9.27841 113.372 8.24041 113.248C6.60591 113.052 5.58971 111.969 4.68481 110.544C4.54411 110.204 4.41701 110.042 4.28981 109.879C4.05461 108.762 3.81931 107.645 3.70361 106.407C4.21441 106.834 4.81501 107.33 4.95921 107.936C5.47311 110.092 6.44771 111.237 8.37341 111.659C8.68231 111.841 8.94781 111.94 9.21341 112.039C9.24141 111.925 9.26941 111.811 9.29731 111.697C8.97311 111.659 8.64891 111.62 8.30931 111.488C6.85801 110.284 5.41101 109.115 5.56121 107.08C5.67791 105.498 6.06741 103.937 6.38251 102.282C8.19561 99.1539 10.1613 96.2859 13.1637 94.2869C13.5695 94.0169 13.8415 93.5459 14.2641 93.1609C14.4861 92.9849 14.6195 92.8159 14.8238 92.6169C15.0283 92.5089 15.1617 92.4319 15.388 92.3549C15.6044 92.3489 15.728 92.3439 15.9484 92.3319C16.5393 92.0579 17.0333 91.7899 17.6448 91.5239C18.1989 91.5259 18.6355 91.5259 19.4563 91.5259C18.9955 92.4539 18.6784 93.0929 18.3612 93.7319Z"
    fill="#BA8D6E" />
  <path
    d="M165.257 73.1159C165.668 73.0129 166.079 72.9099 166.601 72.7859C166.713 72.7649 166.702 72.7679 166.693 72.8569C166.819 73.0959 166.954 73.2449 167.089 73.3939C168.366 76.0869 169.978 78.6749 170.856 81.4909C173.604 90.3109 172.922 98.9489 168.576 107.171C167.813 108.615 166.643 109.845 165.483 111.236C164.968 111.335 164.632 111.372 164.168 111.423C164.437 111.797 164.612 112.042 164.787 112.287C164.486 112.709 164.185 113.131 163.754 113.462C163.614 113.238 163.604 113.106 163.651 112.939C163.704 112.806 163.699 112.708 163.695 112.61C163.659 112.73 163.624 112.85 163.499 112.978C163.243 113.085 163.077 113.184 162.682 113.418C163.199 113.492 163.442 113.526 163.685 113.561C162.909 114.386 162.132 115.21 161.169 116.05C160.83 116.231 160.677 116.397 160.524 116.563C157.766 119.192 154.213 119.35 150.78 119.338C145.688 119.319 140.916 118.036 137.101 114.226C137.413 113.861 137.735 113.591 138.231 113.326C142.764 116.776 147.774 117.896 153.206 117.41C155.848 117.173 158.233 116.319 160.062 114.245C160.369 113.896 160.916 113.758 161.365 113.617C161.668 113.859 161.958 114.007 162.247 114.154C162.281 113.986 162.315 113.818 162.349 113.651C162.017 113.607 161.685 113.564 161.364 113.422C162.113 112.463 162.853 111.602 163.7 110.742C165.303 110.492 165.522 110.086 164.748 108.986C167.149 105.843 168.726 102.399 169.73 98.6899C170.696 95.1199 170.686 91.5099 170.334 87.8359C169.972 84.0559 168.802 80.5639 167.281 77.1499C166.669 75.7769 165.936 74.4589 165.257 73.1159Z"
    fill="#95755D" />
  <path
    d="M44.5672 87.3138C42.9325 87.3778 41.297 87.5088 39.6634 87.4878C37.6494 87.4628 35.6353 87.3348 33.6251 87.1968C33.1149 87.1608 32.6279 86.8678 32.1154 86.7748C29.9459 86.3818 27.7656 86.0458 25.6009 85.6288C25.0242 85.5178 24.5058 85.1168 23.9295 84.9868C23.3356 84.8528 22.5384 84.3268 22.2629 85.5708C19.4992 84.7858 16.6109 84.1608 14.0142 82.9238C10.3217 81.1648 6.66731 79.1978 4.03601 75.8748C0.543413 71.4628 -1.04459 66.6138 0.734812 61.034C1.15561 59.7144 1.68001 58.4279 2.30181 57.0225C2.62181 56.6111 2.79671 56.3035 2.97171 55.9958C3.07811 55.7188 3.18451 55.4418 3.42011 55.0675C3.74621 54.5977 3.94311 54.2252 4.13991 53.8527C4.94411 52.6918 5.74831 51.531 6.72491 50.3025C7.08341 49.9387 7.26941 49.6426 7.45531 49.3464C7.69921 49.0256 7.94311 48.7048 8.37971 48.3444C8.95481 48.3031 9.33711 48.3014 9.76311 48.3438C9.80671 48.3879 9.89391 48.4762 9.85611 48.5596C9.64651 48.9672 9.50411 49.3116 9.29821 49.6125C7.49621 52.2471 5.68281 54.8739 3.76611 57.5227C3.53791 58.1663 3.41641 58.7903 3.29271 59.424C3.29051 59.4338 3.27041 59.434 3.18971 59.445C2.99361 59.5584 2.87811 59.6607 2.76211 59.8749C2.48371 61.6602 2.20581 63.3338 1.93481 65.1028C2.20461 65.6538 2.46761 66.1078 2.63171 66.6018C2.38131 67.0368 2.02991 67.4808 2.11331 67.8168C2.43921 69.1308 2.90271 70.4098 3.35611 71.7928C3.77821 72.0768 4.15921 72.2688 4.57821 72.4798C4.54471 72.7888 4.50771 73.1298 4.49221 73.5578C6.37991 76.1038 8.71051 78.0448 11.3922 79.5268C15.75 81.9358 20.3518 83.7698 25.2634 84.6578C29.7575 85.4718 34.2808 86.1308 38.802 86.7838C40.7095 87.0588 42.6446 87.1428 44.5672 87.3138Z"
    fill="#D7B298" />
  <path
    d="M8.95253 49.3143C9.10558 48.7787 10.2579 47.7258 10.6793 47.7258L13.6793 47.7258C14.9853 47.7258 16.8508 48.2258 18.1793 48.2258C19.3345 48.2258 20.6357 48.262 21.6793 48.7258C22.0989 48.9123 23.4123 48.3921 23.6793 48.7258C23.7803 48.8521 26.474 49.2137 26.6793 49.2258C27.9424 49.3001 28.1243 52.0879 29.3949 52.3702C30.5978 52.6375 31.6406 53.3394 32.8426 53.6065C33.6645 53.7892 33.982 53.6878 34.4881 54.3204C34.8044 54.7157 35.6793 52.8665 35.6793 53.6065C36.6287 54.0285 38.4511 54.3322 39.1793 55.0605C39.9332 55.8144 40.9007 56.3539 41.6793 57.1326C42.1523 57.6056 41.8771 57.5766 43.6793 58.4385L44.5961 59.8838C45.9004 59.8838 47.2024 59.7271 48.4356 59.7271C49.2563 59.7271 51.0514 59.0149 51.6918 58.4385C52.0335 58.131 52.6942 57.6456 53.137 57.4112C53.5779 57.1778 53.856 56.6919 54.3037 56.4361C55.0829 55.9908 55.9482 55.0182 56.5064 54.3204C57.2099 53.441 59.3352 53.6084 60.2762 53.1103C61.2764 52.5807 62.2733 52.0795 63.3234 51.6128L63.3706 51.5918C68.0252 49.5231 72.069 47.7258 77.2709 47.7258C78.5883 47.7258 80.4158 47.4451 81.6793 47.7259C82.4312 47.893 84.8845 47.8581 85.1414 48.7572C86.0468 48.9051 86.6377 50.2142 86.9523 50.3939C87.571 50.7475 89.4063 51.2732 88.1793 51.6128C90.9063 52.0133 90.899 54.1447 91.3838 55.0605C92.4853 57.141 93.3654 59.1011 94.0218 61.3987C94.6586 63.6275 94.1969 66.9362 93.1793 69.2258C92.2692 71.2736 91.0401 74.2372 89.1793 75.7258C88.3643 76.3778 88.3118 77.4674 86.6793 78.2258C86.3503 78.6372 85.4671 78.7873 85.1414 79.1944C84.8824 79.5181 84.6988 80.429 84.2359 80.5612C83.6527 80.7279 83.1037 81.0062 82.5121 81.2752C81.8788 81.563 80.9323 82.1371 80.2484 82.1371C79.1925 82.1371 78.1412 82.9648 77.2709 83.4256C76.7049 83.7253 76.3662 83.895 75.8953 84.3659C75.4175 84.8436 75.4001 85.1146 74.6851 85.1146C73.9018 85.1146 73.1909 84.9579 72.4128 84.9579C72.0279 84.9579 71.7577 84.8733 71.3941 84.7925C70.8433 84.6701 71.1177 84.6776 70.7673 84.9579C70.2676 85.3577 70.0333 85.7258 69.1793 85.7258C68.6375 85.7258 67.1793 85.9124 67.1793 86.2258C66.1603 86.2858 65.1823 86.3093 64.1793 86.3683C61.562 86.5223 59.1288 87.3086 56.5064 87.3086H48.5923H40.6793C38.1727 87.3086 35.8208 86.5113 33.3911 86.3683C32.0413 86.2889 30.7778 86.0549 29.3949 86.0549C28.3534 86.0549 26.9436 85.7239 25.9385 85.4368C25.4877 85.308 24.4854 85.2714 24.0667 85.2714C23.6467 85.2714 22.6877 84.9204 22.3864 84.6793C21.9544 84.3338 20.9631 84.3742 20.4623 84.096C20.2859 83.998 19.783 83.8824 19.6003 83.8609C19.283 83.8236 18.9446 83.5679 18.6601 83.4256C17.5935 82.8923 16.5702 82.7532 15.6041 81.9804C14.7026 81.2591 13.7164 81.0268 12.6353 80.718C11.7034 80.4517 10.8813 79.5697 10.0408 79.1247C9.11795 78.6361 8.42589 77.6452 7.5334 77.0874C7.11746 76.8275 6.89128 76.2313 6.43641 75.9904C6.13937 75.8332 5.35575 75.3797 5.1827 75.1633C4.90122 74.8115 4.55419 74.4176 4.27724 74.1099C3.85937 73.6456 3.7148 72.8137 3.22378 72.4209C2.83829 72.1125 2.79329 71.3843 2.66658 70.9408C2.53099 70.4662 1.92041 69.9311 1.89172 69.4433C1.82207 68.2592 1.735 66.9478 1.735 65.6822C1.735 65.1773 1.54901 64.1516 1.85689 63.7668C2.03834 63.54 1.72555 63.0569 1.97007 62.8613C2.04882 62.7983 2.20514 62.27 2.20514 62.1561C2.20514 61.0696 2.43609 60.263 2.66658 59.2258C2.80431 58.606 3.44342 57.7046 3.60686 57.1326C3.7583 56.6025 4.33496 56.198 4.39913 55.6525C4.49298 54.8548 5.40052 53.3104 6.00109 52.7098C6.57729 52.1336 7.66414 51.1878 8.03836 50.481C8.29118 50.0034 8.78405 49.904 8.95253 49.3143Z"
    fill="white" />
  <path
    d="M95.5573 67.6788C94.9183 68.7288 94.1533 69.6618 93.4543 70.6418C93.1463 71.0748 92.9743 71.6038 92.7523 72.3048C92.6953 72.9208 92.7273 73.3758 92.5433 73.7118C90.5873 77.2828 87.6143 79.6938 83.8703 81.1288C83.8703 81.0078 83.8703 80.9588 83.8803 80.8128C84.2553 80.1408 84.6193 79.5658 85.0323 78.9678C85.0813 78.9448 85.1863 78.9228 85.2813 78.9278C85.5283 78.7668 85.6803 78.6008 85.8693 78.3658C86.0473 78.2318 86.1883 78.1668 86.4203 78.1028C86.6553 77.9418 86.7993 77.7808 87.0163 77.5578C87.5803 77.0048 88.1063 76.5438 88.5523 76.0148C89.2833 75.1488 89.9623 74.2388 90.7073 73.2908C90.5873 73.1058 90.4233 72.9768 90.2693 72.8418C90.2813 72.8348 90.2633 72.8548 90.2713 72.7508C90.5093 72.4598 90.7183 72.2348 90.9733 72.0928C91.2793 71.9238 91.6243 71.8258 92.0103 71.6238C92.2893 71.0398 92.5113 70.5278 92.8243 70.0168C92.9343 69.8308 92.9543 69.6438 92.9833 69.3428C93.0983 68.4968 93.2033 67.7648 93.3123 66.9358C93.0213 66.5878 92.7293 66.3368 92.4653 66.1108C92.7583 65.7458 93.0493 65.3828 93.3383 64.9008C93.2103 63.7928 93.1713 62.7828 92.9333 61.8213C92.7263 60.9892 92.2933 60.2134 91.9573 59.3144C91.3613 58.7792 92.5113 57.6681 91.2303 57.386C89.4823 54.7905 87.7913 52.2834 86.0893 49.7831C85.1903 48.4609 84.1383 47.8293 82.3313 47.8984C77.4953 48.0835 72.7493 48.6361 68.0493 49.9036C67.4283 48.3344 66.4793 47.1784 65.0914 46.3963C65.2753 46.3749 65.4589 46.3512 65.643 46.3327C66.3643 46.2601 66.9223 44.9088 67.7533 45.9667C68.2163 46.5553 68.4443 47.3282 68.8673 48.2045C69.9003 48.7327 71.0833 48.7044 72.2773 47.8747C72.5923 47.656 73.1263 47.7604 73.5573 47.6995C74.9493 47.503 76.3373 47.2828 77.7303 47.1018C79.0923 46.925 80.4573 46.7675 81.8243 46.6357C82.6183 46.5591 83.4193 46.5497 84.1293 46.5144C84.2183 45.3104 84.3763 43.9031 84.4063 42.493C84.4243 41.6284 84.2453 40.7596 84.2573 39.7783C84.7263 40.0375 85.0943 40.4111 85.4613 40.7847C85.4733 40.9896 85.4853 41.1944 85.4063 41.5166C85.3613 41.816 85.4083 41.998 85.4553 42.1801C85.4693 42.753 85.4833 43.3259 85.4063 44.0664C85.4233 45.1333 84.2703 46.2183 85.7093 46.922C85.7323 46.963 85.7553 47.0039 85.7893 47.1972C85.7193 47.605 85.6363 47.8604 85.5543 48.1158C85.9163 48.0889 86.2783 48.062 86.6403 48.0351C89.9833 51.4935 92.8433 55.2846 94.1533 59.9886C94.7173 62.0148 94.8883 64.1508 95.2373 66.2368C95.3123 66.6848 95.3843 67.1328 95.5573 67.6788Z"
    fill="#D9B196" />
  <path
    d="M53.5032 5.9399C52.6655 5.9216 51.8225 5.9563 50.9915 5.8722C49.8469 5.7565 48.7114 5.5511 47.3441 5.3899C46.918 5.3977 46.7197 5.3998 46.5214 5.4018C45.517 5.5323 44.5142 5.6788 43.5073 5.7862C43.024 5.8378 42.4946 5.9371 42.0537 5.799C41.3334 5.5735 40.789 5.5514 40.3026 6.4142C39.8587 6.4803 39.564 6.464 39.2694 6.4477C37.9757 5.844 36.9063 6.3887 35.7834 7.0125C35.1204 7.3809 34.2816 7.4173 33.5629 7.7056C32.8307 7.9992 32.0374 8.2935 31.4647 8.8048C29.1758 10.8482 27.9981 10.0747 26.8028 7.6488C26.3968 6.8246 26.244 5.8757 26.0411 4.9114C26.6334 5.8557 27.1765 6.8643 27.682 7.8913C28.1311 8.8038 28.609 9.2569 29.7252 8.6621C36.724 4.9328 44.2315 3.991 52.014 4.837C54.1947 5.074 56.347 5.573 58.4686 6.0679C58.3572 6.194 58.2895 6.2039 58.2219 6.2138C57.8266 6.1206 57.4313 6.0274 56.8602 5.8539C56.0729 5.8413 55.4614 5.9089 54.7653 5.932C54.2882 5.9049 53.8957 5.9224 53.5032 5.9399Z"
    fill="#DAB69E" />
  <path
    d="M23.9005 139.337C25.7712 139.201 27.2384 140.853 27.0321 142.71C26.9171 143.746 26.6836 144.87 26.9671 145.815C27.1957 146.577 28.3425 147.78 28.6939 147.659C29.8818 147.251 31.0257 146.472 31.9381 145.58C32.6871 144.848 33.0823 143.754 33.6954 142.718C34.8497 143.239 35.9771 143.656 37.0108 144.239C38.2439 144.935 39.4732 144.39 40.702 144.441C41.3684 144.469 42.0464 144.601 42.6853 144.797C43.3185 144.99 43.9091 145.323 44.548 145.687C41.3797 145.394 38.1726 145.07 34.9903 144.583C34.1424 144.454 33.8173 144.612 33.341 145.29C32.6095 146.331 31.7761 147.404 30.7431 148.106C28.8572 149.389 26.7388 148.666 26.1408 146.664C25.7328 145.299 26.0623 143.72 25.9978 142.239C25.9769 141.761 25.8777 141.187 25.591 140.842C25.1313 140.289 24.4855 139.892 23.9005 139.337Z"
    fill="#DAB69E" />
  <path
    d="M69.2893 140.858C69.5483 141.417 69.7033 141.982 69.9083 142.631C69.7683 143.778 69.7623 144.923 69.3393 145.883C68.9023 146.874 68.2373 148.069 67.3503 148.48C66.1543 149.034 64.6996 148.766 63.7056 147.555C63.2959 147.056 62.6873 146.651 62.4594 146.085C61.7869 144.417 60.6646 144.499 59.1612 144.772C56.4451 145.265 53.6802 145.489 50.8105 145.8C51.2489 145.569 51.932 145.5 52.3543 145.132C53.7008 143.959 55.2504 144.557 56.7238 144.431C57.4253 144.371 58.107 144.061 58.7938 143.852C59.1524 143.743 59.4977 143.589 59.8577 143.485C60.4288 143.32 61.0071 143.18 61.5408 143.04C62.5384 144.265 63.5742 145.574 64.6502 146.848C65.6728 148.06 67.0183 147.785 68.0253 147.085C68.5013 146.754 68.4953 145.544 68.4773 144.737C68.4563 143.794 68.0623 142.853 68.0833 141.917C68.0913 141.558 68.7983 141.215 69.2893 140.858Z"
    fill="#DAB69E" />
  <path
    d="M80.2363 24.057C78.5973 23.4778 78.3793 22.0936 78.4003 20.5267C78.9633 19.9109 79.6413 19.4755 79.8443 18.8785C80.9283 15.6879 81.7723 12.4801 81.1323 9.01134C80.5503 5.85284 79.4373 3.18585 76.3423 1.75145C76.3433 1.45365 76.3433 1.15585 76.4493 0.748047C77.1593 0.812747 77.7633 0.987445 78.3663 1.16204C78.4883 1.24914 78.6103 1.33625 78.7913 1.57845C79.5213 2.71455 80.3163 3.63455 80.8383 4.68925C81.8403 6.70935 82.5893 8.82014 82.4943 11.1509C82.4593 12.004 82.6353 12.8657 82.7153 13.7234C82.7123 13.8508 82.7103 13.9782 82.5873 14.2191C82.2843 14.6212 82.0443 14.8886 81.9323 15.202C81.5863 16.1725 81.3073 17.1673 80.9633 18.1389C80.7963 18.6118 80.3173 19.0844 80.3743 19.5037C80.4903 20.3608 80.1453 20.6741 79.4703 21.0778C78.8813 21.4301 78.8503 22.0676 79.6883 22.3778C79.8813 22.7522 80.0753 23.1266 80.2653 23.6845C80.2533 23.9309 80.2453 23.9939 80.2363 24.057Z"
    fill="#D9B196" />
  <path
    d="M11.3794 113.686C11.7565 113.547 12.1515 113.532 12.6643 113.51C12.4608 116.14 13.1179 118.733 13.1577 121.343C13.1991 124.064 14.245 126.484 15.4284 128.7C16.4696 130.649 16.9916 133.176 19.4162 134.245C19.8336 134.429 20.039 135.074 20.3659 135.487C21.0782 136.388 21.8057 137.276 22.5134 138.275C22.0644 138.129 21.565 137.948 21.2035 137.617C17.1631 133.916 14.3645 129.453 12.793 124.18C11.7799 120.78 11.5901 117.303 11.3794 113.686Z"
    fill="#DDBCA6" />
  <path
    d="M15.317 19.5665C15.3101 19.8705 15.3033 20.1744 15.2126 20.5499C14.8353 20.2768 14.5418 19.9322 14.2483 19.5875C14.2147 19.4873 14.1812 19.3872 14.149 19.0932C13.6435 17.4568 13.1367 16.0142 12.63 14.5716C12.5889 14.2746 12.5479 13.9776 12.5931 13.4844C12.7229 12.0002 12.7745 10.7123 12.8065 9.42401C12.8215 8.81871 12.7987 8.21241 12.793 7.60661C12.8127 7.47981 12.8324 7.35291 12.9727 7.10781C13.1636 6.70111 13.2339 6.41271 13.3042 6.12431C13.3351 5.93511 13.3661 5.74591 13.5144 5.44311C13.8118 5.07521 13.9412 4.74982 14.1808 4.57962C15.0544 3.95922 15.3768 2.63802 16.6971 2.69542C16.2282 3.46862 15.7601 4.14001 15.1957 4.82791C15.0159 5.40611 13.5568 5.63931 14.7052 6.57611C14.6251 6.78761 14.5451 6.91802 14.3826 7.05492C14.2557 7.24172 14.2112 7.42232 14.1681 7.72102C14.1557 8.31112 14.142 8.78311 14.0526 9.27061C13.9443 9.46891 13.9117 9.65151 13.8825 9.96461C13.7104 13.3509 14.0503 16.5287 15.317 19.5665Z"
    fill="#DAB69E" />
  <path
    d="M14.1755 93.1677C13.8415 93.5457 13.5695 94.0167 13.1637 94.2867C10.1613 96.2857 8.1956 99.1537 6.2881 102.283C5.9441 102.182 5.7416 101.995 5.5509 101.708C5.7269 101.089 5.891 100.571 6.0551 100.053C6.0655 99.9487 6.0758 99.8457 6.2002 99.6517C6.4213 99.3707 6.5285 99.1787 6.6356 98.9867C6.8898 98.5827 7.144 98.1787 7.5559 97.6967C8.0002 97.2287 8.2867 96.8387 8.5731 96.4477C8.5731 96.4477 8.5959 96.3427 8.7146 96.2847C9.1264 95.8537 9.4195 95.4817 9.7126 95.1087C10.3606 94.5517 11.0085 93.9947 11.8644 93.4377C12.7734 93.3477 13.4744 93.2577 14.1755 93.1677Z"
    fill="#D9B196" />
  <path
    d="M18.3722 93.8129C18.6783 93.0929 18.9955 92.4539 19.4563 91.5259C18.6355 91.5259 18.1989 91.5259 17.6713 91.4419C17.1961 91.1389 16.8119 90.9189 16.4277 90.6999C17.2943 90.5429 18.1629 90.3959 19.0268 90.2249C19.5174 90.1289 20.1839 90.1549 20.4545 89.8479C21.4784 88.6839 22.3728 87.4059 23.2987 86.0799C24.4646 86.0069 24.3475 86.7199 23.8967 87.3619C22.7286 89.0269 21.4762 90.6319 20.2569 92.2609C19.9287 92.6989 19.6383 93.1759 19.2527 93.5569C19.0496 93.7569 18.6785 93.7869 18.3722 93.8129Z"
    fill="#DAB69E" />
  <path
    d="M5.53906 101.809C5.74156 101.995 5.94416 102.182 6.24116 102.367C6.06736 103.937 5.67786 105.498 5.56116 107.079C5.41096 109.115 6.85806 110.284 8.31096 111.486C8.32786 111.579 8.33006 111.575 8.33006 111.575C6.44776 111.237 5.47316 110.092 4.95926 107.936C4.81496 107.33 4.21436 106.834 3.72046 106.286C3.95886 104.855 4.29996 103.426 4.79846 101.915C5.15026 101.824 5.34466 101.817 5.53906 101.809Z"
    fill="#D8A985" />
  <path
    d="M13.3367 29.628C12.9699 30.355 12.4737 31.0478 12.2703 31.8179C12.0323 32.7186 12.1185 33.7005 11.9335 34.621C11.797 35.3001 11.4513 35.9372 11.1085 36.8276C11.1085 37.5715 11.1085 38.632 11.0109 39.815C10.5561 40.0339 10.199 40.1304 9.84192 40.2268C10.2153 36.8222 10.4615 33.3921 12.024 30.2434C12.2208 29.8469 12.27 29.3771 12.5304 28.9299C12.8944 29.1551 13.1155 29.3915 13.3367 29.628Z"
    fill="#DDBCA6" />
  <path
    d="M85.4863 40.6668C85.0943 40.4114 84.7263 40.0378 84.2563 39.6604C83.7903 38.2077 84.3953 36.6926 83.4543 35.2051C82.8083 34.183 82.9523 32.6782 82.6573 31.4092C82.5483 30.943 82.1933 30.5342 82.0293 29.9866C82.3103 29.5194 82.5123 29.1648 82.7143 28.8101C84.5143 32.5161 85.0283 36.5288 85.4863 40.6668Z"
    fill="#DDBCA6" />
  <path
    d="M82.7393 13.6097C82.6353 12.8657 82.4593 12.004 82.4943 11.1509C82.5893 8.82014 81.8403 6.70944 80.8383 4.68924C80.3163 3.63454 79.5213 2.71454 78.8483 1.62744C79.7283 2.47214 80.8873 3.28624 81.4353 4.40094C82.8343 7.24784 83.4243 10.3037 82.7393 13.6097Z"
    fill="#DAB69E" />
  <path
    d="M9.80593 40.348C10.199 40.1305 10.5561 40.034 11.0093 39.9353C11.0147 40.4228 10.924 40.9125 10.7864 41.5341C10.7696 41.7389 10.7998 41.8118 10.83 41.8847C10.7871 43.2202 10.7173 44.5558 10.7257 45.891C10.7273 46.1337 11.0482 46.3745 11.3111 46.7362C11.3957 47.133 11.3909 47.4098 11.2949 47.7206C10.7671 47.9952 10.3304 48.2357 9.89383 48.4762C9.89383 48.4762 9.80663 48.388 9.76343 48.2279C10.3466 46.2131 10.4199 44.3506 9.79733 42.4785C9.78823 41.8087 9.77913 41.1389 9.80593 40.348Z"
    fill="#D7B298" />
  <path
    d="M79.6983 22.2794C78.8503 22.0677 78.8813 21.4302 79.4703 21.0779C80.1453 20.6742 80.4903 20.3609 80.3743 19.5038C80.3173 19.0845 80.7963 18.6119 80.9633 18.139C81.3073 17.1675 81.5863 16.1727 81.9323 15.2021C82.0443 14.8888 82.2843 14.6213 82.5623 14.3118C82.3153 17.1602 81.4053 19.8177 79.6983 22.2794Z"
    fill="#DAB69E" />
  <path
    d="M16.6979 2.59348C15.3768 2.63788 15.0544 3.95908 14.1809 4.57948C13.9412 4.74968 13.8118 5.07518 13.5497 5.35358C13.9676 3.15838 16.2863 0.763881 18.2958 0.515381C18.2409 0.713481 18.1631 0.811481 18.0853 0.909481C18.0853 0.909481 18.0838 0.91418 17.9761 0.91518C16.8256 1.01998 16.6305 1.71568 16.6947 2.59238C16.6927 2.59088 16.6979 2.59348 16.6979 2.59348Z"
    fill="#DDBCA6" />
  <path
    d="M9.70805 42.5508C10.4201 44.3505 10.3467 46.213 9.71995 48.1837C9.33725 48.3013 8.95485 48.3031 8.45825 48.3067C9.55775 47.1381 9.56545 45.6413 9.50595 44.1128C9.48675 43.6185 9.57805 43.1198 9.70805 42.5508Z"
    fill="#DDBCA6" />
  <path
    d="M82.7154 28.7108C82.5124 29.1646 82.3104 29.5193 82.0144 29.8892C81.5554 28.9034 81.1664 27.9098 80.8314 26.8986C80.6044 26.2139 80.4524 25.5043 80.3544 24.706C80.5724 24.6039 80.7024 24.6016 80.8324 24.5994C80.8324 24.5994 80.8664 24.6859 80.8524 24.8377C81.0934 25.3287 81.3494 25.6679 81.6054 26.007C81.6934 26.308 81.7814 26.609 81.9004 27.0865C82.0774 27.4047 82.2244 27.5463 82.3714 27.6879C82.4864 27.9958 82.6014 28.3037 82.7154 28.7108Z"
    fill="#D9B196" />
  <path
    d="M12.7173 7.68384C12.7986 8.21254 12.8214 8.81874 12.8064 9.42404C12.7745 10.7124 12.7229 12.0002 12.5991 13.3712C12.5598 11.5564 12.6007 9.65874 12.7173 7.68384Z"
    fill="#DDBCA6" />
  <path
    d="M16.3304 90.6938C16.8119 90.9198 17.1961 91.1388 17.5538 91.4398C17.0333 91.7898 16.5393 92.0578 15.9376 92.2488C15.715 92.0868 15.5999 92.0018 15.4849 91.9158C15.4217 92.0618 15.3584 92.2078 15.2951 92.3548C15.1617 92.4318 15.0282 92.5088 14.8186 92.4988C14.7309 92.0988 14.7195 91.7848 14.708 91.4708C14.708 91.4708 14.7264 91.4759 14.7845 91.4639C14.925 91.4069 14.9822 91.3398 15.0141 91.2518C15.4205 91.0638 15.8268 90.8758 16.3304 90.6938Z"
    fill="#D9B196" />
  <path
    d="M13.3407 29.5274C13.1155 29.3916 12.8944 29.1551 12.6054 28.8619C12.5513 28.6756 12.5649 28.5459 12.6915 28.2997C12.8793 27.9865 12.954 27.7898 13.0287 27.5931C13.2778 27.0224 13.5269 26.4518 13.9038 25.7756C14.1736 25.5941 14.3155 25.5181 14.4587 25.4431C14.4599 25.444 14.4624 25.4462 14.4624 25.4462C14.0898 26.7731 13.7172 28.1 13.3407 29.5274Z"
    fill="#DAB69E" />
  <path
    d="M14.6076 91.4768C14.7195 91.7848 14.731 92.0978 14.7476 92.5298C14.6195 92.8158 14.4861 92.9848 14.2642 93.1608C13.4745 93.2578 12.7734 93.3478 11.957 93.4248C12.7301 92.7678 13.6186 92.1248 14.6076 91.4768Z"
    fill="#DAB69E" />
  <path
    d="M70.2053 4.53564C69.7143 5.54814 69.2233 6.56055 68.6343 7.49445C68.4443 7.20015 68.3523 6.98435 68.2603 6.76865C68.4233 6.35735 68.5863 5.94614 68.8913 5.43964C69.4243 5.07484 69.8143 4.80524 70.2053 4.53564Z"
    fill="#D9B196" />
  <path
    d="M62.1264 7.60669C62.0026 7.60609 61.8787 7.60549 61.5929 7.52619C61.0131 7.40639 60.5954 7.36539 60.1776 7.32449C59.9625 7.23009 59.7473 7.13569 59.4369 6.94049C59.3397 6.64329 59.3378 6.44689 59.3359 6.25049C60.7145 6.72939 62.0932 7.20839 63.4188 7.77919C63.1394 7.87469 62.9131 7.87849 62.6867 7.88219C62.6867 7.88219 62.6843 7.88329 62.6377 7.81399C62.4362 7.69869 62.2813 7.65269 62.1264 7.60669Z"
    fill="#DAB69E" />
  <path d="M12.604 14.6804C13.1367 16.0142 13.6435 17.4568 14.1441 19.0139C13.618 17.682 13.098 16.2356 12.604 14.6804Z"
    fill="#DDBCA6" />
  <path
    d="M14.2382 19.6904C14.5419 19.9321 14.8354 20.2768 15.2121 20.6639C15.2953 20.7063 15.2969 20.7058 15.3363 20.7875C15.6314 21.0006 15.887 21.132 16.1427 21.2634C16.1431 21.3864 16.1434 21.5093 16.0705 21.7781C15.7829 22.1692 15.5685 22.4144 15.3542 22.6596C14.9788 21.7042 14.6035 20.7488 14.2382 19.6904Z"
    fill="#DDBCA6" />
  <path
    d="M66.3083 9.55661C65.5888 10.1989 64.6823 9.94451 64.0801 8.82571C64.078 8.71961 64.0791 8.71831 64.1966 8.71861C64.6298 8.70911 64.9454 8.69911 65.2611 8.68921C65.2611 8.68921 65.3698 8.69801 65.4337 8.80791C65.7683 9.13071 66.0383 9.34371 66.3083 9.55661Z"
    fill="#D9B196" />
  <path
    d="M85.7343 46.7983C84.2703 46.2184 85.4233 45.1334 85.3873 44.1885C85.5603 44.9869 85.6603 45.8307 85.7343 46.7983Z"
    fill="#DDBCA6" />
  <path
    d="M46.3304 145.902C47.2066 145.772 48.162 145.72 49.2006 145.738C48.3258 145.866 47.3677 145.923 46.3304 145.902Z"
    fill="#DAB69E" />
  <path
    d="M15.3236 22.7365C15.5684 22.4145 15.7828 22.1693 16.0696 21.8704C16.3865 21.871 16.6309 21.9253 16.8754 21.9796C16.9239 22.0972 16.9725 22.2148 17.021 22.3325C16.4662 22.6554 15.9114 22.9783 15.3078 23.2201C15.2704 23.0304 15.2818 22.9219 15.3236 22.7365Z"
    fill="#DAB69E" />
  <path
    d="M5.55104 101.708C5.34474 101.817 5.15034 101.825 4.85974 101.835C5.13194 101.265 5.50044 100.693 5.96204 100.087C5.89114 100.571 5.72704 101.089 5.55104 101.708Z"
    fill="#DAB69E" />
  <path
    d="M70.2073 4.4435C69.8143 4.8053 69.4243 5.0749 68.9453 5.36C69.1703 4.763 69.4853 4.1503 69.9423 3.5332C70.1263 3.6798 70.1693 3.8311 70.2123 3.9823C70.2113 4.1053 70.2103 4.2283 70.2073 4.4435Z"
    fill="#DAB69E" />
  <path
    d="M78.3293 1.0715C77.7633 0.987303 77.1593 0.812703 76.4503 0.636303C76.3423 0.542403 76.3373 0.450404 76.3213 0.291504C76.9743 0.476604 77.6333 0.728803 78.3293 1.0715Z"
    fill="#DAB69E" />
  <path
    d="M25.8289 4.18552C25.5986 4.22922 25.3768 4.17502 25.0994 3.96692C24.9565 3.68282 24.8691 3.55272 24.7817 3.42262C24.7817 3.42262 24.7718 3.28992 24.7725 3.14072C24.776 2.93652 24.7788 2.88142 24.7816 2.82642C25.1335 3.24682 25.4855 3.66722 25.8289 4.18552Z"
    fill="#DDBCA6" />
  <path
    d="M86.6103 47.9496C86.2783 48.062 85.9163 48.0889 85.5543 48.1158C85.6363 47.8604 85.7193 47.605 85.8133 47.2634C86.0773 47.4062 86.3293 47.6351 86.6103 47.9496Z"
    fill="#DDBCA6" />
  <path
    d="M18.1994 0.911457C18.1631 0.811657 18.2409 0.713656 18.3886 0.548656C18.6615 0.360956 18.8646 0.240159 19.1925 0.185059C19.4644 0.286559 19.6113 0.322256 19.7583 0.357956C19.2767 0.543056 18.7951 0.728057 18.1994 0.911457Z"
    fill="#DAB69E" />
  <path
    d="M62.6982 7.98455C62.9131 7.87855 63.1395 7.87474 63.4797 7.85844C63.5935 7.84604 63.6993 7.86054 63.7558 7.96734C63.9012 8.28874 63.9902 8.50345 64.0792 8.71825C64.0792 8.71825 64.0781 8.71954 64.0774 8.72024C63.6211 8.50954 63.1654 8.29815 62.6982 7.98455Z"
    fill="#D9B196" />
  <path
    d="M71.2383 1.77563C71.1913 2.18363 71.0523 2.60534 70.7483 3.08574C70.4633 3.14574 70.3433 3.14703 70.2233 3.14833C70.5313 2.69533 70.8383 2.24233 71.2383 1.77563Z"
    fill="#DAB69E" />
  <path
    d="M164.864 112.239C164.612 112.042 164.437 111.797 164.168 111.423C164.632 111.372 164.968 111.335 165.411 111.298C165.325 111.596 165.133 111.894 164.864 112.239Z"
    fill="#9B7B65" />
  <path
    d="M73.4823 0.191406C73.3143 0.490506 73.0543 0.763307 72.6613 1.11441C72.4063 1.19561 72.2823 1.19851 72.1583 1.20141C72.1583 1.20141 72.1553 1.09201 72.1593 1.03781C72.5733 0.710807 72.9813 0.437906 73.4823 0.191406Z"
    fill="#DAB69E" />
  <path
    d="M64.1966 8.71856C63.9901 8.50346 63.9012 8.28876 63.8053 7.98706C64.2598 8.10486 64.7213 8.30956 65.2219 8.60166C64.9454 8.69906 64.6298 8.70896 64.1966 8.71856Z"
    fill="#DAB69E" />
  <path
    d="M9.62138 95.1299C9.41948 95.4819 9.12638 95.8539 8.74158 96.2379C8.94318 95.8829 9.23668 95.5169 9.62138 95.1299Z"
    fill="#DAB69E" />
  <path
    d="M59.2489 6.22231C59.3379 6.44681 59.3397 6.64331 59.343 6.93801C58.9798 6.82461 58.6155 6.61291 58.2365 6.30741C58.2897 6.20381 58.3573 6.19391 58.5248 6.15621C58.8036 6.15031 58.9828 6.17221 59.2489 6.22231Z"
    fill="#D9B196" />
  <path
    d="M8.48301 96.4778C8.28671 96.8388 8.00021 97.2288 7.61951 97.6308C7.81451 97.2638 8.10371 96.8858 8.48301 96.4778Z"
    fill="#DAB69E" />
  <path
    d="M22.2658 0.91407C21.75 0.77827 21.2342 0.642467 20.6562 0.357567C20.5946 0.159567 20.5951 0.110668 20.5957 0.0617676C20.9925 0.139668 21.3894 0.217569 21.9139 0.391769C22.1189 0.626569 22.1963 0.765168 22.2717 0.906368C22.2697 0.908968 22.2658 0.91407 22.2658 0.91407Z"
    fill="#DAB69E" />
  <path
    d="M20.5226 0C20.595 0.1108 20.5945 0.159699 20.5935 0.281799C20.3843 0.356399 20.1756 0.357598 19.8626 0.358398C19.6113 0.322198 19.4643 0.286501 19.2689 0.192501C19.6301 0.0689011 20.0398 0.0035 20.5226 0Z"
    fill="#DDBCA6" />
  <path
    d="M66.3933 9.54867C66.0383 9.34367 65.7684 9.13067 65.4843 8.82837C65.8754 8.84177 66.2794 8.94447 66.7884 9.06667C66.7554 9.23767 66.6163 9.38917 66.3933 9.54867Z"
    fill="#DAB69E" />
  <path
    d="M81.6053 25.9121C81.3493 25.668 81.0933 25.3289 80.8503 24.8843C81.1103 25.125 81.3583 25.471 81.6053 25.9121Z"
    fill="#DDBCA6" />
  <path
    d="M23.1029 1.46432C22.8296 1.34122 22.5563 1.21813 22.2744 1.00463C22.2658 0.914227 22.2697 0.909125 22.375 0.908325C22.6183 0.898425 22.7564 0.889227 22.8944 0.880127C22.8944 0.880127 23.0006 0.898626 23.0502 1.00803C23.1007 1.23303 23.1018 1.34862 23.1029 1.46432Z"
    fill="#DAB69E" />
  <path
    d="M68.1843 6.81226C68.3523 6.98446 68.4443 7.20016 68.5373 7.51006C68.5373 7.60406 68.5383 7.60466 68.4403 7.60436C68.1493 7.60576 67.9563 7.60756 67.7623 7.60936C67.8783 7.35816 67.9933 7.10706 68.1843 6.81226Z"
    fill="#DAB69E" />
  <path d="M4.0576 53.8936C3.9431 54.2253 3.7462 54.5978 3.4541 54.9848C3.5642 54.6443 3.7697 54.2894 4.0576 53.8936Z"
    fill="#DDBCA6" />
  <path
    d="M24.7144 2.77751C24.7788 2.88141 24.776 2.93651 24.7687 3.07431C24.0525 3.16471 23.7749 2.86331 24.1289 2.09741C24.3498 2.26371 24.4985 2.49611 24.7144 2.77751Z"
    fill="#DAB69E" />
  <path
    d="M70.1593 3.1765C70.3433 3.1469 70.4633 3.1456 70.6743 3.1438C70.6443 3.4125 70.5233 3.6817 70.3073 3.9665C70.1693 3.8309 70.1263 3.6797 70.0193 3.4821C69.9683 3.3383 70.0153 3.2613 70.1593 3.1765Z"
    fill="#D9B196" />
  <path d="M2.89 56.0396C2.7968 56.3036 2.6218 56.6113 2.354 56.9356C2.4435 56.6626 2.6258 56.373 2.89 56.0396Z"
    fill="#DDBCA6" />
  <path
    d="M7.36763 49.377C7.26943 49.6426 7.08343 49.9387 6.80603 50.2538C6.90303 49.9843 7.09143 49.696 7.36763 49.377Z"
    fill="#DDBCA6" />
  <path
    d="M74.8883 0.0519695C74.7003 0.16057 74.4633 0.201671 74.1743 0.179171C74.3613 0.0718706 74.6003 0.0281695 74.8883 0.0519695Z"
    fill="#DAB69E" />
  <path
    d="M15.0107 24.6055C14.8917 24.8751 14.7727 25.1446 14.5581 25.4303C14.4625 25.4465 14.46 25.4443 14.4565 25.3307C14.4361 25.0671 14.4192 24.9171 14.4023 24.7671C14.4023 24.7671 14.3914 24.6818 14.5052 24.6437C14.7496 24.6056 14.8801 24.6056 15.0107 24.6055Z"
    fill="#DAB69E" />
  <path
    d="M80.8243 24.5038C80.7023 24.6016 80.5723 24.6039 80.3453 24.6063C80.2453 24.4843 80.2433 24.3621 80.2393 24.1485C80.2453 23.9939 80.2533 23.9309 80.2803 23.7739C80.4723 23.9227 80.6443 24.1654 80.8243 24.5038Z"
    fill="#DDBCA6" />
  <path
    d="M15.014 24.4921C14.88 24.6054 14.7494 24.6054 14.5204 24.6033C14.5458 24.3252 14.6698 24.0492 14.8801 23.7354C14.9834 23.9247 15.0004 24.1518 15.014 24.4921Z"
    fill="#DDBCA6" />
  <path
    d="M67.7323 7.69761C67.9563 7.60741 68.1493 7.6056 68.4403 7.604C68.3183 7.7891 68.0993 7.9742 67.7793 8.1583C67.6863 8.0336 67.6943 7.90981 67.7323 7.69761Z"
    fill="#D9B196" />
  <path
    d="M13.2204 6.16797C13.234 6.41267 13.1637 6.70107 13.0103 7.01887C12.9969 6.76947 13.0668 6.49057 13.2204 6.16797Z"
    fill="#DDBCA6" />
  <path
    d="M14.3174 24.8154C14.4191 24.9168 14.436 25.0668 14.4551 25.3295C14.3154 25.5181 14.1735 25.5941 13.9553 25.6979C13.9969 25.4385 14.1147 25.1513 14.3174 24.8154Z"
    fill="#DDBCA6" />
  <path
    d="M22.8541 0.793732C22.7564 0.889132 22.6183 0.898229 22.377 0.905529C22.1963 0.765129 22.1189 0.62663 22.0132 0.41333C22.2611 0.46163 22.5374 0.584532 22.8541 0.793732Z"
    fill="#DDBCA6" />
  <path
    d="M85.4823 42.0851C85.4083 41.9981 85.3613 41.8161 85.3863 41.6179C85.4753 41.7312 85.4923 41.8606 85.4823 42.0851Z"
    fill="#DDBCA6" />
  <path d="M6.5513 99.0117C6.5285 99.1787 6.4214 99.3707 6.2262 99.5787C6.2477 99.4087 6.3574 99.2227 6.5513 99.0117Z"
    fill="#DAB69E" />
  <path
    d="M12.9516 27.6318C12.954 27.7898 12.8793 27.9865 12.7284 28.2087C12.7263 28.0464 12.8004 27.8585 12.9516 27.6318Z"
    fill="#DDBCA6" />
  <path
    d="M23.1901 1.46961C23.1017 1.34861 23.1007 1.23301 23.0989 1.03101C23.2711 1.06641 23.444 1.18831 23.6217 1.39711C23.5101 1.48111 23.3938 1.47811 23.1901 1.46961Z"
    fill="#DDBCA6" />
  <path
    d="M4.26294 109.961C4.41694 110.042 4.54414 110.204 4.65584 110.453C4.50564 110.373 4.37084 110.208 4.26294 109.961Z"
    fill="#D8A985" />
  <path
    d="M82.3843 27.6032C82.2243 27.5465 82.0773 27.4049 81.9313 27.1768C82.0873 27.233 82.2423 27.3757 82.3843 27.6032Z"
    fill="#DDBCA6" />
  <path
    d="M160.61 116.555C160.677 116.397 160.83 116.231 161.079 116.07C161.015 116.232 160.855 116.389 160.61 116.555Z"
    fill="#9B7B65" />
  <path
    d="M22.5219 138.467C22.6952 138.493 22.8869 138.604 23.0889 138.808C22.913 138.785 22.7267 138.669 22.5219 138.467Z"
    fill="#DDBCA6" />
  <path
    d="M67.3373 8.45874C67.3173 8.62314 67.2113 8.80174 67.0253 9.00274C67.0473 8.84104 67.1483 8.65704 67.3373 8.45874Z"
    fill="#DAB69E" />
  <path
    d="M167.094 73.3138C166.954 73.2448 166.819 73.0958 166.694 72.8608C166.835 72.9288 166.967 73.0808 167.094 73.3138Z"
    fill="#9B7B65" />
  <path
    d="M23.7159 139.233C23.726 139.097 23.7832 138.978 23.8403 138.86C23.8622 138.936 23.884 139.012 23.8845 139.165C23.8632 139.242 23.763 139.25 23.7159 139.233Z"
    fill="#DAB69E" />
  <path
    d="M14.9469 91.2668C14.9823 91.3398 14.9251 91.4068 14.7781 91.4708C14.7308 91.3898 14.7862 91.3208 14.9469 91.2668Z"
    fill="#DAB69E" />
  <path
    d="M83.8704 81.2028C87.6144 79.6938 90.5874 77.2828 92.5434 73.7118C92.7274 73.3758 92.6954 72.9208 92.7584 72.4118C93.0594 72.5208 93.3664 72.7388 93.7884 73.0388C94.3054 72.3088 94.8144 71.5048 95.4094 70.7698C97.8424 67.7598 100.618 65.1648 103.812 62.9078C108.205 59.8032 113 57.7168 118.112 56.2829C123.111 54.8807 128.287 54.5423 133.385 55.0962C137.555 55.5493 141.765 56.4993 145.716 57.9051C150.936 59.762 155.671 62.6902 159.564 66.7408C161.496 68.7508 163.254 70.9278 165.174 73.0728C165.936 74.4588 166.669 75.7768 167.281 77.1498C168.802 80.5628 169.972 84.0558 170.334 87.8358C170.686 91.5098 170.696 95.1198 169.73 98.6898C168.726 102.399 167.149 105.843 164.671 109.038C164.233 109.698 163.913 110.22 163.592 110.742C162.853 111.602 162.113 112.462 161.368 113.426C161.361 113.53 161.352 113.522 161.352 113.522C160.916 113.758 160.369 113.896 160.062 114.245C158.233 116.319 155.848 117.173 153.206 117.41C147.774 117.896 142.764 116.776 138.322 113.286C138.01 112.878 137.844 112.447 137.54 112.162C135.781 110.505 135.615 108.755 136.994 106.821C137.49 106.125 137.824 105.313 138.309 104.392C139.018 103.264 139.678 102.315 140.279 101.329C141.96 98.5678 143.596 95.7798 145.305 93.0358C145.557 92.6308 146.091 92.1818 146.52 92.1538C147.28 92.1028 148.06 92.3618 148.832 92.4898C151.924 92.9998 155.01 93.5478 158.11 93.9998C159.292 94.1728 159.569 94.6428 159.258 95.7778C158.21 99.5998 157.239 103.442 156.203 107.414C152.82 107.6 149.488 107.782 146.223 107.961C146.022 107.184 145.859 106.653 145.749 106.111C145.156 103.188 144.673 104.121 147.05 102.346C147.606 101.931 148.19 101.551 148.781 101.188C149.37 100.826 150.022 100.363 149.439 99.7018C149.188 99.4188 148.234 99.4758 147.772 99.7128C146.544 100.343 145.411 101.158 144.237 101.895C143.391 102.426 143.042 103.158 143.311 104.144C143.712 105.615 144.144 107.079 144.508 108.559C144.71 109.383 145.158 109.675 145.994 109.645C149.464 109.521 152.938 109.487 156.405 109.297C156.944 109.267 157.786 108.693 157.916 108.215C159.152 103.677 160.25 99.1008 161.423 94.5448C161.737 93.3238 161.415 92.7528 160.096 92.5908C158.132 92.3488 156.194 91.9108 154.238 91.6008C151.553 91.1748 148.863 90.7848 146.173 90.3928C145.3 90.2648 144.704 90.6008 144.24 91.3998C143.176 93.2328 141.984 94.9908 140.912 96.8188C139.513 99.2068 138.178 101.633 136.816 104.042C136.077 104.665 135.295 105.244 134.616 105.927C134.171 106.373 133.775 106.926 133.531 107.504C132.259 110.514 131.175 113.611 129.759 116.549C128.835 118.467 127.577 120.26 126.26 121.946C123.107 125.98 120.034 130.11 116.531 133.826C114.195 136.306 111.231 138.218 108.449 140.248C104.07 143.443 99.0644 145.272 93.7534 145.977C90.6994 146.381 87.5284 146.213 84.4384 145.96C80.7444 145.656 77.3014 144.269 73.9674 142.693C72.7244 142.105 71.5684 141.335 70.2864 140.601C71.3304 139.654 72.5004 138.799 73.5854 137.846C78.4684 133.558 81.5444 128.164 82.9464 121.866C83.4724 119.498 83.5124 117.022 83.7914 114.44C86.0034 114.08 88.0864 113.307 89.6034 111.321C91.1444 109.302 91.6484 107.049 91.2414 104.67C90.3984 99.7478 87.2134 96.2718 83.5644 93.2128C82.2844 92.1398 80.7784 91.1838 79.2124 90.6488C77.9004 90.2008 76.3514 90.4448 74.7054 90.3368C74.0734 89.6578 73.6344 89.0318 73.2184 88.3898C72.7544 87.6738 72.3114 86.9438 71.8694 86.1508C71.8794 86.0828 71.8874 85.9448 71.9934 85.9408C72.6794 85.7518 73.2584 85.5668 73.9474 85.3788C77.5164 84.4268 80.9124 83.3308 83.8704 81.2028ZM117.075 91.5968C117.673 90.7918 118.23 89.9518 118.876 89.1868C121.453 86.1368 124.592 83.9018 128.35 82.4758C131.944 81.1128 135.571 80.3238 139.433 80.9458C139.89 81.0188 140.816 80.6828 140.847 80.4478C140.95 79.6528 140.418 79.2198 139.555 79.2338C138.044 79.2598 136.532 79.2308 135.021 79.2488C130.377 79.3048 126.241 81.0748 122.516 83.5708C118.912 85.9858 116.11 89.2798 114.328 93.4808C113.649 94.5608 112.953 95.6308 112.294 96.7228C110.098 100.36 107.863 103.967 104.365 106.548C103.443 107.228 102.473 107.844 101.538 108.508C99.5794 109.898 97.6684 111.364 95.1424 111.607C94.8214 111.638 94.5334 112.022 94.2304 112.242C94.5574 112.486 94.9594 112.999 95.1974 112.932C96.9904 112.428 98.8104 111.943 100.501 111.184C101.788 110.606 102.96 109.712 104.075 108.822C105.617 107.592 107.211 106.368 108.502 104.895C110.108 103.063 111.51 101.034 112.849 98.9908C114.072 97.1228 115.093 95.1228 116.222 93.0158C116.308 92.8828 116.394 92.7498 116.672 92.5898C116.793 92.3228 116.914 92.0548 117.075 91.5968ZM99.6534 90.5948C100.086 90.2528 100.614 89.9838 100.937 89.5588C103.273 86.4838 105.423 83.2548 107.914 80.3138C110.923 76.7598 114.061 73.2348 118.535 71.4188C120.998 70.4188 123.491 69.3678 126.072 68.8118C130.107 67.9418 134.176 67.9368 137.914 70.1668C138.787 70.6868 139.583 71.3588 140.5 71.7718C140.962 71.9798 141.615 71.7638 142.182 71.7388C142.061 71.3068 142.072 70.6288 141.798 70.4818C139.53 69.2648 137.317 67.5838 134.881 67.1128C129.437 66.0598 124.166 66.9478 118.997 69.3188C113.81 71.6968 109.833 75.2718 106.395 79.6408C103.142 83.7748 99.8974 87.9158 96.4504 92.0568C95.8094 92.3828 95.1394 92.6628 94.5434 93.0548C94.2934 93.2188 94.2004 93.6218 94.0364 93.9158C94.4114 94.1058 94.8314 94.5148 95.1514 94.4468C96.3444 94.1938 97.3984 93.6498 97.9474 92.3018C98.0224 92.2458 98.0714 92.1728 98.2724 92.0568C98.4874 91.8728 98.7024 91.6898 98.9294 91.3788C98.9294 91.3788 98.9354 91.2508 99.1114 91.2168C99.2354 91.0358 99.3584 90.8548 99.6534 90.5948Z"
    fill="#B98C6D" />
  <path
    d="M61.5571 99.0398C61.9327 102.286 62.5922 105.53 62.6061 108.777C62.6208 112.21 62.0974 115.66 59.9675 118.607C58.0437 121.269 55.3525 122.713 52.2258 123.252C48.7443 123.851 45.2077 123.872 41.7619 122.975C38.0954 122.022 35.4839 119.665 34.0137 116.212C32.6945 113.114 32.4206 109.783 32.6239 106.451C32.7453 104.46 33.1282 102.483 33.4378 100.507C33.5063 100.069 33.7619 99.6608 33.9454 99.0148C34.1327 98.0478 34.2861 97.3008 34.4834 96.5658C34.8616 95.1568 35.2647 93.7548 35.6576 92.3498C36.2081 91.3528 36.7078 90.3218 37.3352 89.3748C37.5718 89.0188 38.1076 88.6348 38.5007 88.6418C42.9367 88.7158 47.3709 88.9308 51.8066 88.9628C53.7705 88.9768 55.7367 88.6598 57.6577 88.4968C58.2586 89.8088 58.8304 91.0568 59.5043 92.4368C60.2567 94.7268 60.9069 96.8828 61.5571 99.0398Z"
    fill="#B98C6D" />
  <path
    d="M77.4534 91.5277C79.2874 92.6517 81.2824 93.5807 82.9194 94.9417C86.0394 97.5367 88.6954 100.636 89.5674 104.716C90.4944 109.058 87.1104 113.149 82.9834 112.605C83.0944 111.816 83.4044 111.014 83.2734 110.293C82.8804 108.138 82.3264 106.011 81.8034 103.881C81.7444 103.643 81.4844 103.455 81.2104 103.111C80.9014 102.131 80.6984 101.283 80.4934 100.332C80.1434 99.8147 79.7944 99.4007 79.4414 98.8757C79.2184 97.2177 78.5584 95.9417 77.1894 95.1007C76.8264 94.3387 76.4634 93.5767 76.0474 92.6227C75.6494 90.7897 76.9474 91.7987 77.4534 91.5277Z"
    fill="#BA8D6E" />
  <path
    d="M50.7754 87.4027C52.7032 87.1387 54.7114 86.9537 56.7208 86.7817C65.7023 86.0137 74.4453 84.2947 82.6063 80.2667C83.0603 80.0427 83.4943 79.7787 84.0933 79.5107C84.3203 79.4577 84.3753 79.4077 84.4113 79.3387C84.5473 79.2357 84.6833 79.1337 84.9013 79.0107C84.6193 79.5657 84.2553 80.1407 83.7863 80.8137C83.5583 80.9107 83.4343 80.9107 83.2693 80.8477C83.0713 80.8277 82.9133 80.8697 82.6553 80.9307C81.4243 81.5367 80.3403 82.2537 79.1523 82.6847C76.9463 83.4837 74.6803 84.1147 72.3563 84.8227C72.1433 84.9177 72.0133 85.0067 71.7903 85.1037C71.3873 85.2917 71.0773 85.4727 70.7673 85.6527C67.7953 86.1277 64.8227 86.6067 61.8489 87.0757C61.3184 87.1587 60.7822 87.2367 60.2468 87.2517C57.1169 87.3407 53.9865 87.4107 50.7754 87.4027Z"
    fill="#D7B298" />
  <path
    d="M77.4323 91.4168C76.9473 91.7988 75.6493 90.7898 76.0313 92.5288C75.0893 92.5428 74.6213 91.9458 74.1183 91.1198C73.3773 89.9048 72.3053 88.8968 71.4273 87.7598C71.1313 87.3768 70.9983 86.8688 70.8893 86.3158C71.2783 86.2148 71.5693 86.2179 71.8593 86.2199C72.3113 86.9439 72.7543 87.6739 73.2183 88.3899C73.6343 89.0319 74.0743 89.6578 74.5883 90.3358C75.0553 90.5708 75.4223 90.8089 75.8233 90.9399C76.3383 91.1069 76.8813 91.1878 77.4323 91.4168Z"
    fill="#D9B196" />
  <path
    d="M77.1863 95.2097C78.5583 95.9417 79.2183 97.2177 79.4403 98.9767C79.7953 99.6027 80.1453 100.019 80.4953 100.435C80.6983 101.283 80.9013 102.131 81.1123 103.092C79.6883 102.941 79.6713 101.48 79.4663 100.633C79.0783 99.0347 78.0753 97.8187 77.5163 96.3647C77.3843 96.0237 77.2933 95.6677 77.1863 95.2097Z"
    fill="#D9B196" />
  <path
    d="M61.6659 99.0347C60.907 96.8827 60.2568 94.7267 59.6061 92.4597C59.9574 92.5997 60.4998 92.7757 60.6289 93.1117C61.236 94.6897 61.769 96.3007 62.2285 97.9277C62.3135 98.2287 61.9377 98.6597 61.6659 99.0347Z"
    fill="#D9B196" />
  <path
    d="M35.577 92.3218C35.2648 93.7548 34.8617 95.1568 34.4834 96.5658C34.2862 97.3008 34.1328 98.0478 33.9481 98.9078C33.6317 99.0888 33.3267 99.1518 32.6224 99.2968C33.1262 97.6458 33.4797 96.1978 34.0195 94.8228C34.3719 93.9248 34.9947 93.1338 35.577 92.3218Z"
    fill="#D9B196" />
  <path
    d="M71.8693 86.1507C71.5683 86.2177 71.2783 86.2147 70.8783 86.2127C70.7683 86.0887 70.7683 85.9647 70.7683 85.7467C71.0773 85.4727 71.3873 85.2917 71.7903 85.2097C71.8843 85.5197 71.8863 85.7317 71.8873 85.9447C71.8873 85.9447 71.8793 86.0827 71.8693 86.1507Z"
    fill="#D8A985" />
  <path
    d="M15.4139 19.5849C14.0504 16.5289 13.7104 13.351 13.9559 9.91876C14.06 9.57986 14.0941 9.41746 14.1282 9.25516C14.142 8.78316 14.1558 8.31126 14.2409 7.67806C14.3631 7.36076 14.4141 7.20466 14.4651 7.04856C14.5451 6.91816 14.6252 6.78766 14.7866 6.51536C15.0094 5.85276 15.1507 5.33216 15.2921 4.81156C15.7602 4.14006 16.2283 3.46866 16.6972 2.69546C16.698 2.59366 16.6927 2.59096 16.7867 2.58446C17.1907 2.39866 17.5008 2.21946 17.8109 2.04026C17.9038 2.03836 17.9977 2.04476 18.0894 2.03326C21.7717 1.57126 23.3198 2.51916 24.8558 6.02476C25.48 7.44956 26.2703 8.80166 26.8231 9.87286C24.1774 12.4247 21.6549 14.8273 19.175 17.2731C18.6222 17.8183 18.1908 18.4962 17.7543 19.1471C17.1418 20.0605 16.4636 20.4561 15.4139 19.5849Z"
    fill="#BA8D6E" />
  <path
    d="M76.2163 1.75221C79.4373 3.18571 80.5503 5.85271 81.1323 9.01121C81.7723 12.48 80.9283 15.6878 79.8443 18.8784C79.6413 19.4754 78.9633 19.9108 78.3993 20.4222C76.8363 18.5616 75.5013 16.5844 73.8843 14.8721C72.4693 13.3725 70.7113 12.2003 69.1683 10.8128C68.8423 10.5198 68.5173 9.79141 68.6613 9.48271C69.4713 7.74651 70.4053 6.0666 71.3403 4.3915C71.6463 3.843 72.1143 3.38701 72.4513 2.85311C73.3543 1.42361 74.7773 1.78331 76.2163 1.75221Z"
    fill="#BA8D6E" />
  <path
    d="M46.4926 69.2608C44.9731 68.7968 43.374 68.4978 41.9587 67.8178C40.7782 67.2498 40.4932 66.0028 40.8111 64.6888C41.3181 62.5939 42.1641 60.6799 43.8439 59.0054C44.7382 58.5942 45.4842 58.2953 46.2301 57.9963C46.4465 58.0285 46.663 58.0608 47.1004 58.077C47.7928 58.0508 48.2642 58.0407 48.7356 58.0305C48.9365 58.0668 49.1374 58.1032 49.5079 58.2136C50.2813 58.5047 50.885 58.7216 51.4888 58.9386C52.9073 60.4449 53.8839 62.2013 54.3938 64.2028C55.0287 66.6948 54.3452 67.9458 51.8577 68.6958C50.9396 68.9718 49.9548 69.0278 48.7578 69.1868C47.8411 69.2128 47.1668 69.2368 46.4926 69.2608ZM44.9528 59.9304C44.4262 60.5532 43.7697 61.1359 44.2315 62.4018C44.7894 61.5065 45.2004 60.8664 45.5701 60.2033C45.5913 60.1654 45.2759 59.9398 44.9528 59.9304Z"
    fill="#060505" />
  <path
    d="M68.0503 49.9036C68.4073 51.5908 68.7563 53.1811 69.0063 54.7868C69.2453 56.3238 69.1763 57.8491 68.1243 59.1253C66.6813 60.8782 64.1356 60.8609 62.4782 58.7641C61.3183 57.2967 60.6835 55.4142 59.7932 53.5267C59.7163 53.1443 59.6603 52.9524 59.6042 52.7605C59.5978 52.6106 59.5913 52.4608 59.5438 52.1414C59.4315 51.7758 59.3603 51.5799 59.2892 51.3839C59.3159 50.8016 59.3427 50.2192 59.3505 49.4324C59.3163 49.1103 59.3011 48.9926 59.2859 48.8749C59.3999 48.5866 59.5139 48.2982 59.7134 47.873C60.0361 47.4684 60.2734 47.2008 60.5107 46.9331C60.6001 46.9512 60.6738 46.925 60.8348 46.7751C61.1084 46.5561 61.2788 46.4164 61.4492 46.2767C61.4492 46.2767 61.4779 46.2514 61.5196 46.2529C61.5612 46.2545 61.6117 46.252 61.6117 46.252C61.6117 46.252 61.7136 46.2954 61.8533 46.2736C62.0469 46.2231 62.1008 46.1943 62.1548 46.1656C62.3579 46.1639 62.5609 46.1623 62.9736 46.1696C63.5771 46.162 63.9709 46.1454 64.3647 46.1289C64.5537 46.2168 64.7427 46.3046 65.0116 46.3944C66.4803 47.1784 67.4283 48.3344 68.0503 49.9036Z"
    fill="#0C0A09" />
  <path
    d="M67.4665 47.7885C67.1347 48.0318 67.3588 47.7683 67.0516 47.9433C66.9216 48.0173 66.1457 48.0205 66.052 47.9433C65.957 47.8648 66.0139 47.7738 66.0519 47.624C68.4236 47.2646 68.4749 45.8988 68.9717 46.0177C68.5349 45.963 69.1326 46.0562 68.9717 46.0177C68.9792 46.1916 68.385 46.9141 68.2288 47.0088C67.9073 47.2038 67.8632 47.6069 67.4665 47.7885Z"
    fill="#0C0401" />
  <path
    d="M67.9512 48.7886C67.5098 49.032 67.8079 48.7684 67.3992 48.9434C67.2262 49.0174 66.1938 49.0207 66.0692 48.9434C65.9428 48.8649 66.0185 48.774 66.0691 48.6241C68.963 48.5183 69.5415 46.9631 69.954 47.0179C69.5415 46.9631 70.1681 47.0563 69.954 47.0179C69.964 47.1918 69.1709 47.9143 68.963 48.009C68.8022 48.0823 68.479 48.607 67.9512 48.7886Z"
    fill="#0C0401" />
  <path
    d="M61.6793 49.954C62.0803 49.43 62.4453 48.785 62.8863 48.728C63.2273 48.684 63.7923 49.318 64.0023 49.769C64.1083 49.999 63.5753 50.832 63.4643 50.807C62.8463 50.665 62.2683 50.345 61.6793 49.954Z"
    fill="#D7B298" />
  <path
    d="M35.5529 53.5386C35.0441 55.7437 33.8233 57.5364 32.4042 59.2577C31.325 60.5668 30.07 60.6059 28.6647 60.1282C27.2074 59.6328 26.2409 58.5035 26.2911 57.0448C26.3698 54.7587 26.8172 52.4852 27.1748 50.0267C27.785 48.9172 28.3289 47.9873 28.9135 46.9881C28.7045 46.8152 29.1947 46.9584 28.9135 46.7258C29.1191 46.632 29.4782 46.7557 29.1794 46.7258C29.6794 46.2258 30.1222 46.2326 30.6976 46.2065C30.9763 46.1834 31.2549 46.1603 31.7431 46.1592C33.3224 46.0123 34.3707 46.673 35.355 47.499C35.3445 47.5954 35.3783 47.6723 35.5309 47.8279C35.6901 48.0625 35.7747 48.199 35.8594 48.3354C35.8725 49.3539 35.8856 50.3724 35.8496 51.6079C35.7179 52.3961 35.6354 52.9673 35.5529 53.5386ZM30.6396 50.3879C31.1196 50.598 31.5883 50.8575 32.0901 50.9723C32.1794 50.9928 32.6123 50.317 32.5256 50.1306C32.3554 49.7647 31.8972 49.2512 31.6209 49.2867C31.2635 49.3327 30.9674 49.856 30.6396 50.3879Z"
    fill="#0C0A09" />
  <path
    d="M28.0982 46.4338C28.4231 46.5826 28.7044 46.8152 28.9134 46.9881C28.3288 47.9873 27.7849 48.9172 27.1769 49.9135C22.324 48.7889 17.4943 47.9004 12.5298 47.9836C12.2181 47.9888 11.9043 47.8697 11.4888 47.7476C11.391 47.4098 11.3957 47.133 11.4034 46.7521C13.1059 46.7374 14.8827 46.5465 16.4853 46.988C18.4293 47.5237 20.2949 47.9116 22.2971 47.5762C22.5301 47.5371 22.881 47.8338 23.0863 48.0581C24.1544 49.2248 25.3886 48.6069 26.6025 48.4988C26.6396 48.3027 26.7253 48.1434 26.6791 48.0484C26.2553 47.1784 25.6826 46.3611 27.1793 46.7258C27.3364 46.7641 27.8623 46.6233 28.0982 46.4338Z"
    fill="#DDBCA6" />
  <path
    d="M46.4847 5.49175C46.7198 5.39975 46.9181 5.39775 47.2146 5.39985C47.4165 7.00495 47.5521 8.60454 47.6137 10.2069C47.6616 11.452 47.6831 12.7064 47.5746 13.9443C47.5408 14.3291 47.0433 14.6733 46.7581 15.0361C46.4911 14.6751 45.9942 14.3133 45.9954 13.9532C46.0019 12.0479 46.1233 10.1425 46.2267 8.23835C46.2749 7.35145 46.3725 6.46715 46.4847 5.49175Z"
    fill="#A97E5F" />
  <path
    d="M39.2315 6.55082C39.564 6.46412 39.8587 6.48042 40.2629 6.51012C40.0621 9.16402 39.7517 11.8045 39.2718 14.511C38.7138 14.7667 38.3252 14.9565 37.9366 15.1463C38.3556 12.3154 38.7746 9.48462 39.2315 6.55082Z"
    fill="#A97E5F" />
  <path
    d="M29.5907 42.454C28.9904 42.905 28.4954 43.3338 27.9395 43.6581C27.7043 43.7953 27.2348 43.8382 27.0654 43.695C26.8935 43.5496 26.8701 43.0997 26.9389 42.822C27.1747 41.8696 30.4939 39.6376 31.3928 39.858C31.6839 39.9293 32.0823 40.3224 32.0934 40.5826C32.107 40.9049 31.8486 41.3706 31.566 41.5462C30.9843 41.9076 30.3085 42.1174 29.5907 42.454Z"
    fill="#26160E" />
  <path
    d="M53.5016 6.06865C53.8957 5.92245 54.2882 5.90495 54.7672 5.99175C54.8537 6.09595 54.862 6.21574 54.862 6.21574C55.0471 8.36354 55.2321 10.5114 55.3099 12.7831C54.82 13.0892 54.4372 13.2715 54.0545 13.4539C53.8696 11.035 53.6848 8.61625 53.5016 6.06865Z"
    fill="#A97E5F" />
  <path
    d="M65.7203 40.5255C66.4483 41.0243 67.1693 41.4013 67.6933 41.9617C68.0953 42.3913 68.2493 43.0524 68.5143 43.6106C68.3863 43.716 68.2593 43.8214 68.1313 43.9268C67.7063 43.7283 67.2683 43.5524 66.8573 43.3267C65.8923 42.7961 64.9066 42.2912 63.9991 41.6733C63.6227 41.417 63.142 40.8455 63.2048 40.5103C63.3363 39.8085 63.9543 39.6737 64.6167 40.0202C64.9446 40.1917 65.2902 40.3295 65.7203 40.5255Z"
    fill="#26160E" />
  <path
    d="M35.6668 53.5559C35.6353 52.9674 35.7177 52.3961 35.8611 51.7358C36.6835 53.0822 37.8291 53.9185 39.3828 54.529C40.6615 55.0315 42.1681 55.4086 42.9379 56.9262C43.3755 57.7888 44.2825 58.2788 45.3854 57.684C45.5749 57.5818 45.9178 57.7638 46.2099 57.9054C45.4841 58.2953 44.7382 58.5942 43.9006 58.9311C42.3912 57.776 41.048 56.4753 39.5313 55.4254C38.3972 54.6404 37.0391 54.1788 35.6668 53.5559Z"
    fill="#DAB69E" />
  <path
    d="M37.9159 15.2616C38.3252 14.9565 38.7138 14.7667 39.2042 14.5786C39.1988 16.3682 39.1277 18.1597 38.9535 19.9411C38.9193 20.2915 38.4873 20.6029 38.2387 20.9323C38.0223 20.6007 37.6159 20.2655 37.622 19.9381C37.6505 18.4166 37.7932 16.8972 37.9159 15.2616Z"
    fill="#966E54" />
  <path
    d="M54.0499 13.5849C54.4373 13.2716 54.82 13.0892 55.3004 12.9109C55.4031 13.2058 55.4082 13.4968 55.3127 13.9176C55.2977 14.5967 55.3832 15.1458 55.4687 15.6949C55.4696 16.5361 55.4706 17.3772 55.3937 18.3759C55.4286 18.7072 55.5415 18.8808 55.6543 19.0545C55.6686 19.2552 55.6828 19.456 55.5892 19.7734C55.021 19.9694 54.5606 20.0489 54.1003 20.1284C54.0819 17.9909 54.0636 15.8534 54.0499 13.5849Z"
    fill="#966E54" />
  <path
    d="M51.5237 58.8452C50.885 58.7216 50.2812 58.5047 49.6108 58.2145C50.3782 57.8538 51.2294 57.6063 52.0384 57.2603C52.388 57.1107 52.7575 56.8156 52.9346 56.4875C53.8139 54.8592 55.2672 54.3047 57.1077 54.207C55.6605 55.4196 54.0832 56.6008 52.5241 57.8054C52.17 58.0791 51.8788 58.4341 51.5237 58.8452Z"
    fill="#DAB69E" />
  <path
    d="M54.0804 20.255C54.5607 20.0489 55.021 19.9694 55.5811 19.8738C55.6878 20.6001 55.7989 21.3625 55.6611 22.0769C55.5834 22.4794 55.0955 22.8029 54.7924 23.1619C54.5441 22.792 54.1718 22.4507 54.0783 22.0451C53.9565 21.5174 54.0562 20.9385 54.0804 20.255Z"
    fill="#A97E5F" />
  <path
    d="M35.3559 47.387C34.3705 46.673 33.3221 46.0123 31.846 46.1376C31.7617 46.0062 31.7542 45.876 31.8104 45.8366C32.6871 45.2221 35.1016 46.2064 35.3559 47.387Z"
    fill="#DAB69E" />
  <path
    d="M17.8165 1.94254C17.5008 2.21934 17.1907 2.39854 16.7886 2.58584C16.6305 1.71574 16.8256 1.02014 17.9736 0.915039C17.9933 1.22414 17.9077 1.53454 17.8165 1.94254Z"
    fill="#DAB69E" />
  <path
    d="M59.499 52.7627C59.6602 52.9525 59.7163 53.1444 59.7461 53.4338C59.1042 53.7265 58.4885 53.9217 57.7672 54.1221C58.2389 53.673 58.8164 53.2189 59.499 52.7627Z"
    fill="#DAB69E" />
  <path
    d="M55.5338 15.6214C55.3833 15.1457 55.2978 14.5965 55.3034 14.0266C55.4627 14.5198 55.5307 15.034 55.5338 15.6214Z"
    fill="#A97E5F" />
  <path
    d="M30.6368 46.1133C30.1222 46.2326 29.5468 46.2586 28.9401 46.1905C29.4646 46.071 30.0203 46.0455 30.6368 46.1133Z"
    fill="#DAB69E" />
  <path
    d="M60.1899 7.41673C60.5954 7.36543 61.0131 7.40643 61.5 7.52513C61.0536 8.44463 60.6187 8.11053 60.1899 7.41673Z"
    fill="#D9B196" />
  <path
    d="M54.9739 6.21174C54.8621 6.21554 54.8538 6.09573 54.8519 6.03613C55.4615 5.90883 56.073 5.84123 56.7576 5.85103C56.249 6.02163 55.6674 6.11484 54.9739 6.21174Z"
    fill="#D9B196" />
  <path
    d="M64.3458 46.0239C63.9709 46.1457 63.5771 46.1622 63.071 46.1392C63.3048 45.2074 63.7889 45.3588 64.3458 46.0239Z"
    fill="#DAB69E" />
  <path d="M60.417 46.8974C60.2735 47.2009 60.0362 47.4686 59.7192 47.78C59.8146 47.4654 59.148 46.5092 60.417 46.8974Z"
    fill="#DAB69E" />
  <path
    d="M16.2065 21.2033C15.8869 21.132 15.6313 21.0006 15.3359 20.7883C15.6209 20.8526 15.9457 20.9979 16.2065 21.2033Z"
    fill="#DAB69E" />
  <path
    d="M48.6658 57.9597C48.2642 58.0406 47.7928 58.0508 47.205 58.0409C47.5911 57.9769 48.0935 57.9329 48.6658 57.9597Z"
    fill="#DAB69E" />
  <path
    d="M55.6688 18.9725C55.5414 18.8808 55.4286 18.7072 55.3921 18.502C55.54 18.6105 55.6116 18.7506 55.6688 18.9725Z"
    fill="#A97E5F" />
  <path
    d="M61.3474 46.2231C61.2788 46.4166 61.1084 46.5563 60.8513 46.7163C60.9249 46.5476 61.0853 46.3585 61.3474 46.2231Z"
    fill="#DAB69E" />
  <path
    d="M72.1703 1.28394C72.2823 1.19864 72.4063 1.19574 72.6223 1.19214C72.6523 1.33614 72.5893 1.48074 72.5263 1.62534C72.4113 1.53904 72.2963 1.45274 72.1703 1.28394Z"
    fill="#D9B196" />
  <path
    d="M35.9311 48.2859C35.7745 48.199 35.6899 48.0626 35.5942 47.8442C35.7232 47.9203 35.8631 48.0784 35.9311 48.2859Z"
    fill="#DAB69E" />
  <path
    d="M59.2271 51.4502C59.3604 51.5801 59.4315 51.776 59.5024 52.0769C59.3897 51.96 59.2774 51.7381 59.2271 51.4502Z"
    fill="#DAB69E" />
  <path d="M62.1736 7.6744C62.2813 7.6527 62.4362 7.6987 62.6377 7.8129C62.5298 7.8347 62.3753 7.7884 62.1736 7.6744Z"
    fill="#D9B196" />
  <path
    d="M59.235 48.9167C59.301 48.9927 59.3163 49.1103 59.3067 49.3141C59.2494 49.253 59.2168 49.1057 59.235 48.9167Z"
    fill="#DAB69E" />
  <path
    d="M24.7858 3.50537C24.8692 3.55277 24.9566 3.68297 25.0489 3.89537C24.9658 3.84787 24.8778 3.71797 24.7858 3.50537Z"
    fill="#DAB69E" />
  <path
    d="M62.1185 46.1025C62.1009 46.1945 62.047 46.2232 61.9013 46.246C61.9005 46.1731 61.9912 46.1062 62.1185 46.1025Z"
    fill="#DAB69E" />
  <path
    d="M61.5896 46.1796C61.6117 46.252 61.5612 46.2546 61.5386 46.2552C61.49 46.1956 61.4641 46.1354 61.4382 46.0752C61.4813 46.0858 61.5244 46.0965 61.5896 46.1796Z"
    fill="#DAB69E" />
  <path
    d="M10.8307 41.8184C10.7999 41.8118 10.7697 41.7388 10.7843 41.6428C10.8291 41.6197 10.8313 41.7522 10.8307 41.8184Z"
    fill="#DDBCA6" />
  <path
    d="M136.887 104.122C138.178 101.633 139.513 99.2067 140.912 96.8187C141.984 94.9907 143.176 93.2327 144.24 91.3997C144.704 90.6007 145.3 90.2647 146.173 90.3927C148.863 90.7847 151.553 91.1747 154.238 91.6007C156.194 91.9107 158.132 92.3487 160.096 92.5907C161.415 92.7527 161.737 93.3237 161.423 94.5447C160.25 99.1007 159.152 103.677 157.916 108.215C157.786 108.693 156.944 109.267 156.405 109.297C152.938 109.487 149.464 109.521 145.994 109.645C145.158 109.675 144.71 109.383 144.508 108.559C144.144 107.079 143.712 105.615 143.311 104.144C143.042 103.158 143.391 102.426 144.237 101.895C145.411 101.158 146.544 100.343 147.772 99.7127C148.234 99.4757 149.188 99.4187 149.439 99.7017C150.022 100.363 149.37 100.826 148.781 101.188C148.19 101.551 147.606 101.931 147.051 102.346C144.673 104.121 145.156 103.188 145.749 106.111C145.859 106.653 146.022 107.184 146.223 107.961C149.488 107.782 152.82 107.6 156.203 107.414C157.239 103.442 158.21 99.5997 159.258 95.7777C159.569 94.6427 159.292 94.1727 158.11 93.9997C155.01 93.5477 151.924 92.9997 148.832 92.4897C148.06 92.3617 147.28 92.1027 146.52 92.1537C146.091 92.1817 145.557 92.6307 145.305 93.0357C143.596 95.7797 141.96 98.5677 140.279 101.329C139.679 102.315 139.019 103.264 138.313 104.288C137.812 104.298 137.385 104.25 136.887 104.122ZM137.832 103.639C137.832 103.639 137.801 103.658 137.832 103.639V103.639Z"
    fill="#966E54" />
  <path
    d="M8.32629 111.58C8.64889 111.62 8.97309 111.658 9.29739 111.697C9.26939 111.811 9.24139 111.925 9.21339 112.039C8.94779 111.94 8.68229 111.841 8.37339 111.658C8.33009 111.575 8.32779 111.579 8.32629 111.58Z"
    fill="#D8A985" />
  <path
    d="M15.388 92.3548C15.3584 92.2078 15.4217 92.0618 15.4849 91.9158C15.5999 92.0018 15.7149 92.0868 15.8408 92.2548C15.728 92.3438 15.6044 92.3488 15.388 92.3548Z"
    fill="#DAB69E" />
  <path d="M163.7 110.742C163.913 110.22 164.233 109.698 164.63 109.123C165.522 110.085 165.303 110.492 163.7 110.742Z"
    fill="#9B7B65" />
  <path
    d="M161.357 113.525C161.685 113.564 162.017 113.607 162.349 113.651C162.315 113.818 162.281 113.986 162.247 114.154C161.958 114.006 161.668 113.859 161.365 113.617C161.352 113.522 161.361 113.53 161.357 113.525Z"
    fill="#9B7B65" />
  <path
    d="M163.594 112.974C163.604 113.106 163.614 113.238 163.664 113.46C163.703 113.551 163.68 113.537 163.683 113.549C163.442 113.526 163.199 113.492 162.682 113.418C163.076 113.184 163.243 113.085 163.501 112.979C163.591 112.972 163.594 112.974 163.594 112.974Z"
    fill="#9B7B65" />
  <path
    d="M163.59 112.971C163.624 112.85 163.659 112.73 163.695 112.61C163.699 112.708 163.703 112.806 163.651 112.939C163.594 112.974 163.591 112.972 163.59 112.971Z"
    fill="#9B7B65" />
  <path
    d="M3.35608 71.7928C3.88188 71.5638 4.48538 71.5078 5.00928 71.2738C6.90278 70.4288 8.75878 69.4988 10.6586 68.6678C10.9314 68.5488 11.6342 68.7358 11.6725 68.8938C11.7592 69.2528 11.6863 69.9008 11.4473 70.0428C10.3867 70.6738 9.24518 71.1678 8.13188 71.7098C6.97258 72.2738 5.81198 72.8348 4.56128 73.4348C4.50768 73.1298 4.54468 72.7888 4.57818 72.4808C4.15918 72.2688 3.77818 72.0768 3.35608 71.7928ZM5.11718 72.1598C5.11718 72.1598 5.09798 72.1278 5.11718 72.1598V72.1598Z"
    fill="#DDBCA6" />
  <path
    d="M1.93481 65.1028C3.07981 64.9608 4.23821 64.8268 5.38051 64.9108C5.89121 64.9478 6.36982 65.4238 6.86292 65.7008C6.43492 65.9418 6.03101 66.3088 5.57351 66.3968C4.72031 66.5608 3.83581 66.5638 2.84741 66.5978C2.46761 66.1078 2.20461 65.6538 1.93481 65.1028Z"
    fill="#DDBCA6" />
  <path
    d="M5.2696 59.5883C4.6843 59.5477 4.099 59.5072 3.4043 59.4404C3.4163 58.7902 3.5378 58.1663 3.7661 57.5227C4.1767 57.7072 4.4806 57.9114 4.8886 58.2322C5.085 58.762 5.1773 59.1751 5.2696 59.5883Z"
    fill="#DDBCA6" />
  <path
    d="M3.18972 59.4451C3.15322 59.532 3.03612 59.6299 2.84082 59.7455C2.87822 59.6609 2.99362 59.5585 3.18972 59.4451Z"
    fill="#DDBCA6" />
  <path
    d="M90.2723 72.7518C88.2633 72.0588 86.2403 71.3148 84.2823 70.4268C83.8763 70.2428 83.7113 69.5248 83.4353 69.0538C83.9763 68.9888 84.6013 68.7148 85.0413 68.8948C86.7423 69.5888 88.3743 70.4468 90.0513 71.2018C90.5813 71.4408 91.1703 71.5518 91.8423 71.7088C91.6243 71.8258 91.2793 71.9238 90.9733 72.0928C90.7183 72.2348 90.5103 72.4598 90.2723 72.7518Z"
    fill="#DDBCA6" />
  <path
    d="M83.3093 80.9099C83.4343 80.9109 83.5583 80.9119 83.7763 80.9109C83.8703 80.9589 83.8703 81.0079 83.8703 81.1299C80.9123 83.3309 77.5163 84.4269 73.9003 85.3079C73.3093 85.0989 72.8743 84.9579 72.4393 84.8169C74.6803 84.1149 76.9463 83.4839 79.1523 82.6849C80.3403 82.2539 81.4243 81.5369 82.6953 80.9949C82.9933 80.9959 83.1513 80.9529 83.3093 80.9099Z"
    fill="#D8A985" />
  <path
    d="M93.3124 66.9368C92.0394 66.8308 90.7604 66.6738 89.5064 66.3988C89.1034 66.3108 88.7674 65.9148 88.4014 65.6598C88.7674 65.3698 89.1274 64.8438 89.5014 64.8338C90.6944 64.8008 91.8934 64.9608 93.2154 65.0328C93.0494 65.3828 92.7584 65.7458 92.4654 66.1108C92.7294 66.3368 93.0224 66.5878 93.3124 66.9368Z"
    fill="#EDB6B0" />
  <path
    d="M89.9844 58.2815C90.3814 58.0752 90.7784 57.869 91.2294 57.5701C92.5114 57.6684 91.3624 58.7796 91.9584 59.3147C91.3764 59.4909 90.7924 59.5688 90.1034 59.5116C89.9934 59.0115 89.9894 58.6465 89.9844 58.2815Z"
    fill="#DDBCA6" />
  <path
    d="M86.4203 78.1029C86.4753 77.9419 86.6213 77.7818 86.8553 77.6208C86.7993 77.7808 86.6553 77.9419 86.4203 78.1029Z"
    fill="#DDBCA6" />
  <path
    d="M92.8243 70.0167C92.7763 69.8667 92.8203 69.7177 92.9193 69.5127C92.9543 69.6437 92.9343 69.8307 92.8243 70.0167Z"
    fill="#DDBCA6" />
  <path
    d="M85.2812 78.9277C85.3423 78.7637 85.4983 78.6047 85.7423 78.4397C85.6803 78.6007 85.5282 78.7667 85.2812 78.9277Z"
    fill="#DDBCA6" />
  <path
    d="M90.7073 73.2908C90.5363 73.2398 90.4093 73.1318 90.2703 72.9358C90.4233 72.9768 90.5873 73.1058 90.7073 73.2908Z"
    fill="#DDBCA6" />
  <path
    d="M15.1958 4.82788C15.1507 5.33198 15.0093 5.85258 14.7866 6.43408C13.5568 5.63918 15.0159 5.40598 15.1958 4.82788Z"
    fill="#D8A985" />
  <path
    d="M14.0526 9.27075C14.094 9.41755 14.0599 9.57985 13.9524 9.78825C13.9117 9.65155 13.9443 9.46895 14.0526 9.27075Z"
    fill="#D8A985" />
  <path
    d="M14.3827 7.05493C14.4141 7.20463 14.3631 7.36073 14.2394 7.55983C14.2112 7.42233 14.2558 7.24183 14.3827 7.05493Z"
    fill="#D8A985" />
  <path
    d="M96.6493 92.0529C99.8973 87.9159 103.142 83.7749 106.395 79.6409C109.833 75.2719 113.81 71.6969 118.997 69.3189C124.166 66.9479 129.437 66.0599 134.881 67.1129C137.317 67.5839 139.53 69.2649 141.798 70.4819C142.072 70.6289 142.061 71.3069 142.182 71.7389C141.615 71.7639 140.962 71.9799 140.5 71.7719C139.583 71.3589 138.787 70.6869 137.914 70.1669C134.176 67.9369 130.107 67.9419 126.072 68.8119C123.491 69.3679 120.998 70.4189 118.535 71.4189C114.061 73.2349 110.923 76.7599 107.914 80.3139C105.423 83.2549 103.273 86.4839 100.937 89.5589C100.614 89.9839 100.086 90.2529 99.4763 90.6459C99.1783 90.8809 99.0563 91.0658 98.9353 91.2508C98.9353 91.2508 98.9293 91.3789 98.8243 91.4439C98.5113 91.7009 98.3033 91.8918 98.0953 92.0828C98.0713 92.1728 98.0213 92.2459 97.7943 92.2889C97.3113 92.2019 96.9803 92.1279 96.6493 92.0529Z"
    fill="#8B644B" />
  <path
    d="M114.516 93.4377C116.11 89.2797 118.912 85.9857 122.516 83.5707C126.241 81.0747 130.377 79.3047 135.021 79.2487C136.532 79.2307 138.044 79.2597 139.555 79.2337C140.418 79.2197 140.95 79.6527 140.847 80.4477C140.816 80.6827 139.89 81.0187 139.433 80.9457C135.571 80.3237 131.944 81.1127 128.35 82.4757C124.592 83.9017 121.453 86.1377 118.876 89.1867C118.23 89.9517 117.673 90.7917 116.975 91.7307C116.744 92.1147 116.612 92.3657 116.48 92.6167C116.394 92.7497 116.308 92.8827 116.11 93.0987C115.653 93.4307 115.308 93.6807 114.822 94.0327C114.801 93.9927 114.659 93.7157 114.516 93.4377Z"
    fill="#8B644B" />
  <path
    d="M114.422 93.4599C114.659 93.7159 114.801 93.9929 114.822 94.0329C115.308 93.6809 115.653 93.4309 116.101 93.1809C115.093 95.1229 114.072 97.1229 112.849 98.9909C111.51 101.034 110.108 103.063 108.502 104.895C107.211 106.368 105.617 107.592 104.075 108.822C102.96 109.712 101.788 110.607 100.501 111.184C98.8103 111.943 96.9903 112.428 95.1973 112.932C94.9593 112.999 94.5573 112.486 94.2313 112.242C94.5333 112.022 94.8213 111.638 95.1423 111.607C97.6683 111.364 99.5793 109.898 101.538 108.508C102.473 107.844 103.443 107.228 104.365 106.548C107.864 103.967 110.098 100.36 112.294 96.7229C112.953 95.6309 113.649 94.5609 114.422 93.4599Z"
    fill="#966E54" />
  <path
    d="M96.5493 92.0547C96.9803 92.1277 97.3113 92.2017 97.7353 92.3207C97.3983 93.6497 96.3443 94.1937 95.1513 94.4467C94.8313 94.5147 94.4103 94.1057 94.0363 93.9157C94.2003 93.6217 94.2933 93.2187 94.5433 93.0547C95.1393 92.6627 95.8093 92.3827 96.5493 92.0547Z"
    fill="#966E54" />
  <path
    d="M72.3563 84.8228C72.8743 84.9578 73.3093 85.0988 73.7913 85.3108C73.2583 85.5668 72.6793 85.7518 71.9933 85.9408C71.8863 85.7318 71.8843 85.5198 71.8833 85.2018C72.0133 85.0068 72.1433 84.9178 72.3563 84.8228Z"
    fill="#D9A986" />
  <path
    d="M116.576 92.6037C116.612 92.3657 116.743 92.1147 116.955 91.8247C116.914 92.0547 116.793 92.3227 116.576 92.6037Z"
    fill="#966E54" />
  <path
    d="M98.1843 92.0698C98.3033 91.8918 98.5113 91.7008 98.8183 91.5078C98.7023 91.6898 98.4873 91.8738 98.1843 92.0698Z"
    fill="#966E54" />
  <path
    d="M99.0233 91.2338C99.0563 91.0658 99.1783 90.8808 99.3903 90.6848C99.3583 90.8548 99.2353 91.0358 99.0233 91.2338Z"
    fill="#966E54" />
  <path
    d="M25.2854 66.4629C24.1393 66.4229 22.9931 66.3829 21.7773 66.1629C22.5521 64.7359 23.3967 63.4889 24.2413 62.2429C24.1128 62.1569 23.9844 62.0709 23.856 61.9849C22.6151 63.1319 21.5694 64.4199 21.1581 66.1659C19.8192 66.5519 19.3051 65.5789 18.9954 64.6509C18.71 63.7969 19.0627 63.1099 19.865 62.4075C22.6941 59.9311 24.8365 61.7167 27.1407 63.4019C26.5713 64.4819 25.9283 65.4719 25.2854 66.4629Z"
    fill="#EDB6B0" />
  <path
    d="M74.7033 65.0968C73.6203 65.5108 72.5373 65.9248 71.3883 66.1738C70.6653 64.8908 70.0083 63.7728 69.3513 62.654C70.5413 61.2414 71.8263 62.3408 73.1923 62.6314C73.7723 63.5338 74.2383 64.3158 74.7033 65.0968Z"
    fill="#EDB6B0" />
  <path
    d="M5.38697 59.6288C5.17737 59.1751 5.08507 58.762 4.99207 58.2578C7.25827 58.4818 9.53107 58.7618 11.7856 59.1488C12.133 59.2084 12.3959 59.76 12.6979 60.084C12.2449 60.3075 11.7616 60.7655 11.3444 60.7116C9.97867 60.5352 8.64027 60.1565 7.28477 59.889C6.69957 59.7735 6.09827 59.74 5.38697 59.6288Z"
    fill="#DAB69E" />
  <path
    d="M89.8623 58.281C89.9893 58.6461 89.9933 59.0111 89.9953 59.4788C88.0103 59.9595 86.0363 60.3919 84.0403 60.6747C83.5843 60.7392 83.0553 60.2872 82.5603 60.0729C82.9113 59.7349 83.2223 59.165 83.6183 59.0979C85.6463 58.7543 87.6963 58.5402 89.8623 58.281Z"
    fill="#DAB69E" />
  <path
    d="M50.8038 73.8898C52.0246 74.3898 53.1899 75.1608 54.6134 74.4058C54.8397 74.2858 55.5192 74.5208 55.5925 74.7308C55.6983 75.0328 55.5187 75.7368 55.3264 75.7908C54.3898 76.0538 53.3447 76.4488 52.457 76.2538C50.9224 75.9178 49.5238 75.1148 48.8248 73.4968C49.315 73.3988 49.7212 73.3978 50.1273 73.3978C50.1273 73.3978 50.1415 73.3908 50.1545 73.4928C50.3796 73.6928 50.5917 73.7908 50.8038 73.8898Z"
    fill="#D7B298" />
  <path
    d="M45.185 74.9029C44.0425 75.4149 42.9242 75.9979 41.7442 76.4009C41.3416 76.5379 40.689 76.3479 40.3242 76.0759C39.9631 75.8059 39.8211 75.2429 39.583 74.8089C40.0415 74.6979 40.5946 74.3669 40.9415 74.5159C42.1402 75.0309 43.0923 74.5319 44.2701 73.9779C44.6835 73.7659 44.9052 73.5909 45.1269 73.4149C45.1269 73.4149 45.2244 73.3699 45.3874 73.3749C45.7917 73.5899 46.0328 73.8009 46.274 74.0109C46.247 74.0919 46.1988 74.1559 45.9631 74.2219C45.5927 74.4599 45.3889 74.6809 45.185 74.9029Z"
    fill="#D7B298" />
  <path
    d="M46.3646 73.9807C46.0329 73.8007 45.7917 73.5897 45.4403 73.3647C45.7224 72.0637 46.1148 70.7767 46.4999 69.3747C47.1668 69.2367 47.8411 69.2127 48.6398 69.2147C48.7614 69.7997 48.7585 70.3597 48.6472 71.0617C48.4345 71.7347 48.3301 72.2647 48.2177 72.8037C48.2095 72.8117 48.1933 72.8277 48.1933 72.8277C46.9021 72.1007 47.1358 73.7337 46.3646 73.9807Z"
    fill="#DDBCA6" />
  <path
    d="M70.7974 66.0777C70.4764 66.0947 70.1534 66.1447 69.8344 66.1227C68.9154 66.0587 67.7084 66.0597 67.6354 64.9607C67.5894 64.2617 68.4194 63.5047 68.9674 62.8677C69.6514 64.0007 70.2244 65.0387 70.7974 66.0777Z"
    fill="#EDB6B0" />
  <path
    d="M50.0964 73.3068C49.7211 73.3978 49.3149 73.3988 48.7839 73.4078C48.5095 73.2758 48.3599 73.1358 48.2018 72.9118C48.1932 72.8278 48.2095 72.8118 48.3069 72.8128C48.5848 72.4618 48.7652 72.1098 48.9456 71.7578C49.3189 72.2438 49.6922 72.7298 50.0964 73.3068Z"
    fill="#DDBCA6" />
  <path
    d="M48.9615 71.6719C48.7653 72.1099 48.5849 72.4619 48.3151 72.8049C48.3301 72.2649 48.4345 71.7339 48.6422 71.1819C48.8229 71.3019 48.9001 71.4449 48.9615 71.6719Z"
    fill="#D7B298" />
  <path
    d="M45.2773 74.8778C45.3889 74.6818 45.5927 74.4598 45.9079 74.2478C45.8026 74.4568 45.5861 74.6548 45.2773 74.8778Z"
    fill="#DDBCA6" />
  <path
    d="M45.0373 73.4158C44.9052 73.5908 44.6835 73.7658 44.3617 73.9378C44.4903 73.7618 44.719 73.5898 45.0373 73.4158Z"
    fill="#DDBCA6" />
  <path
    d="M50.7632 73.8098C50.5917 73.7908 50.3796 73.6928 50.1505 73.4998C50.3298 73.5128 50.5262 73.6218 50.7632 73.8098Z"
    fill="#DDBCA6" />
  <path
    d="M84.3553 79.3479C84.3753 79.4079 84.3203 79.4579 84.1933 79.5039C84.1753 79.4489 84.2293 79.3949 84.3553 79.3479Z"
    fill="#DDBCA6" />
  <path
    d="M74.2573 64.3638C73.6893 63.1158 73.1883 61.9878 72.6793 60.7258C74.6243 61.1878 74.7573 63.6498 75.6793 65.3038C75.5643 65.4438 75.4493 65.5848 75.3333 65.7258C74.9973 65.3118 74.6613 64.8978 74.2573 64.3638Z"
    fill="#ED7474" />
  <path
    d="M67.1543 67.3968C66.6263 65.8588 66.1533 64.4788 65.6793 63.0978C65.8833 62.9738 66.0883 62.8498 66.2923 62.7258C67.0883 64.5598 67.8833 66.3938 68.6793 68.2278C68.5473 68.3938 68.4143 68.5598 68.2823 68.7258C67.9243 68.3348 67.5663 67.9438 67.1543 67.3968Z"
    fill="#ED7474" />
  <path
    d="M70.6463 66.3968C69.9423 64.8588 69.3113 63.4788 68.6793 62.0978C68.9523 61.9738 69.2243 61.8498 69.4963 61.7258C70.5573 63.5598 71.6183 65.3938 72.6793 67.2278C72.5033 67.3938 72.3263 67.5598 72.1503 67.7258C71.6733 67.3348 71.1953 66.9438 70.6463 66.3968Z"
    fill="#ED7474" />
  <path
    d="M24.6793 69.1628C25.5284 67.2558 26.3935 65.5098 27.288 63.5938C27.6002 63.1918 27.883 62.9588 28.1658 62.7258C28.3369 62.8968 28.5081 63.0688 28.6793 63.2398C27.5372 65.4088 26.3965 67.5778 25.2312 69.7248C25.2194 69.7468 24.8812 69.4638 24.6793 69.1628Z"
    fill="#ED7474" />
  <path
    d="M19.6793 68.7168C20.216 65.3688 21.9628 62.9128 24.0357 60.7258C24.2502 60.8898 24.4648 61.0538 24.6793 61.2178C23.2685 63.5938 21.8577 65.9698 20.441 68.5428C20.2334 68.7388 20.0315 68.7378 19.6793 68.7168Z"
    fill="#ED7474" />
  <path
    d="M18.1159 62.6248C17.2099 64.0898 16.4073 65.4078 15.6048 66.7258C15.2963 66.4768 14.9878 66.2268 14.6793 65.9778C16.1072 63.8938 17.535 61.8098 18.9629 59.7258C19.2017 59.9198 19.4405 60.1138 19.6793 60.3088C19.1927 61.0318 18.7061 61.7558 18.1159 62.6248Z"
    fill="#ED7474" />
  <path
    d="M80.4933 100.332C80.1453 100.019 79.7953 99.6029 79.4453 99.0869C79.7943 99.4009 80.1433 99.8149 80.4933 100.332Z"
    fill="#D9A986" />
  <path
    d="M83.2693 80.8478C83.1513 80.9528 82.9933 80.9958 82.7953 80.9758C82.9133 80.8698 83.0713 80.8278 83.2693 80.8478Z"
    fill="#D9B196" />
  <path
    d="M45.035 59.866C45.276 59.9399 45.5913 60.1655 45.5702 60.2035C45.2004 60.8665 44.7895 61.5066 44.2315 62.4019C43.7697 61.136 44.4263 60.5534 45.035 59.866Z"
    fill="#DDBCA6" />
  <path
    d="M30.6421 50.2808C30.9672 49.856 31.2633 49.3327 31.6207 49.2867C31.897 49.2512 32.3552 49.7647 32.5254 50.1306C32.6121 50.317 32.1792 50.9928 32.0899 50.9723C31.5881 50.8575 31.1194 50.598 30.6421 50.2808Z"
    fill="#D7B298" />
  <path d="M137.817 103.649C137.801 103.658 137.833 103.639 137.817 103.649V103.649Z" fill="#9B7B65" />
  <path d="M5.1078 72.1437C5.0976 72.1277 5.118 72.1607 5.1078 72.1437V72.1437Z" fill="#D7B298" />
  <path
    d="M28.5537 47.7925C28.8809 48.0314 28.6599 47.7726 28.9629 47.9444C29.0911 48.0171 29.8563 48.0203 29.9487 47.9444C30.0424 47.8674 29.9863 47.7781 29.9488 47.6309C27.6098 47.278 27.5591 45.937 27.0692 46.0538C27.5 46 26.9105 46.0916 27.0692 46.0538C27.0618 46.2245 27.6479 46.9339 27.8019 47.0269C28.119 47.2184 28.1625 47.6141 28.5537 47.7925Z"
    fill="#0C0401" />
  <path
    d="M28 48.7655C28.4363 49.0044 28.1416 48.7456 28.5456 48.9174C28.7165 48.9901 29.7368 48.9933 29.8599 48.9174C29.9849 48.8404 29.9101 48.7511 29.8601 48.604C27 48.5 26.4284 46.973 26.0206 47.0268C26.4284 46.973 25.8091 47.0646 26.0206 47.0268C26.0107 47.1976 26.7946 47.907 27 48C27.1589 48.072 27.4783 48.5872 28 48.7655Z"
    fill="#0C0401" />
</svg>