<svg width="45" height="67" viewBox="0 0 45 67" fill="none" xmlns="http://www.w3.org/2000/svg">
  <path
    d="M37.8776 52.8714C35.8709 53.1114 33.8693 53.4239 31.8556 53.5629C30.7265 53.6408 29.5775 53.4313 28.0188 53.4773C27.1466 53.7017 26.6931 53.8 26.157 53.6681C23.131 53.0005 20.1875 52.5631 17.1634 52.1037C16.8957 52.0652 16.785 51.9782 16.7505 51.8208C16.3261 51.4666 15.9017 51.1124 15.4247 50.3309C14.1108 46.63 11.3973 45.2124 8.18066 44.1704C7.72552 43.6843 7.34866 43.3656 6.87292 42.8593C6.91445 41.9942 7.05676 41.3171 7.19465 40.6391C7.29241 40.1583 7.38423 39.6764 7.4787 39.195C7.4787 39.195 7.59642 39.3001 7.75889 39.2772C9.29153 38.8485 10.6617 38.4428 12.2077 38.1077C12.714 38.362 13.0445 38.5456 13.5186 38.8863C14.223 39.1002 14.7838 39.1571 15.5417 39.3055C18.5571 41.5524 21.3755 43.7078 24.1106 46.0492C24.3047 46.9091 24.5821 47.5828 24.9576 48.3886C25.2058 48.6809 25.3557 48.8411 25.5093 49.1415C25.7279 49.3551 25.9428 49.4285 26.3698 49.5076C26.8647 49.5128 27.1476 49.5123 27.5303 49.6471C28.2002 49.4803 28.7701 49.1782 29.548 48.9543C32.4632 50.312 35.1704 51.5917 37.8776 52.8714Z"
    fill="#48841A" />
  <path
    d="M39.6029 29.143C40.3522 30.7307 40.9189 32.6174 39.0484 33.4734C37.9441 33.9788 36.2531 33.2566 34.8406 33.0041C34.3562 32.9175 33.9164 32.5809 33.0255 32.437C32.211 33.0826 31.8272 33.6497 31.2112 34.56C27.3083 31.4378 23.5753 28.392 19.7684 25.4415C18.5887 24.5272 17.2083 23.8718 15.9287 22.8662C15.9317 22.011 15.926 21.3876 15.9202 20.7641C15.9202 20.7641 15.9229 20.7644 16.1213 20.8549C17.3192 20.8269 18.3188 20.7083 19.5002 20.6194C19.9191 20.7118 20.1563 20.7747 20.4207 21.022C20.6674 21.3894 20.8869 21.5724 21.1064 21.7553C21.2834 21.4167 21.4604 21.0782 21.7376 20.5861C22.051 20.3149 22.2641 20.1972 22.6639 20.2055C23.5444 20.9148 24.2382 21.4981 24.8002 22.3096C24.3699 25.8604 25.1059 26.3499 28.408 25.0841C30.9824 26.6324 33.3544 28.1122 35.8507 29.3392C36.5001 29.6584 37.5374 29.1884 38.5472 29.0827C38.9995 29.1039 39.3012 29.1234 39.6029 29.143Z"
    fill="#48841A" />
  <path
    d="M16.5243 51.8979C16.785 51.9782 16.8957 52.0652 17.1564 52.3384C17.6132 53.162 17.8882 53.8635 18.3977 54.2736C21.1709 56.5053 21.0513 58.4394 17.9789 60.361C17.1107 60.904 16.3007 61.5398 15.2269 62.3013C15.9167 62.854 16.3501 63.2855 16.858 63.5949C21.1235 66.1935 24.1618 64.874 25.0852 60.0377C25.4757 57.9923 25.8552 55.9448 26.2397 53.8982C26.6932 53.7999 27.1467 53.7016 27.6947 53.5136C27.047 57.24 26.4159 61.0824 25.5229 64.8629C24.9397 67.3317 22.872 66.8455 21.1055 66.5128C18.6374 66.048 16.2091 65.3507 13.7305 64.968C11.7707 64.6655 11.433 63.4815 12.0002 62.0308C13.3271 58.6376 14.8529 55.3221 16.5243 51.8979Z"
    fill="#653B2D" />
  <path
    d="M24.7267 12.5981C23.7738 11.857 22.6521 11.2494 21.9256 10.3295C21.4157 9.68382 21.1098 8.52916 21.3044 7.74945C21.6747 6.26579 22.7891 4.93709 23.0167 3.45529C23.4335 0.740272 24.5514 -0.161705 26.6632 1.47458C29.5547 3.71493 30.6359 -0.0347074 32.9685 0.0278757C33.1639 0.376183 33.7019 0.894226 33.6065 1.23478C32.8639 3.88532 32.9433 6.22244 35.4063 8.0536C35.515 8.13444 34.7719 9.81587 34.106 10.3618C33.3737 10.9622 32.2713 11.111 31.0594 11.6796C30.7886 11.9026 30.554 11.7268 30.4793 11.5267C31.2813 10.3146 32.158 9.30274 33.0172 8.31125C32.3711 7.12864 31.4678 5.47514 30.7296 4.12372C28.9307 3.92324 27.2472 3.73563 25.7209 3.56553C25.0968 5.25955 24.4621 6.9826 23.8474 8.65115C24.2804 10.197 28.5489 8.2862 26.5307 11.958C25.8159 12.2092 25.2713 12.4037 24.7267 12.5981Z"
    fill="#FCD54C" />
  <path
    d="M15.9198 23.0979C17.2083 23.8718 18.5886 24.5272 19.7683 25.4415C23.5752 28.392 27.3082 31.4378 31.2112 34.5601C31.8272 33.6498 32.2109 33.0826 32.7792 32.4593C33.6957 34.0145 34.4276 35.6258 35.1329 37.6907C34.2565 38.337 33.4067 38.5298 32.4552 38.6667C32.3536 38.6107 32.1222 38.6016 31.9866 38.4236C29.1123 36.4526 26.3737 34.6595 23.6159 32.8828C23.5968 32.899 23.6464 32.8918 23.5908 32.7474C23.4039 32.412 23.2237 32.3345 22.783 32.3028C21.8731 32.0241 21.175 31.8134 20.4437 31.3807C19.7214 30.2105 19.0323 29.2623 18.3836 28.0812C18.485 25.7842 17.508 24.897 15.3331 25.0491C15.4474 24.2785 15.6836 23.6882 15.9198 23.0979Z"
    fill="#EDC844" />
  <path
    d="M32.5568 38.7226C33.4066 38.5299 34.2565 38.3371 35.1136 37.9055C37.9495 42.3332 40.8445 46.9618 43.5519 51.6976C44.1056 52.6662 43.9559 54.0369 44.1304 55.2223C42.9486 55.3828 41.6275 55.936 40.6285 55.5815C39.8061 55.2896 39.3658 53.9213 38.5198 52.664C38.2803 51.6059 38.2772 50.9139 38.4494 50.0654C39.8072 45.4055 37.4791 41.0315 33.6459 40.8488C33.762 41.568 33.8726 42.2529 34.0097 43.1018C31.5937 42.1698 31.3366 41.2131 32.5568 38.7226Z"
    fill="#5E8F43" />
  <path
    d="M24.932 22.0816C24.2382 21.4983 23.5443 20.915 22.6242 19.966C21.9124 18.4281 21.4268 17.256 20.9413 16.0838C20.9413 16.0838 20.9803 15.8324 21.2929 15.7227C23.7841 17.0932 25.9628 18.5736 28.24 20.2407C29.7421 21.387 31.1456 22.3464 32.5491 23.3839C32.549 23.462 32.6464 23.5841 32.6487 23.8077C32.9556 26.306 34.4605 26.6719 36.6076 26.4379C37.355 27.3596 37.8757 28.2204 38.3965 29.0811C37.5373 29.1886 36.5 29.6585 35.8506 29.3393C33.3543 28.1123 30.9823 26.6325 28.3879 24.8539C28.2547 22.1014 26.7277 21.9062 24.932 22.0816Z"
    fill="#EDC844" />
  <path
    d="M18.3433 28.3141C19.0323 29.2624 19.7214 30.2106 20.3068 31.5501C18.8 33.1134 17.3969 34.2854 15.8835 35.4833C15.7733 35.5093 15.5511 35.5532 15.3969 35.3844C14.9948 34.6692 14.7467 34.1227 14.4987 33.5762C15.3994 32.7633 16.3001 31.9503 17.7712 30.6225C15.3817 30.1168 13.7101 29.7357 12.0272 29.4132C9.55197 28.9388 9.40156 27.397 10.6711 25.7796C12.0831 23.9807 13.8738 22.4791 15.7099 20.8062C15.9259 21.3877 15.9317 22.0112 15.9286 22.8663C15.6836 23.6883 15.4474 24.2786 15.2842 25.273C14.1396 29.0621 16.6835 28.1874 18.3433 28.3141Z"
    fill="#5E8F43" />
  <path
    d="M7.25573 39.2146C7.38423 39.6764 7.29242 40.1583 7.19465 40.639C7.05676 41.3171 6.91445 41.9942 6.65423 42.9257C5.69072 44.2967 6.3437 44.883 5.5 46C6.81489 46.1551 6.63184 46.8535 7.94894 46.9867C8.25141 47.0173 8.56583 46.9296 8.91485 47.1169C9.53452 48.0878 10.1141 48.8382 10.6937 49.5886C8.16529 49.2141 5.57743 49.063 3.12353 48.4091C0.0135772 47.5804 -0.457488 45.9248 1.71599 43.6752C3.31134 42.0239 5.24813 40.7026 7.25573 39.2146Z"
    fill="#5E8F43" />
  <path
    d="M28.1415 20.0537C25.9628 18.5734 23.7841 17.0931 21.3831 15.6328C22.2486 14.754 23.3367 13.8552 24.5757 12.7773C25.2713 12.4036 25.8159 12.2092 26.613 12.1612C28.694 15.9181 29.2679 11.5611 30.554 11.7268C30.554 11.7268 30.7887 11.9026 30.9344 11.9111C31.0802 11.9195 31.106 12.0756 31.0286 12.2962C31.0776 13.1326 31.2041 13.7485 31.0909 14.3874C29.5582 14.9599 28.2651 15.5093 26.9939 16.0493C27.4256 17.4996 27.8011 18.7614 28.1683 20.0315C28.1599 20.0398 28.1415 20.0537 28.1415 20.0537Z"
    fill="#48841A" />
  <path
    d="M38.274 50.2217C38.2772 50.9137 38.2803 51.6057 38.301 52.5571C38.3186 52.8165 38.1086 52.9308 37.9931 52.901C35.1705 51.5915 32.4633 50.3118 29.479 48.8214C29.0557 48.469 28.8864 48.3646 28.6776 48.0121C28.6829 47.1555 28.7045 46.5844 28.9729 46.0806C29.8875 46.2441 30.5552 46.3403 31.2341 46.4348C31.2453 46.4332 31.2305 46.4176 31.3446 46.6081C33.3133 47.7047 35.168 48.6108 37.0944 49.6992C37.5354 49.9949 37.9047 50.1083 38.274 50.2217Z"
    fill="#EDC844" />
  <path
    d="M10.9526 49.6096C10.1142 48.838 9.53461 48.0876 8.91417 46.8974C8.66854 45.7509 8.46379 45.0443 8.25903 44.3376C11.3974 45.2122 14.1109 46.6298 15.2843 50.0911C13.8682 50.0628 12.5398 49.8468 10.9526 49.6096Z"
    fill="#EDC844" />
  <path
    d="M36.381 26.3768C34.4605 26.6718 32.9556 26.3059 32.85 23.7283C33.9734 22.7702 34.8978 22.1149 35.8222 21.4597C36.6072 22.5176 37.3922 23.5754 37.9455 24.8744C37.2695 25.5359 36.8253 25.9564 36.381 26.3768Z"
    fill="#EC71D4" />
  <path
    d="M35.7628 21.2228C34.8978 22.1149 33.9734 22.7702 32.8477 23.5047C32.6464 23.584 32.549 23.4618 32.5903 23.1759C33.1326 21.7352 36.3146 20.5741 32.7019 19.2298C32.2973 17.4747 31.8139 15.9196 31.3305 14.3644C31.2041 13.7485 31.0776 13.1327 31.0109 12.3733C32.6148 15.1485 34.1591 18.0672 35.7628 21.2228Z"
    fill="#5E8F43" />
  <path
    d="M14.3013 33.6323C14.7467 34.1227 14.9947 34.6692 15.3714 35.5532C15.4939 36.1175 15.4877 36.3442 15.4292 36.7727C15.1274 37.4541 14.8779 37.9336 14.4188 38.4636C13.9311 38.5858 13.653 38.6575 13.375 38.7292C13.0445 38.5456 12.714 38.3619 12.1426 37.9114C11.6867 37.2889 11.4715 36.9332 11.2563 36.5775C12.2056 35.6145 13.1548 34.6514 14.3013 33.6323Z"
    fill="#EC71D4" />
  <path
    d="M20.7526 16.175C21.4268 17.2559 21.9124 18.4281 22.4376 19.8399C22.264 20.1973 22.0508 20.315 21.5291 20.5774C20.9448 20.7606 20.6691 20.7991 20.3934 20.8376C20.1562 20.7748 19.919 20.7119 19.4379 20.438C18.642 19.7528 18.0901 19.2786 17.5381 18.8044C18.5467 17.9584 19.5553 17.1124 20.7526 16.175Z"
    fill="#EC71D4" />
  <path
    d="M36.6077 26.4378C36.8253 25.9564 37.2696 25.5359 37.9191 25.0818C38.6536 26.2745 39.1828 27.5009 39.6575 28.9352C39.3012 29.1235 38.9994 29.104 38.5471 29.0827C37.8758 28.2203 37.355 27.3595 36.6077 26.4378Z"
    fill="#5E8F43" />
  <path
    d="M17.361 18.9365C18.0901 19.2787 18.6421 19.7529 19.2562 20.4086C18.3187 20.7086 17.3191 20.8271 16.1212 20.8539C16.3433 20.1976 16.7636 19.6331 17.361 18.9365Z"
    fill="#5E8F43" />
  <path
    d="M11.0513 36.6338C11.4715 36.933 11.6867 37.2887 11.9669 37.8406C10.6617 38.4426 9.29157 38.8483 7.70105 39.2259C8.60253 38.3619 9.72436 37.5261 11.0513 36.6338Z"
    fill="#5E8F43" />
  <path
    d="M37.9102 54.4124C38.0208 54.506 38.0382 54.687 38.0557 54.8679C37.9761 54.7452 37.8966 54.6224 37.9102 54.4124Z"
    fill="#DFD65C" />
  <path
    d="M26.157 53.668C25.8552 55.9448 25.4757 57.9923 25.0851 60.0377C24.1618 64.8739 21.1234 66.1934 16.8579 63.5948C16.3501 63.2854 15.9166 62.8539 15.2268 62.3013C16.3007 61.5398 17.1107 60.9039 17.9788 60.361C21.0512 58.4394 21.1708 56.5053 18.3977 54.2735C17.8882 53.8635 17.6132 53.162 17.237 52.3604C20.1875 52.5631 23.131 53.0004 26.157 53.668Z"
    fill="#502616" />
  <path
    d="M14.6284 38.413C14.8779 37.9335 15.1274 37.454 15.6428 36.802C17.1797 37.3212 18.4507 38.0129 19.7361 38.6923C19.7504 38.6799 19.7359 38.7147 19.8214 38.911C22.0792 41.0559 24.2515 43.0046 26.212 45.0364C25.6267 45.3777 25.2531 45.6359 24.7087 45.8724C24.4232 45.8549 24.3086 45.859 24.1939 45.8631C21.3755 43.7077 18.5571 41.5523 15.457 39.1464C14.993 38.7349 14.8107 38.5739 14.6284 38.413Z"
    fill="#EDC844" />
  <path
    d="M8.5 44C8.78304 44.8741 8.66856 45.7509 8.87408 46.6769C8.56593 46.9294 8.25151 47.0171 7.94904 46.9865C6.63194 46.8533 6.5 47 5.5 46C5.5 45 5.5 44 6.75321 43.113C7.60197 43.113 8.04486 43.5138 8.5 44Z"
    fill="#EC71D4" />
  <path
    d="M24.8795 45.894C25.2531 45.6358 25.6267 45.3776 26.3929 45.0701C27.4323 45.3516 28.0792 45.6824 28.7261 46.0133C28.7045 46.5844 28.6829 47.1556 28.5135 48.0862C28.054 48.8011 27.7422 49.1564 27.4304 49.5117C27.1476 49.5122 26.8647 49.5126 26.3022 49.3774C25.8891 49.078 25.7168 48.9978 25.5056 49.0011C25.3557 48.8409 25.2058 48.6807 24.9784 48.1521C24.8938 47.1537 24.8867 46.5239 24.8795 45.894Z"
    fill="#EC71D4" />
  <path
    d="M24.7087 45.8724C24.8866 46.5239 24.8938 47.1538 24.8802 48.0201C24.5821 47.5827 24.3047 46.909 24.1106 46.0492C24.3086 45.859 24.4233 45.8549 24.7087 45.8724Z"
    fill="#5E8F43" />
  <path
    d="M27.5304 49.6471C27.7423 49.1565 28.0541 48.8013 28.5299 48.3719C28.8864 48.3648 29.0557 48.4692 29.271 48.7436C28.7701 49.1782 28.2002 49.4803 27.5304 49.6471Z"
    fill="#5E8F43" />
  <path
    d="M14.4188 38.4636C14.8107 38.574 14.993 38.7349 15.26 39.0549C14.7838 39.1571 14.223 39.1002 13.5186 38.8863C13.653 38.6576 13.9311 38.5859 14.4188 38.4636Z"
    fill="#5E8F43" />
  <path
    d="M25.5093 49.1414C25.7167 48.9979 25.8891 49.0781 26.0901 49.3718C25.9428 49.4285 25.7279 49.355 25.5093 49.1414Z"
    fill="#5E8F43" />
  <path
    d="M24.8002 22.3096C26.7278 21.9061 28.2547 22.1013 28.2319 24.691C25.1059 26.3499 24.3699 25.8604 24.8002 22.3096Z"
    fill="#7A20A4" />
  <path
    d="M15.1123 40.1624C17.0399 39.7588 18.5668 39.954 18.544 42.5438C15.418 44.2027 14.682 43.7132 15.1123 40.1624Z"
    fill="#7A20A4" />
  <path
    d="M20.4207 21.0222C20.6692 20.7992 20.9449 20.7607 21.429 20.731C21.4604 21.0783 21.2834 21.4169 21.1063 21.7555C20.8868 21.5725 20.6673 21.3896 20.4207 21.0222Z"
    fill="#5E8F43" />
  <path
    d="M30.4792 11.5268C29.2679 11.5612 28.694 15.9183 26.7831 12.1046C28.5489 8.28635 24.2804 10.1971 23.8474 8.65129C24.4621 6.98275 25.0968 5.25969 25.7209 3.56567C27.2472 3.73578 28.9306 3.92339 30.7296 4.12387C31.4678 5.47528 32.3711 7.12879 33.0172 8.31139C32.158 9.30289 31.2813 10.3148 30.4792 11.5268Z"
    fill="#FADE7A" />
  <path
    d="M38.4495 50.0654C37.9048 50.1084 37.5355 49.995 37.0977 49.4452C36.2638 45.532 33.4272 46.6911 31.2306 46.4177C31.2306 46.4177 31.2453 46.4333 31.1633 46.2178C29.9794 45.1162 28.7922 44.3146 27.8045 43.3157C27.1022 42.6054 26.6688 41.6294 26.2827 40.6973C26.9732 39.7506 27.4963 38.8785 28.2168 37.9492C29.6502 38.1286 30.8863 38.3651 32.1223 38.6016C32.1223 38.6016 32.3536 38.6108 32.4552 38.6667C31.3367 41.2131 31.5938 42.1698 34.0098 43.1018C33.8727 42.2528 33.7621 41.568 33.6459 40.8487C37.4792 41.0315 39.8072 45.4055 38.4495 50.0654Z"
    fill="#3B9022" />
  <path
    d="M15.9938 35.4572C17.3969 34.2853 18.8001 33.1133 20.3401 31.772C21.1751 31.8134 21.8732 32.0241 22.8537 32.4303C23.2723 32.7794 23.4425 32.868 23.6465 32.8918C23.6465 32.8918 23.5968 32.899 23.6283 33.1001C24.5059 34.4198 25.3519 35.5383 25.9775 36.718C25.4541 36.7848 25.1512 36.7906 24.7332 36.628C24.1389 36.666 23.2486 36.89 23.2567 37.0753C23.2814 37.6491 23.648 38.2082 23.9175 38.9111C23.9531 39.0492 23.9876 39.3324 23.7142 39.3269C22.2058 39.1192 20.9709 38.9169 19.7359 38.7146C19.7359 38.7146 19.7505 38.6798 19.7487 38.4535C18.4958 37.3039 17.2448 36.3806 15.9938 35.4572Z"
    fill="#3B9022" />
  <path
    d="M26.1979 36.657C25.3519 35.5385 24.5059 34.4199 23.6475 33.084C26.3737 34.6596 29.1124 36.4527 31.9866 38.4237C30.8862 38.3652 29.6502 38.1287 28.1457 37.7602C27.3175 37.3045 26.7577 36.9808 26.1979 36.657Z"
    fill="#48841A" />
  <path
    d="M18.3837 28.0813C16.6836 28.1874 14.1396 29.0621 15.4062 25.4532C17.508 24.897 18.485 25.7843 18.3837 28.0813Z"
    fill="#7A20A4" />
  <path
    d="M23.5908 32.7474C23.4424 32.8681 23.2722 32.7794 23.0653 32.4982C23.2236 32.3345 23.4038 32.412 23.5908 32.7474Z"
    fill="#48841A" />
  <path
    d="M32.6231 19.4297C36.3146 20.5741 33.1326 21.7353 32.5904 23.0979C31.1457 22.3463 29.7421 21.3869 28.24 20.2407C28.1415 20.0539 28.1599 20.0399 28.4269 20.0644C30.0037 19.8691 31.3134 19.6494 32.6231 19.4297Z"
    fill="#48841A" />
  <path
    d="M15.8835 35.4832C17.2448 36.3805 18.4958 37.3039 19.7343 38.4659C18.4508 38.0128 17.1797 37.3211 15.6951 36.6001C15.4878 36.344 15.4939 36.1173 15.5256 35.7218C15.5511 35.5531 15.7733 35.5091 15.8835 35.4832Z"
    fill="#48841A" />
  <path
    d="M32.7018 19.2298C31.3134 19.6493 30.0036 19.869 28.4353 20.056C27.8011 18.7615 27.4255 17.4996 26.9939 16.0493C28.265 15.5093 29.5581 14.9599 31.0909 14.3875C31.8138 15.9195 32.2972 17.4747 32.7018 19.2298Z"
    fill="#59F2E9" />
  <path
    d="M19.8214 38.9109C20.9708 38.9169 22.2057 39.1191 23.8046 39.4534C24.8174 39.9809 25.4663 40.3764 26.1152 40.7718C26.6687 41.6293 27.1021 42.6054 27.8044 43.3156C28.7921 44.3145 29.9793 45.1161 31.152 46.2193C30.5552 46.3403 29.8874 46.2441 28.9729 46.0806C28.0792 45.6824 27.4323 45.3516 26.6046 44.9869C24.2515 43.0045 22.0792 41.0558 19.8214 38.9109Z"
    fill="#48841A" />
  <path
    d="M31.3446 46.6082C33.4272 46.6911 36.2638 45.532 37.0259 49.2629C35.168 48.6109 33.3133 47.7048 31.3446 46.6082Z"
    fill="#48841A" />
  <path
    d="M26.2827 40.6974C25.4664 40.3764 24.8175 39.981 24.0781 39.459C23.9876 39.3325 23.9531 39.0493 24.0347 38.7653C24.3603 37.9197 24.6042 37.3581 24.8482 36.7965C25.1511 36.7907 25.4541 36.7849 25.9775 36.718C26.7577 36.9807 27.3175 37.3045 27.9483 37.8172C27.4962 38.8785 26.9732 39.7506 26.2827 40.6974Z"
    fill="#7A20A4" />
  <path
    d="M29.294 32.9793C28.4778 32.6584 27.8289 32.263 27.0895 31.741C26.999 31.6145 26.9644 31.3313 27.0461 31.0473C27.3717 30.2017 27.6156 29.6401 27.8595 29.0785C28.1625 29.0727 28.4655 29.0668 28.9888 29C29.7691 29.2627 30.3288 29.5864 30.9597 30.0992C30.5076 31.1604 29.9845 32.0326 29.294 32.9793Z"
    fill="#EC71D4" />
  <path
    d="M24.7332 36.6282C24.6042 37.3582 24.3603 37.9198 23.9992 38.6273C23.648 38.2083 23.2814 37.6493 23.2566 37.0755C23.2486 36.8902 24.1389 36.6661 24.7332 36.6282Z"
    fill="#48841A" />
  <path
    d="M35 45.8239C35.3736 45.5657 35.7472 45.3076 36.5133 45C37.5528 45.2815 38.1997 45.6124 38.8466 45.9432C38.825 46.5144 38.8034 47.0855 38.634 48.0162C38.1745 48.731 37.8627 49.0863 37.5509 49.4416C37.2681 49.4421 36.9852 49.4426 36.4227 49.3074C36.0096 49.008 35.8373 48.9277 35.6261 48.931C35.4762 48.7708 35.3263 48.6107 35.0989 48.082C35.0143 47.0837 35.0071 46.4538 35 45.8239Z"
    fill="#59F2E9" />
  <path
    d="M19 47.5565C19.2914 47.3821 19.5827 47.2077 20.1803 47C20.991 47.1901 21.4955 47.4136 22 47.6371C21.9831 48.0228 21.9663 48.4086 21.8342 49.0372C21.4758 49.52 21.2327 49.76 20.9895 50C20.7689 50.0003 20.5483 50.0006 20.1096 49.9093C19.7874 49.7071 19.653 49.6529 19.4883 49.6551C19.3714 49.5469 19.2545 49.4387 19.0771 49.0817C19.0111 48.4074 19.0056 47.9819 19 47.5565Z"
    fill="#59F2E9" />
  <path
    d="M31 38.5565C31.3885 38.3821 31.777 38.2077 32.5737 38C33.6546 38.1901 34.3273 38.4136 35 38.6371C34.9775 39.0228 34.955 39.4086 34.779 40.0372C34.3011 40.52 33.9769 40.76 33.6527 41C33.3585 41.0003 33.0644 41.0006 32.4794 40.9093C32.0499 40.7071 31.8707 40.6529 31.6511 40.6551C31.4952 40.5469 31.3393 40.4387 31.1028 40.0817C31.0148 39.4074 31.0074 38.9819 31 38.5565Z"
    fill="#59F2E9" />
</svg>